<svg xmlns="http://www.w3.org/2000/svg" viewBox="0 0 1762 454"><path fill="#FFF" fill-rule="evenodd" d="M1755.728 421.71c1.33-.076 2.346-1.192 2.268-2.492-.08-1.3-1.222-2.29-2.553-2.214-2.985.172-6 .266-9.04.28-1.334.008-2.41 1.07-2.403 2.37.007 1.302 1.093 2.353 2.427 2.346 3.126-.015 6.23-.112 9.3-.29zm-19.26.287c1.334.068 2.467-1.055 2.53-2.51.062-1.455-.968-2.69-2.302-2.758-3.004-.16-6.02-.4-9.042-.72-1.33-.14-2.512.91-2.642 2.36-.13 1.45.84 2.74 2.17 2.88 3.103.33 6.2.58 9.287.73zm-18.265-2.026c1.332.22 2.572-.78 2.77-2.22.198-1.44-.72-2.78-2.052-3-3-.48-6.01-1.05-9-1.69-1.32-.28-2.6.64-2.87 2.07-.26 1.43.59 2.82 1.91 3.11 3.08.67 6.16 1.25 9.25 1.75zm-19.28-4.05c1.324.36 2.668-.5 3.002-1.92.333-1.42-.47-2.86-1.795-3.21-2.997-.81-5.976-1.69-8.934-2.66-1.307-.42-2.69.36-3.088 1.76-.398 1.4.337 2.88 1.644 3.31 3.036.99 6.095 1.91 9.17 2.74zm-18.308-5.06c1.312.45 2.76-.19 3.234-1.42.47-1.23-.21-2.58-1.52-3.03-2.98-1-5.92-2.08-8.83-3.22-1.29-.5-2.77.06-3.31 1.27s.06 2.6 1.35 3.1c2.99 1.18 6.01 2.28 9.06 3.31zm-18.08-8.1c1.202.58 2.646.08 3.225-1.12.58-1.2.074-2.63-1.13-3.21-2.722-1.3-5.407-2.68-8.052-4.12-1.17-.64-2.64-.21-3.28.96-.642 1.17-.212 2.63.958 3.27 2.72 1.49 5.48 2.9 8.28 4.24zm-16.37-9.12c1.18.71 2.73.36 3.46-.79s.364-2.65-.815-3.37c-2.67-1.6-5.29-3.28-7.863-5.03-1.138-.77-2.704-.5-3.496.61-.79 1.11-.51 2.64.63 3.41 2.65 1.8 5.35 3.52 8.09 5.18zm-16.1-11.16c1.06.85 2.59.66 3.42-.43.827-1.08.64-2.64-.42-3.49-2.396-1.91-4.74-3.89-7.027-5.94-1.012-.9-2.55-.8-3.436.24-.885 1.04-.782 2.61.23 3.51 2.356 2.11 4.768 4.15 7.234 6.12zm-14.138-12.15c.973.95 2.503.9 3.417-.11.915-1.01.867-2.6-.107-3.55-2.15-2.1-4.638-4.17-7.433-6.2-1.094-.79-2.6-.52-3.367.62-.765 1.14-.5 2.71.595 3.5 2.612 1.9 4.922 3.83 6.895 5.75zm-15.536-10.63c1.17.66 2.64.25 3.3-.91.66-1.15.25-2.62-.91-3.27-2.62-1.47-5.4-2.9-8.32-4.27-1.2-.56-2.65-.05-3.22 1.15-.57 1.2-.05 2.63 1.16 3.2 2.81 1.32 5.49 2.7 8.01 4.11zm-15.84-7.86c1.29.5 2.76-.11 3.27-1.34s-.11-2.64-1.4-3.14c-2.96-1.13-6-2.21-9.1-3.21-1.31-.42-2.74.26-3.18 1.52-.44 1.27.26 2.64 1.58 3.06 3.01.98 5.97 2.02 8.84 3.13zm-18.67-5.92c1.31.36 2.67-.38 3.04-1.65.37-1.27-.4-2.59-1.71-2.94-3.05-.83-6.12-1.58-9.2-2.24-1.32-.29-2.64.53-2.94 1.81-.29 1.29.54 2.57 1.87 2.86 2.99.65 5.98 1.38 8.95 2.18zm-18.69-4.94c1.33.22 2.57-.67 2.79-1.97.22-1.3-.67-2.54-2-2.75-3.13-.51-6.24-.92-9.29-1.22-1.33-.13-2.52.82-2.66 2.14-.13 1.32.84 2.49 2.17 2.63 2.96.3 5.96.7 9 1.19zm-17.66-1.08c1.33.04 2.45-1.01 2.49-2.34.04-1.33-1.01-2.45-2.34-2.49-3.22-.1-6.35-.06-9.38.11-1.33.08-2.35 1.22-2.27 2.56.08 1.34 1.22 2.36 2.55 2.28 2.89-.16 5.88-.2 8.97-.1zm-18.51.92c1.36-.27 2.23-1.56 1.95-2.87s-1.61-2.15-2.97-1.88c-3.26.66-6.44 1.79-9.61 3.36-1.23.62-1.71 2.08-1.08 3.27.64 1.2 2.15 1.66 3.39 1.05 2.78-1.38 5.53-2.36 8.34-2.92zm-15.96 7.61c1.08-.83 1.28-2.37.46-3.45-.82-1.08-2.37-1.28-3.44-.45-2.32 1.79-4.69 3.83-7.27 6.23-.99.93-1.04 2.49-.12 3.48.93 1 2.48 1.05 3.47.12 2.47-2.3 4.73-4.24 6.91-5.92zm-13.78 12.93c1-1 .99-2.61-.01-3.6-1.01-.99-2.64-.98-3.64.02-1.05 1.06-5.63 5.68-6.85 6.9-1 1-.99 2.62.02 3.61 1.01 1 2.64.99 3.64-.01 1.24-1.24 5.82-5.85 6.86-6.9zm-13.03 13.85c1-.92 1.04-2.46.1-3.43-.94-.97-2.51-1.02-3.51-.1-2.39 2.21-4.66 4.21-6.92 6.05-1.05.87-1.19 2.4-.31 3.42.88 1.03 2.45 1.16 3.5.3 2.34-1.91 4.69-3.97 7.15-6.24zm-15.28 12.34c1.13-.79 1.4-2.34.61-3.46-.79-1.12-2.34-1.39-3.47-.6-2.57 1.81-5.15 3.43-7.79 4.89-1.2.66-1.64 2.18-.97 3.38.67 1.2 2.18 1.64 3.39.97 2.8-1.54 5.53-3.26 8.25-5.16zm-17.5 9.32c1.28-.52 1.9-1.98 1.39-3.27-.51-1.28-1.96-1.91-3.24-1.39-2.83 1.14-5.72 2.1-8.7 2.88-1.33.35-2.14 1.72-1.79 3.06.34 1.34 1.71 2.15 3.04 1.81 3.19-.82 6.29-1.85 9.32-3.07zm-18.55 4.46c1.33-.18 2.26-1.51 2.1-2.97-.16-1.46-1.37-2.49-2.7-2.3-2.88.4-5.84.62-8.88.66-1.33.02-2.41 1.22-2.39 2.69.02 1.47 1.11 2.65 2.44 2.64 3.24-.03 6.38-.27 9.45-.69zm-19.53.69c1.34.12 2.52-.86 2.64-2.19.13-1.33-.86-2.51-2.19-2.63-.86-.08-1.72-.17-2.59-.27-2.16-.26-4.3-.54-6.42-.86-1.33-.2-2.56.72-2.76 2.04-.19 1.33.72 2.56 2.04 2.76 2.17.32 4.36.62 6.57.88.92.11 1.82.21 2.72.29zm-19.27-3.03c1.33.26 2.62-.62 2.87-1.98.26-1.35-.61-2.66-1.94-2.93-3.02-.59-6.01-1.25-9-1.98-1.31-.32-2.63.51-2.94 1.86-.31 1.35.5 2.69 1.82 3.01 3.05.74 6.11 1.42 9.2 2.03zm-18.23-5.05c1.32.39 2.69-.42 3.06-1.8.37-1.38-.4-2.81-1.72-3.2-2.93-.85-5.89-1.78-8.96-2.78-1.3-.43-2.7.33-3.11 1.7-.41 1.37.32 2.82 1.63 3.25 3.12 1.02 6.13 1.96 9.11 2.83zm-18.16-5.03c1.31.44 2.73-.25 3.18-1.53.45-1.29-.25-2.69-1.56-3.12-2.66-.89-5.32-1.8-8.96-3.06-1.3-.45-2.73.22-3.19 1.51-.46 1.28.23 2.69 1.53 3.14 3.66 1.27 6.34 2.19 9.02 3.08zm-18.01-6c1.3.45 2.73-.23 3.19-1.52.46-1.29-.23-2.7-1.53-3.16-3.38-1.17-6.25-2.14-9.03-3.05-1.31-.43-2.73.28-3.16 1.58-.43 1.3.28 2.7 1.59 3.13 2.75.91 5.6 1.87 8.96 3.03zm-17.86-5.97c1.31.42 2.69-.37 3.08-1.77.39-1.4-.35-2.87-1.66-3.29-3.1-.99-6.13-1.9-9.14-2.74-1.32-.36-2.67.48-3.01 1.9-.34 1.41.45 2.86 1.78 3.22 2.95.82 5.92 1.71 8.96 2.69zm-18.77-4.95c1.32.3 2.62-.59 2.9-1.99.28-1.39-.56-2.77-1.88-3.06-3.05-.69-6.12-1.31-9.22-1.85-1.33-.23-2.58.72-2.81 2.13-.22 1.41.68 2.74 2.01 2.98 3.03.53 6.03 1.14 9.01 1.81zm-18.75-2.96c1.33.17 2.54-.83 2.69-2.22.16-1.39-.79-2.65-2.11-2.81-3.04-.38-6.12-.69-9.26-.94-1.33-.1-2.49.95-2.59 2.34-.1 1.4.9 2.62 2.24 2.72 3.07.24 6.09.55 9.05.92zm-18.79-1.98c1.34.04 2.45-1.01 2.5-2.35.05-1.34-1-2.47-2.33-2.51-3.03-.1-6.11-.15-9.26-.13-1.33 0-2.41 1.1-2.41 2.44.01 1.34 1.09 2.42 2.42 2.42 3.09-.01 6.12.03 9.09.14zm-18.83.45c1.34-.06 2.38-1.32 2.33-2.83-.05-1.5-1.17-2.68-2.5-2.62-3.02.13-6.1.31-9.24.55-1.33.1-2.33 1.4-2.24 2.91.09 1.5 1.24 2.64 2.57 2.54 3.1-.24 6.13-.42 9.1-.54zm-18.87 1.54c1.34-.13 2.31-1.35 2.19-2.72-.12-1.37-1.31-2.38-2.64-2.25-3.12.31-6.19.64-9.21 1.01-1.33.16-2.28 1.41-2.12 2.78.16 1.37 1.37 2.35 2.69 2.19 2.98-.36 6.02-.69 9.1-.99zm-18.89 1.62c1.33-.18 2.26-1.35 2.06-2.62-.19-1.26-1.42-2.14-2.75-1.96-3.12.43-6.18.89-9.19 1.38-1.32.22-2.21 1.42-1.98 2.67.23 1.26 1.49 2.11 2.81 1.89 2.97-.48 5.99-.94 9.07-1.36zm-17.87 3.32c1.33-.27 2.19-1.58 1.92-2.93s-1.56-2.21-2.88-1.94c-3.11.64-6.16 1.32-9.17 2.04-1.32.32-2.13 1.66-1.82 2.99.31 1.34 1.63 2.17 2.95 1.85 2.96-.71 5.96-1.37 9.03-2.01zm-18.87 4.22c1.32-.38 2.1-1.81 1.75-3.21-.36-1.4-1.72-2.22-3.04-1.84-3.08.89-6.12 1.81-9.12 2.79-1.3.43-2.04 1.89-1.64 3.28.41 1.38 1.79 2.16 3.1 1.73 2.95-.96 5.93-1.87 8.96-2.74zm-16.86 5.58c1.31-.43 2.01-1.81 1.56-3.08-.45-1.27-1.88-1.94-3.19-1.5-3.03 1.01-6.03 2.06-9.05 3.17-1.3.48-1.95 1.88-1.45 3.13s1.94 1.88 3.24 1.41c2.97-1.09 5.92-2.12 8.9-3.11zm-17.89 7.24c1.3-.55 1.92-2.06 1.38-3.37-.54-1.32-2.02-1.95-3.32-1.4-2.88 1.2-5.81 2.47-8.95 3.86-1.29.57-1.87 2.09-1.31 3.39s2.07 1.91 3.36 1.34c3.11-1.37 6.01-2.62 8.86-3.82zm-16.93 6.87c1.29-.57 1.87-2.07 1.29-3.34-.58-1.28-2.09-1.85-3.38-1.27l-4.47 1.99c-1.71.76-3.08 1.37-4.39 1.94-1.29.57-1.87 2.07-1.3 3.34.57 1.28 2.09 1.86 3.38 1.29 1.32-.58 2.7-1.19 4.41-1.95.81-.36 3.82-1.69 4.48-1.99zm-18.04 8.25c1.29-.56 1.9-2.11 1.36-3.46-.54-1.35-2.02-1.98-3.31-1.42-3.13 1.37-6.03 2.58-8.84 3.67-1.31.51-1.98 2.03-1.49 3.4.48 1.37 1.94 2.07 3.25 1.56 2.88-1.12 5.85-2.35 9.03-3.74zm-18.19 6.49c1.31-.38 2.04-1.69 1.64-2.92-.4-1.23-1.78-1.92-3.08-1.54-2.98.87-5.93 1.63-8.89 2.28-1.32.29-2.15 1.55-1.84 2.81.31 1.26 1.63 2.04 2.96 1.75 3.07-.68 6.14-1.46 9.23-2.36zm-19.31 4.32c1.33-.21 2.23-1.46 2.03-2.81-.2-1.34-1.44-2.26-2.76-2.06-2.94.46-5.92.82-8.97 1.06-1.33.11-2.33 1.29-2.23 2.65.11 1.36 1.28 2.37 2.61 2.27 3.17-.25 6.27-.62 9.33-1.1zm-19.38-4.27c-.38 0-.77.01-1.16.01-2.62-.15-5.21-.36-7.77-.61-1.33-.13-2.5.96-2.62 2.44-.12 1.48.86 2.79 2.19 2.92 2.64.27 5.31.48 8.01.64l.13.01c.42 0 .84 0 1.26-.01 1.34-.01 2.41-1.22 2.4-2.71-.01-1.48-1.1-2.67-2.44-2.66zm-19.32 4.36c1.33.17 2.56-.72 2.74-1.98.18-1.26-.76-2.43-2.09-2.6-3.05-.39-6.06-.84-9.02-1.36-1.32-.23-2.59.6-2.83 1.86-.24 1.25.63 2.46 1.95 2.69 3.04.53 6.12.99 9.25 1.39zm-18.28-4.06c1.33.3 2.65-.49 2.97-1.76.31-1.27-.51-2.54-1.83-2.84-3.02-.68-6-1.43-8.95-2.24-1.31-.36-2.67.36-3.05 1.62-.38 1.25.38 2.56 1.69 2.93 3.03.83 6.08 1.6 9.19 2.3zm-18.3-5.07c1.31.43 2.74-.24 3.19-1.5.45-1.26-.25-2.63-1.57-3.06-2.97-.98-5.92-2.02-8.85-3.14-1.29-.49-2.76.11-3.27 1.35s.12 2.64 1.41 3.13c3.01 1.14 6.03 2.21 9.08 3.21zm-18.3-7.09c1.29.56 2.82.01 3.4-1.24.58-1.25 0-2.72-1.29-3.28-2.9-1.26-5.81-2.59-8.76-4-1.27-.61-2.82-.11-3.45 1.12-.63 1.23-.11 2.72 1.16 3.33 3.01 1.44 5.98 2.8 8.94 4.08zm-16.97-8.09c1.19.68 2.67.21 3.31-1.06.64-1.27.19-2.84-1-3.53-2.58-1.48-5.23-3.04-8.06-4.76-1.17-.71-2.66-.27-3.33.98-.66 1.25-.25 2.84.92 3.55 2.87 1.74 5.55 3.32 8.16 4.82zm-17.1-10.04c1.17.71 2.68.3 3.36-.92.68-1.22.29-2.78-.89-3.49-.82-.5-6.45-3.91-8.08-4.89-1.17-.71-2.68-.29-3.36.92-.68 1.22-.28 2.78.89 3.49 1.63.98 7.25 4.39 8.08 4.89zm-15.93-8.99c1.17.71 2.66.26 3.31-1 .66-1.26.24-2.86-.93-3.57-2.92-1.76-5.6-3.34-8.2-4.79-1.19-.67-2.66-.17-3.28 1.12-.62 1.29-.16 2.87 1.04 3.54 2.54 1.43 5.19 2.97 8.06 4.71zm-16.98-8.9c1.28.6 2.79.03 3.37-1.28.59-1.3.03-2.84-1.25-3.43-3.08-1.44-6.09-2.73-9.07-3.88-1.31-.51-2.78.16-3.28 1.5s.16 2.84 1.48 3.35c2.88 1.11 5.78 2.36 8.76 3.75zm-17.53-6.86c1.31.37 2.67-.37 3.04-1.66.38-1.28-.37-2.63-1.68-3-3.09-.88-6.18-1.61-9.3-2.2-1.33-.25-2.62.62-2.87 1.93-.25 1.32.62 2.59 1.95 2.84 2.97.56 5.92 1.26 8.87 2.09zm-18.5-2.91c1.33.12 2.51-.81 2.63-2.08s-.85-2.39-2.18-2.51c-3.08-.27-6.21-.4-9.39-.4-1.33 0-2.41 1.04-2.41 2.31 0 1.28 1.09 2.31 2.42 2.3 3.03 0 6.01.12 8.94.38zm-18.61.04c1.34-.1 2.34-1.3 2.25-2.69-.09-1.38-1.25-2.43-2.58-2.33-3.09.23-6.19.55-9.31.98-1.33.18-2.26 1.45-2.09 2.83.17 1.38 1.39 2.35 2.72 2.17 3.02-.41 6.02-.73 9.01-.95zm-17.74 1.92c1.33-.26 2.2-1.56 1.95-2.91-.25-1.35-1.53-2.24-2.86-1.98-3.05.59-6.12 1.27-9.22 2.04-1.31.33-2.12 1.68-1.8 3.02.32 1.34 1.65 2.16 2.96 1.83 3.02-.75 6.01-1.41 8.98-1.99zm-18.8 5.05c1.32-.39 2.08-1.81 1.69-3.16-.38-1.35-1.77-2.12-3.09-1.72-3 .9-6.04 1.88-9.11 2.94-1.3.45-2 1.89-1.56 3.22.44 1.33 1.86 2.05 3.16 1.6 3.01-1.04 5.99-2 8.92-2.88zm-16.85 5.58c1.31-.46 1.97-1.82 1.48-3.04s-1.95-1.83-3.26-1.37c-2.96 1.04-5.95 2.14-9.01 3.31-1.29.5-1.91 1.87-1.38 3.08s2.01 1.78 3.3 1.29c3.01-1.15 5.96-2.23 8.87-3.25zm-17.89 7.27c1.3-.56 1.88-2.05 1.31-3.32-.57-1.27-2.08-1.85-3.37-1.29-2.91 1.26-5.87 2.59-8.92 3.98-1.28.59-1.84 2.09-1.24 3.35.6 1.27 2.12 1.81 3.4 1.23 3.02-1.38 5.96-2.69 8.83-3.93zm-16.93 7.82c1.29-.59 1.83-2.05 1.2-3.27-.62-1.21-2.17-1.72-3.46-1.13-2.84 1.3-5.78 2.67-8.85 4.12-1.27.6-1.79 2.07-1.16 3.28.64 1.21 2.2 1.7 3.48 1.1 3.05-1.44 5.97-2.8 8.79-4.09zm-17.86 8.91c1.19-.6 1.66-2.06 1.06-3.24-.6-1.19-2.06-1.66-3.25-1.05-2.52 1.28-5.16 2.63-8.18 4.19-1.18.61-1.65 2.06-1.03 3.25.61 1.18 2.07 1.65 3.26 1.04 3.01-1.54 5.64-2.89 8.16-4.17zm-16.98 8.98c1.19-.61 1.65-2.06 1.04-3.24-.62-1.18-2.08-1.64-3.26-1.03l-8.16 4.19c-1.19.61-1.66 2.06-1.04 3.24.61 1.18 2.07 1.64 3.25 1.04 2.3-1.18 4.29-2.2 8.16-4.2zm-17.01 8.05c1.19-.61 1.66-2.07 1.06-3.26-.6-1.19-2.05-1.67-3.24-1.06-2.85 1.46-5.55 2.83-8.16 4.14-1.19.6-1.67 2.05-1.08 3.25.6 1.2 2.05 1.68 3.24 1.08 2.62-1.31 5.33-2.69 8.2-4.16zm-16.14 8.11c1.28-.6 1.82-2.08 1.2-3.3-.62-1.23-2.17-1.74-3.45-1.14-3.01 1.4-5.94 2.74-8.81 4.04-1.29.58-1.85 2.05-1.24 3.29.6 1.24 2.14 1.77 3.43 1.19 2.89-1.3 5.84-2.65 8.87-4.07zm-17.05 8.19c1.28-.57 1.86-2.09 1.28-3.38s-2.09-1.86-3.38-1.29c-2.99 1.35-5.93 2.63-8.84 3.87-1.3.55-1.91 2.05-1.36 3.35.55 1.3 2.05 1.91 3.35 1.36 2.94-1.25 5.92-2.55 8.94-3.91zm-18.08 7.71c1.29-.49 1.93-1.87 1.41-3.09s-1.98-1.82-3.28-1.33c-2.99 1.12-5.95 2.19-8.89 3.21-1.31.45-1.98 1.82-1.5 3.06.48 1.23 1.93 1.86 3.24 1.41 2.98-1.03 5.98-2.12 9.01-3.26zm-18.11 6.35c1.3-.45 2-1.88 1.57-3.21-.44-1.33-1.85-2.04-3.16-1.6-3 1.03-5.98 1.99-8.94 2.9-1.32.4-2.07 1.82-1.67 3.16.39 1.34 1.78 2.1 3.1 1.7 3.01-.92 6.04-1.91 9.09-2.95zm-18.14 5.8c1.31-.34 2.1-1.66 1.75-2.95-.35-1.29-1.69-2.06-3.01-1.72-3.01.77-6.01 1.49-8.99 2.15-1.33.29-2.16 1.58-1.86 2.88.3 1.3 1.61 2.12 2.94 1.82 3.05-.67 6.1-1.4 9.17-2.19zm-19.16 3.57c1.32-.27 2.2-1.67 1.95-3.13-.24-1.45-1.51-2.42-2.83-2.15-3.02.61-6.03 1.15-9.03 1.61-1.33.21-2.26 1.57-2.07 3.03.18 1.47 1.42 2.5 2.75 2.29 3.07-.47 6.15-1.02 9.23-1.65zm-19.19 2.92c1.33-.14 2.3-1.43 2.17-2.87-.13-1.45-1.31-2.51-2.64-2.37-3.02.32-6.04.57-9.06.74-1.33.07-2.36 1.31-2.29 2.76.07 1.45 1.21 2.56 2.54 2.49 3.09-.18 6.18-.43 9.27-.75zm-19.26.75c1.33.02 2.43-.99 2.44-2.25.02-1.25-1.05-2.29-2.39-2.3-3.1-.04-6.09-.18-8.97-.44-1.33-.12-2.5.8-2.63 2.05-.12 1.26.86 2.37 2.18 2.48 3.01.27 6.13.42 9.36.46zm-18.5-1.05c1.34.25 2.63-.6 2.89-1.89.26-1.3-.61-2.55-1.95-2.8-3.07-.58-6-1.3-8.8-2.16-1.29-.4-2.68.3-3.09 1.55-.41 1.26.31 2.6 1.6 3 2.98.92 6.1 1.68 9.35 2.29zm-18.56-6.21c1.22.61 2.68.06 3.26-1.23s.05-2.84-1.17-3.45c-2.74-1.36-5.34-2.91-7.8-4.64-1.13-.79-2.64-.46-3.39.73s-.44 2.79.68 3.58c2.66 1.87 5.46 3.54 8.41 5.01zm-16.81-11.4c1.06.94 2.69.85 3.64-.2.95-1.04.86-2.65-.2-3.59-2.32-2.04-4.51-4.27-6.6-6.67-.93-1.07-2.56-1.19-3.64-.28-1.08.92-1.21 2.52-.28 3.59 2.24 2.57 4.59 4.96 7.08 7.16zm-12.27-14.43c.78 1.13 2.34 1.42 3.48.65 1.14-.78 1.44-2.32.66-3.46-1.68-2.45-3.3-5.05-4.88-7.85-.68-1.19-2.2-1.62-3.4-.94-1.21.67-1.63 2.19-.95 3.38 1.65 2.91 3.34 5.64 5.11 8.21zm-10.19-16.36c.61 1.27 2.11 1.8 3.35 1.18 1.24-.62 1.76-2.16 1.16-3.44-1.28-2.69-2.55-5.53-3.95-8.77-.56-1.3-2.04-1.88-3.31-1.31-1.26.58-1.83 2.1-1.27 3.39 1.42 3.3 2.72 6.2 4.03 8.95zm-7.16-18.11c.56 1.3 2.07 1.9 3.37 1.34 1.3-.56 1.9-2.06 1.34-3.35-1.91-4.44-2.8-6.47-3.89-8.93-.58-1.29-2.09-1.86-3.39-1.29-1.29.57-1.87 2.08-1.3 3.37 1.08 2.43 1.96 4.45 3.86 8.86zm-8.05-16.8c.65 1.2 2.22 1.69 3.52 1.09 1.29-.6 1.82-2.06 1.17-3.27-1.62-3.03-3.22-5.77-4.86-8.3-.75-1.15-2.36-1.52-3.6-.82-1.23.7-1.63 2.19-.89 3.35 1.57 2.41 3.1 5.03 4.66 7.96zm-9.66-15.61c.89 1.09 2.53 1.27 3.65.4s1.31-2.46.41-3.55c-2.24-2.74-4.61-5.16-7.14-7.29-1.09-.91-2.73-.79-3.66.26-.94 1.06-.82 2.65.27 3.57 2.28 1.91 4.42 4.11 6.47 6.61zm-14.07-12.32c1.24.61 2.76.16 3.41-1 .64-1.16.17-2.6-1.07-3.21-2.95-1.46-6.11-2.61-9.48-3.44-1.35-.33-2.73.43-3.08 1.71-.35 1.27.46 2.57 1.81 2.9 3.01.74 5.8 1.76 8.41 3.05zm-17.06-3.81c1.43.09 2.66-.91 2.75-2.23.09-1.32-.98-2.46-2.41-2.55-2.31-.14-4.71-.17-7.21-.08-1.02.04-2.01.09-3 .16-1.42.1-2.48 1.26-2.37 2.58.11 1.32 1.35 2.31 2.77 2.21.93-.06 1.85-.11 2.8-.15 2.32-.08 4.54-.06 6.67.07zm-18.21 1.35c1.34-.3 2.19-1.71 1.91-3.15-.28-1.43-1.59-2.36-2.92-2.05-3.14.71-6.25 1.63-9.35 2.77-1.29.47-1.98 1.98-1.54 3.37.44 1.39 1.85 2.13 3.14 1.66 2.92-1.07 5.83-1.93 8.77-2.6zm-17.44 5.32c1.22-.55 1.74-1.98 1.18-3.18-.56-1.2-2-1.73-3.21-1.17-2.77 1.27-5.54 2.7-8.34 4.29-1.16.66-1.56 2.13-.89 3.28.66 1.15 2.14 1.546 3.3.887 2.68-1.53 5.33-2.89 7.97-4.11zm-15.73 9.8c1.17-.73 1.49-2.21.71-3.31-.78-1.09-2.36-1.39-3.53-.66-2.61 1.63-5.27 3.39-8.01 5.3-1.13.79-1.37 2.28-.53 3.34.84 1.06 2.43 1.28 3.56.5 2.68-1.86 5.27-3.57 7.8-5.16zm-15.78 11.09c1.05-.86 1.22-2.43.39-3.52-.83-1.08-2.36-1.26-3.41-.4-2.23 1.83-4.55 3.78-7.18 6.03-1.03.88-1.17 2.46-.32 3.52.86 1.06 2.39 1.21 3.42.33 2.61-2.22 4.91-4.16 7.11-5.96zm-14.95 11.92c1.03-.88 1.17-2.44.3-3.49-.87-1.05-2.41-1.19-3.44-.31-3.48 2.97-5.12 4.36-7.1 6.03-1.04.87-1.18 2.43-.32 3.49.86 1.05 2.4 1.2 3.44.33 1.99-1.68 3.63-3.08 7.13-6.05zm-14.11 12.16c1.12-.88 1.31-2.48.42-3.58-.89-1.1-2.52-1.28-3.64-.41-2.7 2.11-5.25 4.05-7.74 5.86-1.15.84-1.39 2.44-.53 3.57.85 1.13 2.48 1.36 3.63.52 2.53-1.85 5.13-3.82 7.88-5.96zm-15.12 11c1.14-.77 1.44-2.31.67-3.44s-2.32-1.437-3.46-.67c-2.67 1.79-5.29 3.44-7.88 4.96-1.19.69-1.59 2.21-.89 3.39.7 1.18 2.23 1.57 3.42.88 2.69-1.58 5.39-3.28 8.14-5.12zm-16.33 10.32c1.27-.62 1.79-2.16 1.17-3.42-.62-1.27-2.15-1.79-3.41-1.17-2.89 1.42-5.78 2.68-8.68 3.79-1.31.5-1.98 1.98-1.47 3.3.5 1.32 1.98 1.98 3.3 1.48 3.05-1.16 6.08-2.49 9.11-3.97zm-19.39 6.1c1.31-.36 2.09-1.74 1.74-3.09-.35-1.35-1.69-2.15-3-1.79-2.92.803-5.87 1.44-8.84 1.89-1.34.21-2.26 1.49-2.06 2.87.2 1.38 1.45 2.33 2.78 2.12 3.16-.49 6.28-1.155 9.38-2.005zm-18.68 2.98c1.42-.04 2.54-1.16 2.49-2.48-.05-1.33-1.24-2.37-2.67-2.32-.96.03-1.93.04-2.9.04-2.32 0-4.54-.06-6.68-.19-1.42-.08-2.65.93-2.74 2.25-.09 1.33 1 2.47 2.42 2.55 2.25.14 4.58.2 7.01.2 1.03 0 2.05-.01 3.07-.05zm-19.4-.99c1.34.23 2.62-.63 2.86-1.93.24-1.3-.65-2.54-1.99-2.77-3.09-.54-5.98-1.25-8.73-2.14-1.29-.41-2.69.27-3.12 1.52-.43 1.25.27 2.61 1.56 3.02 2.98.96 6.1 1.73 9.42 2.3zm-18.72-6.24c1.21.64 2.71.15 3.33-1.09.63-1.24.15-2.76-1.06-3.4-2.6-1.36-5.13-2.93-7.77-4.79-1.12-.79-2.66-.5-3.44.64-.78 1.15-.49 2.72.63 3.51 2.81 1.97 5.52 3.66 8.32 5.13zm-16.3-11.27c1.04.86 2.56.68 3.39-.41.83-1.09.66-2.67-.39-3.53l-.05-.04c-.57-.48-5.59-4.68-7.13-5.93-1.05-.86-2.56-.67-3.39.42-.82 1.09-.64 2.67.41 3.53 1.51 1.236 6.52 5.42 7.11 5.91l.06.04zm-14.99-10.9c1.13.78 2.68.5 3.47-.63.78-1.14.5-2.69-.64-3.47-2.72-1.88-5.42-3.57-8.22-5.14-1.2-.67-2.72-.24-3.39.96-.67 1.2-.24 2.72.96 3.39 2.66 1.49 5.23 3.1 7.82 4.89zm-15.6-8.75c1.28.53 2.76-.04 3.31-1.26.55-1.22-.05-2.64-1.32-3.16-2.93-1.2-5.99-2.29-9.2-3.27-1.32-.4-2.74.3-3.16 1.57-.42 1.27.31 2.62 1.64 3.02 3.06.93 5.96 1.96 8.74 3.1zm-18.47-5.87c1.31.32 2.62-.55 2.92-1.94.3-1.39-.52-2.78-1.84-3.09-2.96-.72-6.05-1.34-9.28-1.87-1.33-.22-2.58.75-2.79 2.16-.21 1.41.7 2.73 2.04 2.95 3.11.51 6.09 1.11 8.94 1.79zm-18.7-2.95c1.33.15 2.52-.86 2.66-2.27.14-1.4-.82-2.67-2.15-2.82-3.21-.36-6.29-.66-9.25-.89-1.33-.1-2.49.96-2.58 2.37-.1 1.41.9 2.64 2.24 2.74 2.9.22 5.92.51 9.07.87zM110.37 370c1.43.03 2.613-1.04 2.65-2.397.036-1.354-1.09-2.482-2.52-2.52-3.506-.083-6.83-.073-9.99.03-1.424.05-2.54 1.187-2.49 2.54.05 1.36 1.25 2.42 2.674 2.37 3.05-.1 6.27-.11 9.67-.023zm-19.5.274c1.334-.17 2.29-1.48 2.13-2.92-.16-1.45-1.37-2.48-2.71-2.31-3.36.43-6.49 1.03-9.4 1.78-1.31.34-2.12 1.76-1.804 3.18.31 1.42 1.63 2.29 2.94 1.95 2.72-.704 5.66-1.264 8.84-1.673zm-17.34 3.79c1.24-.56 1.82-2.1 1.295-3.43-.52-1.33-1.95-1.96-3.19-1.4-3.106 1.41-5.93 3.08-8.56 5.01-1.11.82-1.395 2.45-.636 3.65.76 1.2 2.27 1.5 3.38.69 2.36-1.74 4.9-3.23 7.71-4.5zm-15.23 10.22c.95-.96.957-2.54.02-3.52-.94-.97-2.47-.98-3.42-.01-1.98 2.02-3.78 4.09-6.31 7.18-.86 1.05-.736 2.63.284 3.51 1.02.89 2.55.76 3.41-.29 2.45-2.98 4.17-4.96 6.02-6.85zM46.35 398.29c.943-1.053.86-2.68-.183-3.633-1.044-.952-2.655-.87-3.598.185-2.28 2.55-4.41 4.68-6.67 6.62-1.07.92-1.2 2.544-.29 3.626.91 1.083 2.52 1.213 3.59.293 2.44-2.1 4.72-4.38 7.14-7.09zm-14.617 13.3c1.23-.69 1.64-2.203.918-3.38-.72-1.173-2.3-1.566-3.53-.876-2.59 1.46-5.4 2.754-8.46 3.892-1.33.493-1.98 1.923-1.47 3.193s2.01 1.9 3.34 1.4c3.32-1.24 6.37-2.65 9.21-4.24zm-18.58 7.445c1.31-.34 2.107-1.73 1.78-3.1-.326-1.37-1.652-2.205-2.962-1.863-2.77.723-5.72 1.335-8.88 1.835-1.33.21-2.25 1.514-2.05 2.91.2 1.398 1.45 2.36 2.78 2.15 3.31-.524 6.42-1.168 9.34-1.93z"/></svg>