<svg xmlns="http://www.w3.org/2000/svg" viewBox="0 0 804 207"><path fill="#FFF" fill-rule="evenodd" d="M799.608 193c-1.407.007-2.832-.02-4.27-.087-.772-.036-1.37-.716-1.337-1.52.04-.804.69-1.427 1.47-1.392 1.39.07 2.77.1 4.13.09.78 0 1.41.65 1.41 1.45.01.81-.62 1.46-1.39 1.47zm-9.143-.007c-1.415-.16-2.834-.358-4.254-.6-.76-.13-1.3-.992-1.19-1.924.11-.94.82-1.59 1.59-1.46 1.38.23 2.75.42 4.13.58.78.08 1.34.91 1.27 1.85-.07.93-.75 1.62-1.53 1.54zm-9.147-2.02c-1.415-.286-2.825-.61-4.228-.968-.762-.195-1.233-1.016-1.05-1.835.18-.818.946-1.323 1.708-1.128 1.36.348 2.725.66 4.096.938.77.155 1.276.952 1.13 1.78-.144.825-.886 1.37-1.656 1.213zm-8.16-2.028c-1.41-.39-2.805-.814-4.188-1.27-.752-.248-1.15-1.03-.89-1.75.26-.716 1.08-1.097 1.83-.85 1.338.442 2.69.85 4.05 1.23.765.21 1.204.974.982 1.703-.222.73-1.02 1.15-1.785.937zm-9.183-3.06c-1.394-.597-2.77-1.23-4.125-1.903-.737-.366-1.056-1.296-.71-2.08.343-.782 1.22-1.12 1.957-.755 1.308.65 2.636 1.26 3.98 1.838.756.324 1.12 1.235.815 2.036-.304.81-1.163 1.19-1.917.87zm-8.213-4.055c-1.37-.69-2.713-1.415-4.033-2.174-.72-.412-.95-1.294-.51-1.97.43-.675 1.37-.888 2.09-.476 1.27.73 2.56 1.43 3.88 2.094.74.373 1.02 1.242.62 1.94-.4.697-1.32.96-2.06.586zm-7.25-4.113c-1.33-.922-2.633-1.883-3.905-2.88-.69-.542-.81-1.54-.27-2.23s1.538-.81 2.227-.27c1.223.96 2.474 1.884 3.753 2.77.72.5.9 1.49.4 2.21-.498.72-1.486.9-2.206.4zm-7.89-6.09c-.807-.745-1.597-1.507-2.372-2.288-.242-.25-.498-.49-.765-.74-.593-.55-.65-1.49-.128-2.1.522-.62 1.426-.68 2.018-.14.302.27.59.55.866.83.75.75 1.51 1.48 2.28 2.19.59.54.65 1.48.12 2.1-.52.61-1.42.67-2.02.12zm-5.998-5.863c-1.17-.718-2.448-1.423-3.82-2.106-.743-.37-1.02-1.227-.62-1.914.4-.688 1.327-.945 2.07-.575 1.453.72 2.812 1.47 4.063 2.24.703.43.895 1.3.427 1.95-.467.65-1.416.83-2.12.39zm-8.69-3.904c-1.283-.625-2.616-1.22-3.986-1.782-.757-.31-1.14-1.228-.853-2.05.286-.82 1.132-1.235 1.89-.925 1.425.584 2.812 1.205 4.15 1.856.738.36 1.068 1.3.736 2.1-.33.8-1.2 1.16-1.93.8zm-7.798-3.926c-1.34-.417-2.695-.8-4.058-1.144-.767-.194-1.23-.966-1.033-1.724.196-.758.977-1.215 1.743-1.02 1.414.356 2.82.753 4.21 1.185.754.24 1.173 1.04.935 1.78-.237.75-1.042 1.16-1.797.93zm-8.82-.965c-1.376-.31-2.744-.57-4.092-.78-.773-.12-1.315-.93-1.21-1.81.102-.88.813-1.5 1.585-1.38 1.4.21 2.83.48 4.26.8.76.17 1.26 1.01 1.11 1.88-.15.87-.89 1.43-1.66 1.26zm-8.806-1.98c-1.402-.1-2.766-.13-4.084-.1-.773.01-1.41-.62-1.426-1.42-.014-.8.6-1.46 1.374-1.47 1.397-.03 2.838.01 4.315.1.77.05 1.35.74 1.3 1.53-.05.79-.72 1.4-1.49 1.34zm-8.762-.1c-.208.02-.416.05-.62.08-1.068.15-2.11.45-3.15.9-.728.31-1.563-.04-1.867-.78-.3-.75.04-1.6.77-1.91 1.26-.54 2.54-.91 3.85-1.1.23-.04.45-.07.68-.09.78-.1 1.5.47 1.59 1.26.1.8-.46 1.52-1.24 1.62zm-6.435 3.9c-1.153.77-2.338 1.69-3.62 2.79-.663.57-1.683.52-2.28-.12-.595-.64-.54-1.61.122-2.18 1.372-1.18 2.655-2.18 3.923-3.03.73-.49 1.737-.32 2.25.37.51.7.334 1.66-.395 2.15zm-7.74 5.66c-.445.44-.9.9-1.518 1.52l-.772.78-.782.78c-.56.57-1.49.58-2.06.01-.57-.56-.58-1.48-.01-2.05l.78-.79.77-.78 1.54-1.54c.57-.57 1.5-.57 2.07 0 .57.57.57 1.48 0 2.05zm-6.012 6.1c-1.11 1.12-2.17 2.13-3.22 3.07-.59.53-1.49.45-2-.17-.51-.63-.43-1.58.17-2.11 1.01-.9 2.02-1.87 3.1-2.95.57-.57 1.47-.55 2.01.04.54.59.52 1.54-.04 2.11zm-7.21 5.94c-1.33.85-2.68 1.62-4.06 2.3-.74.37-1.68.13-2.09-.55-.41-.67-.14-1.52.61-1.89 1.28-.64 2.53-1.35 3.77-2.14.7-.44 1.66-.3 2.15.33.5.63.33 1.49-.36 1.94zm-8.26 4.12c-1.39.53-2.82.96-4.3 1.31-.77.18-1.55-.27-1.74-1-.19-.74.28-1.48 1.05-1.66 1.35-.32 2.66-.72 3.94-1.21.74-.28 1.58.06 1.87.77.3.7-.06 1.5-.8 1.78zm-9.33 2.13c-1.41.16-2.87.23-4.36.22-.77-.01-1.39-.64-1.39-1.41.01-.77.64-1.39 1.41-1.38 1.39.01 2.73-.06 4.04-.21.77-.09 1.46.46 1.55 1.22.09.76-.46 1.45-1.23 1.54zm-9.31 1.21l-.37-.05c-1.31-.19-2.6-.4-3.88-.64-.76-.15-1.29-1-1.16-1.91.12-.91.85-1.53 1.61-1.38 1.24.23 2.49.44 3.77.62.12.01.24.03.35.04.78.1 1.33.92 1.25 1.83-.08.91-.78 1.57-1.55 1.47zm-9.14-2.02c-1.41-.31-2.81-.65-4.21-1.02-.76-.2-1.22-1.02-1.03-1.82.19-.81.97-1.29 1.73-1.09 1.37.36 2.73.69 4.1.99.77.16 1.26.96 1.11 1.77-.15.81-.91 1.33-1.67 1.16zm-8.13-3.03c-1.35-.38-2.72-.79-4.16-1.25-.75-.24-1.17-1.02-.92-1.75.25-.73 1.06-1.12 1.82-.88 1.42.44 2.76.84 4.08 1.21.77.21 1.2.98.98 1.72-.22.74-1.02 1.16-1.78.94zm-9.08-3.02c-.85-.27-1.67-.54-2.94-.95l-1.17-.38c-.75-.25-1.15-1.01-.88-1.71.27-.7 1.1-1.06 1.85-.82l1.17.38c1.27.41 2.08.67 2.93.94.76.24 1.16 1 .9 1.7-.26.7-1.09 1.07-1.84.82zm-7.98-2c-1.46-.47-2.79-.88-4.08-1.27-.76-.23-1.18-.99-.94-1.71s1.05-1.12 1.81-.89c1.31.39 2.66.81 4.15 1.29.75.24 1.16 1.02.9 1.73-.26.71-1.08 1.09-1.83.84zm-8.89-2.98c-1.37-.39-2.73-.74-4.09-1.06-.76-.18-1.24-.97-1.07-1.75.18-.79.95-1.28 1.71-1.1 1.4.33 2.8.69 4.21 1.09.76.21 1.21 1.02 1 1.79-.21.77-1 1.23-1.76 1.01zm-8.85-.97c-1.35-.28-2.72-.53-4.11-.74-.77-.12-1.31-.93-1.21-1.82.11-.89.81-1.52 1.59-1.4 1.44.22 2.85.48 4.25.77.77.16 1.28 1 1.14 1.88-.14.88-.87 1.46-1.64 1.3zm-8.86-1.98c-1.35-.11-2.73-.2-4.13-.26-.77-.04-1.37-.67-1.34-1.43.04-.76.69-1.35 1.46-1.31 1.45.06 2.87.14 4.26.26.77.06 1.35.72 1.28 1.48-.06.75-.74 1.31-1.51 1.25zm-8.88-.06c-1.35-.01-2.74.02-4.15.07-.77.02-1.42-.61-1.45-1.42-.02-.81.58-1.49 1.36-1.51 1.45-.05 2.86-.08 4.25-.07.78 0 1.4.66 1.4 1.47 0 .8-.63 1.46-1.4 1.46zm-8.91-.26c-1.05.06-2.13.14-3.22.23l-.93.08c-.77.07-1.45-.47-1.52-1.21-.07-.74.5-1.39 1.27-1.46l.95-.08c1.11-.1 2.2-.18 3.28-.25.77-.05 1.44.51 1.49 1.25.05.74-.54 1.38-1.31 1.42zm-8.93 1.65c-1.41.2-2.79.41-4.15.65-.77.13-1.48-.5-1.59-1.41-.11-.92.42-1.77 1.19-1.9 1.38-.24 2.79-.46 4.22-.66.77-.11 1.47.55 1.56 1.46.09.92-.46 1.75-1.23 1.85zm-8.93.77c-1.4.27-2.78.56-4.13.87-.76.17-1.51-.37-1.67-1.22-.15-.85.34-1.67 1.1-1.85 1.38-.32 2.78-.61 4.22-.89.77-.14 1.5.42 1.64 1.27.13.85-.38 1.66-1.15 1.81zm-7.92 1.76c-1.39.34-2.75.7-4.1 1.08-.76.21-1.54-.24-1.75-1.01-.21-.78.24-1.58 1-1.79 1.37-.39 2.77-.76 4.19-1.11.77-.19 1.54.29 1.72 1.07.18.78-.29 1.56-1.06 1.75zm-8.92 1.78c-1.37.4-2.72.83-4.06 1.27-.75.25-1.58-.12-1.84-.82-.26-.71.13-1.48.88-1.73 1.38-.46 2.76-.89 4.16-1.31.76-.23 1.57.17 1.81.88s-.18 1.47-.94 1.7zm-7.92 3.44c-1.32.56-2.65 1.15-4.03 1.79-.74.34-1.6-.04-1.92-.85-.31-.82.04-1.75.78-2.09 1.41-.65 2.76-1.25 4.11-1.82.76-.32 1.61.08 1.9.9.3.82-.08 1.75-.83 2.07zm-8.95 3.88l-2.04.95-2 .94c-.74.35-1.62 0-1.95-.78-.33-.78 0-1.7.74-2.05l2-.95 2.05-.96c.75-.35 1.62.01 1.95.79.33.78 0 1.7-.75 2.04zm-8 3.07c-1.49.7-2.82 1.3-4.11 1.85-.75.32-1.61-.07-1.91-.89-.3-.81.07-1.73.83-2.06 1.25-.54 2.56-1.13 4.02-1.82.75-.35 1.61.02 1.93.82.32.8-.02 1.73-.76 2.08zm-8.09 3.68c-1.42.47-2.82.88-4.22 1.24-.76.19-1.55-.25-1.75-.99-.2-.75.25-1.51 1.02-1.71 1.33-.35 2.67-.74 4.03-1.19.75-.25 1.57.14 1.83.87.25.73-.15 1.52-.9 1.77zm-9.18 2.56c-1.41.3-2.83.54-4.29.72-.77.09-1.47-.56-1.54-1.47-.08-.91.48-1.72 1.26-1.81 1.39-.17 2.74-.39 4.08-.68.77-.17 1.5.43 1.64 1.32.14.9-.37 1.76-1.13 1.92zm-8.4.7c-.67.02-1.34.02-2.02.02-1.05-.05-2-.1-2.95-.17-.88-.06-1.54-.74-1.47-1.52.07-.78.84-1.37 1.72-1.3.92.06 1.85.11 2.78.16.57 0 1.22-.01 1.85-.03.88-.02 1.62.59 1.64 1.38.03.78-.67 1.43-1.55 1.45zm-10.03.01c-1.44-.21-2.85-.46-4.25-.74-.76-.16-1.28-1.01-1.14-1.9.13-.89.86-1.48 1.63-1.33 1.35.28 2.72.52 4.11.72.77.11 1.32.93 1.22 1.82-.09.89-.8 1.53-1.57 1.42zm-9.16-2.03c-1.42-.33-2.83-.7-4.22-1.1-.76-.22-1.2-1.02-.98-1.8.22-.78 1.01-1.23 1.76-1.01 1.34.39 2.7.74 4.08 1.06.77.18 1.25.96 1.08 1.74-.18.78-.94 1.28-1.71 1.1zm-9.17-2.05c-1.4-.54-2.79-1.12-4.16-1.73-.75-.34-1.11-1.3-.82-2.14.3-.85 1.14-1.26 1.89-.93 1.33.6 2.67 1.15 4.02 1.67.76.29 1.17 1.23.91 2.09-.25.86-1.08 1.32-1.84 1.03zm-8.18-4.05c-1.35-.62-2.71-1.28-4.08-1.99-.73-.38-1.03-1.29-.66-2.04s1.26-1.06 1.99-.68c1.34.68 2.66 1.33 3.97 1.93.75.34 1.09 1.24.75 2.01-.34.77-1.22 1.11-1.97.76zm-8.14-4.04c-1.27-.66-2.58-1.36-4-2.13-.72-.4-.98-1.28-.56-1.97.41-.69 1.34-.94 2.06-.54 1.4.76 2.69 1.45 3.94 2.09.74.38 1.01 1.26.61 1.96-.39.7-1.31.96-2.05.58zm-7.06-5.02l-1.98-1.09c-.76-.41-1.37-.75-1.96-1.06-.73-.4-.98-1.27-.56-1.95.42-.68 1.35-.91 2.08-.52l1.97 1.07 1.98 1.08c.73.39.97 1.27.55 1.95-.42.67-1.35.9-2.08.51zm-7.94-3.99c-1.4-.75-2.69-1.42-3.94-2.04-.74-.36-1.04-1.25-.67-1.97.37-.73 1.28-1.02 2.02-.65 1.29.63 2.62 1.32 4.04 2.08.73.39.99 1.29.59 2s-1.32.97-2.04.58zM405 165.8c-1.35-.645-2.67-1.22-3.98-1.72-.76-.29-1.17-1.21-.9-2.06.26-.85 1.09-1.29 1.86-1 1.38.53 2.77 1.13 4.18 1.81.74.36 1.08 1.31.76 2.13-.32.82-1.18 1.2-1.92.84zm-7.72-2.91c-1.33-.36-2.68-.65-4.03-.867-.77-.126-1.31-.91-1.2-1.76.11-.848.83-1.436 1.61-1.31 1.45.23 2.88.54 4.31.924.76.21 1.22 1.05 1.03 1.88-.18.84-.95 1.34-1.71 1.14zm-7.91-.965c-.88-.04-1.77-.05-2.67-.04-.67.005-1.33.02-2 .05-.88.03-1.63-.6-1.66-1.416-.04-.82.65-1.5 1.53-1.54.7-.03 1.39-.04 2.1-.05.96-.01 1.91 0 2.85.04.88.03 1.57.72 1.53 1.54-.04.81-.78 1.44-1.67 1.41zm-9.59.32c-1.36.17-2.72.39-4.1.664-.76.15-1.49-.46-1.62-1.36-.13-.91.39-1.76 1.16-1.92 1.43-.29 2.85-.52 4.27-.7.774-.1 1.47.56 1.55 1.47.084.91-.476 1.73-1.25 1.82zm-8.85 1.574c-1.35.31-2.71.66-4.08 1.06-.76.21-1.55-.24-1.76-1.02-.21-.78.23-1.58.99-1.8 1.42-.41 2.83-.77 4.22-1.1.77-.18 1.53.31 1.7 1.1.18.78-.3 1.57-1.07 1.75zm-8.9 1.74c-1.33.4-2.68.84-4.05 1.3-.75.25-1.58-.1-1.86-.8-.28-.69.11-1.46.86-1.72 1.4-.48 2.79-.92 4.15-1.33.76-.23 1.58.16 1.83.86s-.17 1.46-.93 1.69zm-7.92 3.43c-1.31.57-2.65 1.18-4.02 1.82-.75.35-1.61-.02-1.94-.82-.32-.8.02-1.73.76-2.08 1.39-.65 2.76-1.27 4.1-1.85.75-.33 1.61.06 1.91.87.31.81-.06 1.73-.81 2.06zm-7.94 3.86c-1.3.61-2.63 1.26-4.01 1.94-.74.37-1.63.05-1.98-.71-.36-.76-.05-1.67.69-2.04 1.39-.69 2.74-1.35 4.05-1.97.75-.35 1.63-.02 1.97.74.34.76.02 1.67-.73 2.02zm-7.97 3.92c-1.27.63-2.58 1.29-4 2.01-.73.37-1.63.08-2.01-.65s-.08-1.64.66-2.01c1.42-.72 2.75-1.39 4.02-2.02.74-.37 1.64-.07 2.01.67.37.73.07 1.63-.67 2zm-7.98 3.97c-1.06.53-1.13.57-4 2.03-.73.38-1.64.1-2.02-.63-.38-.72-.09-1.62.64-1.99l4-2.04c.74-.37 1.64-.09 2.02.64.38.73.09 1.62-.64 2zm-8 4.01c-1.45.74-2.76 1.4-4.01 2.03-.74.37-1.64.07-2.02-.66-.38-.73-.08-1.62.65-1.99 1.25-.63 2.55-1.29 4-2.03.74-.38 1.64-.09 2.02.64.38.73.09 1.62-.64 2zm-8.02 4.05c-1.38.69-2.72 1.35-4.03 1.99-.74.36-1.63.05-1.99-.7s-.05-1.65.698-2.01c1.29-.63 2.62-1.29 4-1.98.74-.37 1.63-.07 2 .68.36.74.06 1.65-.68 2.02zm-8.03 4.09c-1.38.67-2.73 1.31-4.06 1.92-.75.34-1.62-.01-1.95-.79-.33-.78.01-1.7.76-2.04 1.32-.61 2.65-1.24 4.02-1.9.74-.36 1.62-.02 1.96.75.34.77.02 1.69-.72 2.05zm-9.04 4.14c-1.383.63-2.75 1.23-4.11 1.8-.753.32-1.6-.1-1.89-.92-.29-.83.09-1.76.84-2.08 1.338-.57 2.68-1.16 4.04-1.78.75-.34 1.6.05 1.91.87.31.82-.04 1.76-.79 2.1zm-8.06 2.54c-1.394.46-2.78.9-4.152 1.31-.76.23-1.57-.16-1.81-.88-.246-.71.18-1.47.94-1.7 1.34-.4 2.7-.82 4.06-1.28.75-.25 1.58.12 1.844.82s-.13 1.48-.88 1.73zm-9.08 3.22c-1.402.4-2.8.77-4.194 1.11-.77.19-1.54-.29-1.72-1.07-.19-.78.28-1.56 1.05-1.75 1.36-.33 2.72-.69 4.09-1.09.76-.21 1.55.24 1.76 1.01.215.77-.23 1.57-.99 1.79zm-9.094 2.29c-1.42.32-2.83.6-4.23.84-.77.14-1.5-.46-1.62-1.32-.12-.87.41-1.68 1.18-1.81 1.37-.24 2.74-.51 4.116-.82.76-.17 1.51.39 1.66 1.25.15.86-.347 1.69-1.11 1.86zm-9.11.51c-1.42.15-2.84.26-4.26.35-.78.05-1.44-.51-1.49-1.24-.05-.73.54-1.36 1.31-1.41 1.375-.08 2.75-.2 4.13-.34.77-.08 1.46.45 1.55 1.18.08.73-.47 1.39-1.24 1.47zm-8.35.35c-1.7 0-3.344-.05-4.93-.16-.88-.06-1.54-.75-1.47-1.53.07-.78.84-1.37 1.72-1.31 1.5.11 3.054.16 4.67.15.884 0 1.6.63 1.606 1.42 0 .79-.71 1.43-1.6 1.43zm-10.08-.02c-1.5-.28-2.94-.64-4.315-1.08-.75-.24-1.18-1.07-.95-1.85.23-.79 1.03-1.23 1.78-.99 1.26.4 2.59.73 3.99.99.77.14 1.29.91 1.15 1.72-.14.8-.88 1.34-1.65 1.2zm-8.475-3.11c-1.47-.65-2.85-1.39-4.17-2.22-.7-.44-.89-1.34-.43-2 .46-.67 1.4-.85 2.1-.41 1.19.75 2.44 1.41 3.77 2 .76.33 1.09 1.19.74 1.92-.35.72-1.25 1.03-2.01.7zm-7.3-5.24c-1.13-1-2.19-2.09-3.2-3.26-.52-.61-.44-1.52.18-2.04s1.55-.44 2.08.17c.92 1.07 1.89 2.06 2.92 2.97.6.53.65 1.44.11 2.04-.54.59-1.47.64-2.08.1zm-6.12-6.31c-.77-1.26-1.52-2.61-2.24-4.05-.37-.74-.13-1.68.56-2.08.68-.41 1.54-.14 1.91.6.69 1.37 1.4 2.64 2.12 3.83.44.7.26 1.65-.39 2.12-.64.47-1.52.28-1.95-.43zm-4.35-9.16c-.62-1.24-1.23-2.55-1.93-4.08-.34-.75.02-1.62.8-1.95.78-.33 1.69.01 2.03.76.69 1.51 1.3 2.78 1.9 3.99.37.73.04 1.62-.73 1.97-.77.35-1.69.03-2.05-.7zm-4.1-8c-.77-1.7-1.31-2.87-1.87-4.02-.35-.74-.01-1.62.77-1.96.79-.34 1.71-.01 2.07.73.57 1.17 1.12 2.36 1.9 4.08.34.75-.02 1.61-.81 1.94-.79.32-1.71-.03-2.05-.78zm-3.68-7.92c-.69-1.4-1.38-2.67-2.08-3.81-.43-.7-.25-1.65.4-2.12.65-.47 1.53-.28 1.97.42.77 1.24 1.5 2.58 2.24 4.08.37.75.1 1.67-.59 2.06-.69.4-1.55.11-1.91-.64zm-4.77-6.67c-.92-1.07-1.9-1.99-2.95-2.76-.64-.48-.79-1.42-.35-2.1.45-.69 1.33-.86 1.96-.38 1.22.9 2.36 1.97 3.42 3.2.53.61.49 1.56-.08 2.13-.57.56-1.46.53-1.99-.08zm-7.49-4.61c-1.19-.46-2.47-.8-3.84-1-.78-.12-1.32-.86-1.2-1.65.12-.8.84-1.35 1.62-1.23 1.58.23 3.06.62 4.45 1.16.74.28 1.11 1.13.83 1.88-.28.75-1.105 1.13-1.84.84zm-8.43-2.26c-.16 0-.32 0-.47.01-1.2.04-2.37.15-3.54.33-.77.11-1.49-.38-1.61-1.1-.13-.72.4-1.4 1.16-1.52 1.28-.19 2.56-.31 3.87-.36l.51-.01c.77-.01 1.41.56 1.43 1.29.01.73-.6 1.34-1.37 1.35zm-7.67 2.59c-1.32.44-2.63.99-3.94 1.63-.74.36-1.59-.03-1.91-.87-.32-.84.02-1.81.76-2.17 1.42-.69 2.83-1.28 4.25-1.76.77-.26 1.58.24 1.81 1.11.22.87-.21 1.79-.98 2.05zm-7.76 2.41c-1.27.64-2.54 1.34-3.84 2.12-.71.42-1.66.23-2.12-.42-.46-.66-.26-1.53.45-1.96 1.36-.82 2.7-1.56 4.04-2.23.74-.38 1.67-.13 2.07.56.4.68.13 1.54-.61 1.91zm-7.86 5.19c-1.21.87-2.45 1.8-3.76 2.82-.69.54-1.7.42-2.24-.26-.55-.68-.43-1.67.26-2.21 1.34-1.05 2.61-2.01 3.85-2.9.71-.51 1.71-.36 2.23.34s.36 1.68-.35 2.19zm-6.85 5.87c-.9.81-1.68 1.52-3.21 2.93-.59.54-1.47.46-1.97-.19s-.42-1.61.17-2.16c1.53-1.42 2.31-2.13 3.22-2.95.59-.54 1.47-.45 1.96.2s.41 1.61-.19 2.15zm-7 5.02c-1.19 1.09-2.24 2.04-3.25 2.93-.6.53-1.47.42-1.95-.25-.48-.67-.38-1.64.22-2.17.99-.88 2.03-1.82 3.2-2.9.59-.55 1.46-.45 1.95.2s.4 1.62-.19 2.17zm-7.14 6.17c-1.34 1.01-2.64 1.95-3.92 2.82-.73.49-1.7.29-2.18-.45-.48-.74-.29-1.74.43-2.24 1.24-.84 2.49-1.75 3.79-2.73.7-.53 1.68-.38 2.2.34.51.72.37 1.72-.33 2.25zm-8.12 4.85c-1.38.77-2.74 1.47-4.11 2.1-.75.34-1.65.03-2-.71-.35-.74-.03-1.62.72-1.97 1.29-.59 2.58-1.26 3.88-1.99.72-.4 1.64-.16 2.05.55.41.71.16 1.61-.55 2.01zm-8.2 3.97c-1.42.49-2.85.9-4.28 1.23-.77.18-1.55-.29-1.73-1.05-.18-.76.29-1.51 1.07-1.69 1.33-.31 2.65-.69 3.97-1.15.74-.26 1.56.12 1.83.85.26.73-.13 1.53-.88 1.79zm-8.47 2.04c-1.56.15-3.14.23-4.73.23h-.26c-.89-.01-1.6-.63-1.59-1.4 0-.77.72-1.39 1.6-1.39h.24c1.48 0 2.93-.07 4.38-.21.87-.09 1.67.46 1.76 1.22.1.76-.53 1.45-1.41 1.54zm-10.14.22c-1.54-.18-2.98-.46-4.36-.84-.76-.21-1.23-1.07-1.05-1.93.18-.86.94-1.39 1.7-1.18 1.25.34 2.58.59 3.99.76.78.09 1.34.88 1.26 1.75-.08.88-.78 1.51-1.55 1.42zm-8.52-2.11c-1.45-.6-2.84-1.31-4.21-2.14-.71-.43-.93-1.34-.5-2.04.43-.7 1.35-.92 2.06-.5 1.24.75 2.49 1.39 3.79 1.92.76.32 1.12 1.18.8 1.94-.32.76-1.2 1.12-1.96.8zm-7.51-5.2c-.52-.38-1.06-.79-1.68-1.26l-1.07-.83-1.07-.83c-.7-.54-.81-1.52-.25-2.18.55-.67 1.57-.78 2.26-.24l1.08.83 1.05.81c.6.46 1.12.85 1.62 1.22.71.52.85 1.49.31 2.17-.54.68-1.55.81-2.25.29zm-7.9-5c-1.28-.98-2.51-1.85-3.77-2.65-.74-.47-.98-1.48-.53-2.25.44-.78 1.4-1.03 2.13-.56 1.35.85 2.65 1.77 4 2.81.69.53.85 1.56.34 2.28-.51.73-1.48.88-2.18.35zm-7.6-4.83c-1.25-.64-2.56-1.21-3.93-1.73-.77-.29-1.18-1.2-.91-2.04.26-.84 1.09-1.28 1.85-1 1.47.55 2.87 1.17 4.21 1.85.73.37 1.05 1.33.71 2.13-.34.8-1.21 1.15-1.94.78zm-8.68-2.9c-1.29-.35-2.64-.65-4.06-.9-.78-.14-1.3-.94-1.17-1.77.13-.84.85-1.41 1.63-1.27 1.49.26 2.91.58 4.27.94.76.2 1.23 1.03 1.04 1.86-.18.82-.95 1.33-1.71 1.13zm-8.81-1.97c-1.44-.15-2.82-.27-4.14-.37-.77-.06-1.35-.69-1.3-1.41.05-.73.73-1.27 1.5-1.22 1.35.09 2.77.22 4.24.37.77.08 1.32.73 1.24 1.45-.09.72-.78 1.24-1.55 1.16zm-8.88 0c-1.45-.05-2.82-.04-4.11 0-.77.03-1.42-.61-1.45-1.43-.03-.82.58-1.51 1.35-1.53 1.35-.05 2.78-.05 4.28-.01.77.02 1.38.7 1.36 1.52-.02.82-.67 1.46-1.44 1.44zm-8.8.16c-1.44.19-2.78.46-4.01.79-.76.21-1.52-.31-1.71-1.16-.19-.85.28-1.71 1.04-1.91 1.34-.37 2.79-.66 4.34-.87.77-.11 1.48.51 1.57 1.38.09.87-.46 1.66-1.24 1.76zm-7.68 1.63c-1.35.55-2.57 1.2-3.71 1.95-.69.45-1.63.29-2.1-.37-.48-.66-.3-1.57.39-2.02 1.31-.87 2.7-1.61 4.24-2.24.76-.32 1.65.02 1.98.76.32.74-.03 1.59-.8 1.9zm-6.53 4.66c-.88.83-1.65 1.63-2.96 3.06-.54.59-1.48.65-2.1.13-.62-.52-.68-1.42-.14-2.02 1.35-1.48 2.16-2.33 3.1-3.22.58-.55 1.52-.55 2.1.02.57.56.56 1.46-.02 2.02zm-6.96 7.09c-1.1 1.19-2.17 2.22-3.31 3.15-.62.51-1.51.39-2-.26-.48-.65-.37-1.59.25-2.1 1.02-.85 1.99-1.78 3-2.88.55-.6 1.45-.61 2.01-.04.57.57.58 1.51.04 2.11zm-7.38 6.43c-.81.46-1.65.88-2.53 1.28-.51.22-1.1.45-1.77.68-.78.27-1.6-.19-1.85-1.01-.25-.83.17-1.72.94-1.99.59-.21 1.11-.41 1.54-.6.8-.36 1.55-.74 2.27-1.15.72-.41 1.61-.12 1.99.65.38.76.11 1.72-.61 2.12zm-8.32 2.09c-1.43.36-2.9.67-4.26.92-.77.14-1.5-.44-1.63-1.28-.13-.85.39-1.64 1.16-1.78 1.3-.24 2.71-.54 4.08-.89.76-.2 1.52.32 1.7 1.16.18.83-.3 1.66-1.06 1.85z"/></svg>