<svg xmlns="http://www.w3.org/2000/svg" viewBox="0 0 1625 1572"><g id="Page-1" fill="none" fill-rule="evenodd" stroke-linecap="round" stroke-linejoin="round"><g id="fp" stroke="#000" stroke-width="4"><path d="M179,1542 C151.666667,1546 124.666667,1547.33333 98,1546 C89.3333333,1350 73.6666667,1147 51,937"/><path d="M93 1543C83 1538.33333 76 1534.66667 72 1532 48.6666667 1270 27.3333333 1087.33333 8 984L50 937 116 924M633 296C631 278 620 203 630 222 633 162 639 161 657 126 662 96 673.313112 83.6214572 676 80 680.303366 74.1998109 671.706484 100.149005 678 98 719.333333 68.6666667 773.333333 44 840 24"/><path d="M825,34 C865.666667,45.3333333 898.666667,66.6666667 924,98 C929.053217,100.245874 923.053217,90.912541 906,70 C944.63657,87.9247583 970.63657,113.591425 984,147 C988,157 989,169 987,183 L993,180 C987,234 987,282 993,324 C1001,314 1002.62899,313.41358 1003,317 C1009,375 990,414 984,419 C980,422.333333 973.666667,419.666667 965,411"/><path d="M799 203C779 173.666667 746.333333 157.666667 701 155 665 199 672 231 676 264 662 296 657 309 662 345 667 381 664.481424 417.0356 666 455 667 480 731 553 744 566 757 579 773.773674 583.127604 777 592 781 603 855.950106 591.829937 869 584 899 566 945.381472 512.343323 957 490 959 476.666667 962.333333 437.833333 967 373.5M1590 839C1590 1073 1600 1251.66667 1620 1375 1491.72258 1425.25794 1223.78584 1471.70994 860 1484 761.333333 1487.33333 620.333333 1498 437 1516M821 197C871.904762 178.333333 916.238095 169 954 169 950 176 936 181 931 181 954 204 945.169307 276.641089 948 279 968 295.666667 976.333333 323.333333 973 362"/><path d="M1586 842C1451 876 1042.12253 871.410419 1008 876 837 899 698 901 495 904M654 342C637.782218 321.103182 628.115551 313.436515 625 319 611 344 627 372 638 402 642.914202 415.402368 641.086121 423.320742 648 429 652.609253 432.786172 658.609253 431.452838 666 425M686 497C681 592 652.676203 658.303418 722 694 811.333333 740 877.666667 727.333333 921 656"/><path d="M683 516C676.642293 514.329257 670.308959 515.662591 664 520 654.536561 526.506114 657 532 651 538 613 523 538 579 524 580 451.15029 585.203551 293 684 261 777 205.459266 802.634185 171.822246 837.75998 161.960554 853.67932 160.280988 856.390578 159.291054 858.544728 159 860 158.333333 868.666667 160.333333 876.333333 165 883 120.456433 929.78711 97.1230995 956.453777 95 963 83 1000 88 1105 95 1117 111.730088 1145.68015 143.396754 1240.34682 190 1401 177.333333 1431.66667 171.333333 1457 172 1477 173 1507 176 1535 195 1558 214 1581 211.945119 1560.36875 228 1558 240 1566 258 1567 256 1549 272 1578 284.083401 1562.96784 301 1554 333.666667 1566 346.333333 1549.66667 339 1505 343 1491 348 1478 354 1466 375 1482 385 1549 427 1527 442 1513 425.14782 1506.7367 413 1492 400 1412 330 1388 301 1379 264 1237 286 1192 266 990 277 981 278.311117 978.352262 293 974 304.333333 980.666667 313.333333 980.666667 320 974 398.638801 939.934302 453.638801 917.600969 485 907M942 556C998 563 1169 688 1184 725 1194 749.666667 1216.66667 797.333333 1252 868"/><path d="M161,857 C209,841 216,895 231,901.1 C255.775606,911.175413 269,921 296,948"/></g></g></svg>