<svg xmlns="http://www.w3.org/2000/svg" viewBox="0 0 1253 1031"><g fill="none" fill-rule="evenodd"><path stroke="#979797" d="M65 38v916l64-780 53 747 34-512c5.3-181.3 33.7-291.7 85-331 51.3-39.3 188.3-52.7 411-40L301 194 874 38 273 291l791-253C590.7 206.7 336.3 322.7 301 386c-35.3 63.3-35.3 241.7 0 535l77-512 32 512 53-535 26 535c.3-310.7 25.5-498.7 75.5-564 75-98 463.5-299 481.5-241 12 38.7-120.7 141.7-398 309l566-231-635 358 635-214-604 349 584-191-554.5 272C995.8 663.3 1174 630.3 1174 669c0 58-595 183-609.5 252-9.7 46 58.8 65 205.5 57l52-126v126l52-126 28 102 55-153 41 120 66-96 22 96 88-120 20 153"/></g></svg>