<svg xmlns="http://www.w3.org/2000/svg" viewBox="0 0 1252 1031"><g fill="#FFF" fill-rule="evenodd"><path d="M507.3 756.3C557.53 733.44 592 686.36 592 632c0-76.77-68.72-139-153.5-139S285 555.23 285 632c0 .98 0 1.96.03 2.94-8.84-1.92-18.06-2.94-27.53-2.94-67.1 0-121.5 51.04-121.5 114s54.4 114 121.5 114c15.87 0 31.03-2.85 44.93-8.05C323.7 877.75 362.35 895 406.5 895c67.1 0 121.5-39.85 121.5-89 0-18.4-7.63-35.5-20.7-49.7z"/><path d="M219.88 295.52c-2.3 8.56-3.74 17.5-4.23 26.76-3.5 67.02 44.6 124 107.5 127.3 62.86 3.3 116.68-48.35 120.2-115.36.5-9.46-.05-18.72-1.5-27.65.97.07 1.95.13 2.93.18 76.66 4.02 142.4-61.35 146.84-146C596.06 76.07 537.52 4.18 460.85.17c-54.3-2.85-103.1 29.1-128.56 78.08-13.5-13.8-30.2-22.3-48.6-23.28-39.5-2.07-74.8 31.3-88.9 79.3-41.6 10.42-71.8 41.77-71.8 78.84 0 44.2 42.9 80.3 96.8 82.4z"/><path d="M866.1 503.15C821.32 524 791 564.25 791 610.5c0 67.65 64.92 122.5 145 122.5 43.28 0 82.13-16.02 108.7-41.42 73.6-12.36 129.3-70.6 129.3-140.58 0-78.98-70.96-143-158.5-143-68.94 0-127.6 39.7-149.4 95.15z"/><path d="M776.7 293.56C785.45 335.9 827.25 368 877.5 368c30.22 0 57.38-11.6 76.14-30.08 23.4 18.7 54.38 30.08 88.36 30.08 72.9 0 132-52.38 132-117s-59.1-117-132-117c-31.94 0-61.24 10.06-84.07 26.8C956.03 117 915.6 82 866 82c-33.3 0-62.46 15.76-78.6 39.37C771 111.83 749.07 106 725 106c-50.8 0-92 25.97-92 58s41.2 58 92 58c7.9 0 15.58-.63 22.9-1.8-5.02 7.56-7.9 16.38-7.9 25.8 0 21.66 15.22 40.16 36.7 47.56z"/><path d="M660.3 890.34C627.3 875.97 605 848.5 605 817c0-46.4 48.35-84 108-84s108 37.6 108 84c0 2.05-.1 4.1-.28 6.1C869.24 837.8 904 877.43 904 924c0 59.1-55.96 107-125 107-69.04 0-125-47.9-125-107 0-11.76 2.22-23.07 6.3-33.66z"/><path d="M88.8 74.23c1.62 9.23-.43 19.75-6.44 29C71.08 120.6 50.1 127 35.5 117.53c-5.34-3.48-9.1-8.6-11.13-14.6-4.8 1.37-10.43.6-15.26-2.55-8.3-5.4-11.2-15.8-6.4-23.22 4.9-7.4 15.5-9.03 23.9-3.62l.3.2c.8-1.64 1.7-3.24 2.7-4.8 11.3-17.38 32.2-23.78 46.8-14.3l.4.27c10-15.2 22-25 26.8-21.9 4.9 3.2.7 18.3-9.4 33.8-1.7 2.7-3.5 5.2-5.3 7.5z"/><path d="M1250.57 377.3c5.7 19.9-11.27 52.66-28 57.46-6.14 1.76-14.15 2.37-20 0-2.13 4.5-10.82-1.6-16.36 0-9.5 2.74-19.2-1.93-21.7-10.42-2.4-8.5 3.4-17.6 12.9-20.35l.3-.1c-.7-1.7-1.3-3.4-1.8-5.2-5.7-19.9-6.4-40.1 10.4-44.9.2-.1 10 0 10.1 0-4.9-17.6.8-20 6.3-21.6 5.6-1.6 9-1.6 14.1 16.2.9 3 1.6 6 2.2 8.9 8.03 4.8 28.77 9.2 31.8 19.8z"/><path d="M77.3 452.75C68.77 448.52 63 440.6 63 431.5c0-13.53 12.76-24.5 28.5-24.5s28.5 10.97 28.5 24.5v.5h.5c15.74 0 28.5 10.97 28.5 24.5S136.24 481 120.5 481h-.7c-1.73 13.5-15.08 24-31.3 24-17.4 0-31.5-12.1-31.5-27 0-11.53 8.44-21.38 20.3-25.25z"/><path d="M985.93 842.12c-9.8 8.15-22.64 10.87-33.74 5.92-16.6-7.36-23-28.9-14.5-48.14 8.5-19.22 28.9-28.84 45.4-21.48l.6.28.2-.62c8.5-19.23 28.9-28.85 45.4-21.5 16.5 7.37 23 28.92 14.4 48.15l-.4.84c15.53 9.46 21.1 31.5 12.3 51.3-9.48 21.25-31.9 31.9-50.1 23.8-14.1-6.28-21.56-21.94-19.8-38.55z"/><ellipse cx="702" cy="30" rx="53" ry="30"/></g></svg>