<?xml version="1.0" encoding="UTF-8"?>
<svg width="1796px" height="1451px" viewBox="0 0 1796 1451" version="1.1" xmlns="http://www.w3.org/2000/svg" xmlns:xlink="http://www.w3.org/1999/xlink">
    <!-- Generator: Sketch 46.2 (44496) - http://www.bohemiancoding.com/sketch -->
    <title>hand-push</title>
    <desc>Created with Sketch.</desc>
    <defs></defs>
    <g id="Page-1" stroke="none" stroke-width="1" fill="none" fill-rule="evenodd" stroke-linecap="round" stroke-linejoin="round">
        <g id="hand-push" stroke="#D0021B" stroke-width="13">
            <path d="M1705,768 C1576.72503,744.400451 1467.7198,730.508211 1370.92525,722.738607 C1213.42417,710.096149 1088.25306,713.664465 965,718 C766,725 692,619 639,606 C332,517 191,403 166,338 C159.966891,322.313917 143,272 197,237 C204,237 224,219 266,231.283623 C299,240 381.702766,314.892281 468,330 C507.309694,336.881794 562.358562,330.620317 639,338 C693.808534,343.277427 798.475201,355.944094 953,376 C799.116417,355.386954 694.44975,342.720287 639,338 C515.853965,327.516911 499,338 468,330 C368,309 319.581795,247.798359 266,231.283623 C232,220 197.48933,237.151227 197,237 C97.6997637,206.311358 33.7502198,166.50044 15,129 C-12.0421058,74.9157883 31.7645643,-8.8446001 89,10 C216.296551,51.9120179 424.670444,116.937169 652.904673,171.938084 C852.037599,219.926036 1066.28911,260.283085 1255,271 C1478.29611,315.795794 1597,315 1724,338 C1810.25428,412.892342 1816.42106,788.498831 1705,768 Z" id="hand-end"></path>
            <path d="M1705,768 C1576.72503,744.400451 1397.81045,695.342579 1372,750 C1338,822 1306,850 1213,952 C1120,1054 950.75555,1079 897.75555,1066 C850,1108 755,1196 639,1222 C616.427816,1227.05928 605,1226 579,1222 C586,1222 509,1195 503,1159 C497,1123 485,1062 652.904673,1004 C686.771465,992.301255 812,868 866,810 C920,752 884,737 946,690 C894,721 906,772 866,810 C802,881 711,967 652.904673,1004 C528,1047 487,1096 503,1159 C507,1187 563,1214 579,1222 C529,1290 442.659672,1427.85574 401,1451 C356,1476 276,1417 308,1352 C438.416756,1087.09096 705.730843,777.72343 866,642 C977,548 1084,414 1360,303 C1540,323 1597,315 1724,338 C1810.25428,412.892342 1816.42106,788.498831 1705,768 Z" id="hand-start"></path>
        </g>
    </g>
</svg>