<?xml version="1.0" encoding="UTF-8"?>
<svg width="2628px" height="2572px" viewBox="0 0 2628 2572" version="1.1" xmlns="http://www.w3.org/2000/svg" xmlns:xlink="http://www.w3.org/1999/xlink">
    <!-- Generator: Sketch 46.2 (44496) - http://www.bohemiancoding.com/sketch -->
    <title>hand-drawing</title>
    <desc>Created with Sketch.</desc>
    <defs></defs>
    <g id="Page-1" stroke="none" stroke-width="1" fill="none" fill-rule="evenodd">
        <g id="hand-drawing">
            <path d="M1,491.680144 L1,1813.79351 L93.3516101,687.976452 L169.830287,1766.16279 L218.89208,1027.16492 C226.588048,765.436514 267.472875,606.186323 341.546562,549.414352 C415.620249,492.642381 613.310415,473.397645 934.617058,491.680144 L341.546562,716.843556 L1168.38207,491.680144 L301.142733,856.84901 L1442.55091,491.680144 C759.533798,735.126055 392.532347,902.555259 341.546562,993.967755 C290.560777,1085.38025 290.560777,1342.7786 341.546562,1766.16279 L452.657093,1027.16492 L498.832898,1766.16279 L575.311575,993.967755 L612.829417,1766.16279 C613.310415,1317.76044 649.625762,1046.40966 721.775457,952.110454 C830,810.661644 1390.60313,520.547248 1416.57702,604.26185 C1433.89295,660.071584 1242.45576,808.73717 842.265448,1050.25861 L1659,716.843556 L742.698869,1233.56472 L1659,924.686705 L787.43168,1428.41767 L1630.14012,1152.73683 L830,1545.32944 C1344.18683,1394.25826 1601.28024,1346.62754 1601.28024,1402.43728 C1601.28024,1486.15188 742.698869,1666.57128 721.775457,1766.16279 C707.826516,1832.55713 806.671598,1859.98088 1018.3107,1848.43404 L1093.34639,1666.57128 L1093.34639,1848.43404 L1168.38207,1666.57128 L1208.7859,1813.79351 L1288.15057,1592.96016 L1347.31332,1766.16279 L1442.55091,1627.60069 L1474.29678,1766.16279 L1601.28024,1592.96016 L1630.14012,1813.79351" id="hand-drawing-path" stroke="#979797"></path>
            <g id="hand-drawing-hand" transform="translate(-94.000000, 0.000000)">
                <path d="M329.219776,336.312707 C364.650124,302.234615 387.592502,284.16844 398.04691,282.114183 C408.501319,280.059927 421.905854,293.831763 438.260517,323.429693 C453.434854,323.843167 460.394901,325.040447 459.140659,327.021532 C458.969748,327.291487 479.87102,268.40568 483.887494,276.694331 C485.853019,280.750514 467.567878,240.647963 469.967399,247.272275 C471.459091,251.390361 400.578241,243.907531 387.22017,247.272275 C340.531629,259.032581 291.161735,273.668092 289.006169,239.529629 C287.894929,221.93052 437.251299,110.217414 453.727289,114.098759 C493.167557,123.389935 674.374743,170.524848 690.368897,201.590662 C721.797766,262.635679 760.464214,655.482856 782.396189,727.316343 C808.339845,812.289233 848.903307,1153.93615 855.863355,1212.78026 C863.439375,1276.83216 553.429371,1271.93232 562.76803,1212.78026 C600.661621,972.75823 609.941684,971.983965 609.941684,947.981762 C609.941684,814.767553 571.053696,596.745365 562.76803,594.142828 C536.474518,585.884005 510.181006,562.397978 483.887494,523.684747 C467.389604,496.843573 457.336202,478.51931 453.727289,468.711958 C450.118375,458.904606 421.762627,425.869316 368.660044,369.606086 L329.219776,336.312707 Z" id="Rectangle" fill="#FFE11A" transform="translate(572.500000, 686.500000) rotate(-22.000000) translate(-572.500000, -686.500000) "></path>
                <path d="M849.756614,1219 C852.311579,1203.4027 834.750852,1083.94399 797.074432,860.623881 C740.559803,525.643712 694.809022,206.568113 676.990049,194.957656 C659.171076,183.347198 487.953987,115.232515 449.991827,116.006545 C412.029667,116.780576 290.395807,213.534387 278,244.495607 C279.549476,252.751933 284.972642,258.686166 294.269497,262.298309" id="Path-3" stroke="#FFFFFF" stroke-width="10" stroke-linecap="round" stroke-linejoin="round" transform="translate(564.000000, 667.500000) rotate(-22.000000) translate(-564.000000, -667.500000) "></path>
                <path d="M211,340.071856 C243.350249,325.950147 263.519946,316.423201 271.509091,311.491018 C279.498236,306.558835 286.73864,298.061829 293.230303,286 C319.088889,332.862275 334.345455,358.353293 339,362.473054 C332.793939,368.652695 322.967677,386.161677 309.521212,415" id="Path-10" stroke="#FFFFFF" stroke-width="10" stroke-linecap="round" stroke-linejoin="round" transform="translate(275.000000, 350.500000) rotate(-22.000000) translate(-275.000000, -350.500000) "></path>
                <path d="M69.3544049,341.010076 L647.967113,114.551811 C658.385163,113.237293 664.323625,114.271349 665.782498,117.653979 C666.848665,120.126057 671.250777,126.362567 669.655407,136.266987 C669.263655,138.699078 666.939909,142.835302 662.68417,148.675659 L85.6206256,377.46055 C51.8081034,383.603116 33.9927188,384.637172 32.1744718,380.562718 C30.3562249,376.488264 42.7495359,363.30405 69.3544049,341.010076 Z" id="Rectangle-2" fill="#FFE11A" transform="translate(351.000000, 248.500000) rotate(-22.000000) translate(-351.000000, -248.500000) "></path>
                <g id="Group-2" transform="translate(349.687303, 246.463592) rotate(-22.000000) translate(-349.687303, -246.463592) translate(28.187303, 110.963592)" stroke="#FFFFFF" stroke-width="10" stroke-linecap="round" stroke-linejoin="round">
                    <polyline id="Path-5" points="43.3831325 232.2 43.3831325 253.8 59.6518072 263.828571"></polyline>
                    <path d="M44.9325301,253.8 L539.96506,59.4" id="Path-6"></path>
                    <path d="M0,270 L59.6518072,263.057143 L640.675904,34.7142857 C643.774699,25.9714286 643.774699,18 640.675904,10.8 C637.577108,3.6 633.187149,0.257142857 627.506024,0.771428571 L40.2843373,232.2 L0,270 Z" id="Path-4"></path>
                    <path d="M537.640964,37.8 C538.142946,48.0520612 539.175878,54.9949184 540.739759,58.6285714 C542.303641,62.2622245 545.918902,66.1193673 551.585542,70.2" id="Path-7"></path>
                    <path d="M595.743373,16.2 C594.822853,25.1263106 594.822853,31.2977392 595.743373,34.7142857 C596.663894,38.1308323 599.504456,42.5022608 604.26506,47.8285714" id="Path-8"></path>
                    <path d="M618.984337,5.4 C617.43494,11.5714286 617.43494,18 618.984337,24.6857143 C620.533735,31.3714286 624.148996,35.4857143 629.83012,37.0285714" id="Path-9"></path>
                </g>
                <path d="M197.098399,454 C182.198479,442.048893 172.129899,431.307514 166.89266,421.775862 C161.655421,412.24421 160.622747,402.781567 163.794636,393.387931 C168.711137,384.34307 173.358173,378.460887 177.735746,375.741379 C182.113318,373.021872 192.698236,369.441412 209.490497,365 C224.025968,369.05669 234.352717,372.637149 240.470743,375.741379 C246.588768,378.845609 257.431854,386.006529 273,397.224138 L197.098399,454 Z" id="Path-18" fill="#FFE11A" transform="translate(217.500000, 409.500000) rotate(-22.000000) translate(-217.500000, -409.500000) "></path>
                <path d="M555.641127,390.7519 L466.696225,364.427669 C448.649433,340.684245 424.41517,319.779709 393.993436,301.714061 C348.360834,274.615588 275.658044,323.392839 346.813966,378.364027 C405.594944,419.398857 368.56758,386.683366 443.493207,467.401866 C518.418834,548.120366 475.378977,561.085158 590.445654,640.832092 C625.250181,777.5 650.516362,929.879779 629.117351,1015.56526 C619.836144,1052.72888 606.945578,1134.54046 590.445654,1261" id="Path-2" stroke="#FFFFFF" stroke-width="10" stroke-linecap="round" stroke-linejoin="round" transform="translate(477.000000, 777.500000) rotate(-22.000000) translate(-477.000000, -777.500000) "></path>
                <path d="M368,386 C373.223055,383.747421 377.547617,381.439728 380.973684,379.076923 C384.399752,376.714118 389.741857,372.355143 397,366" id="Path-11" stroke="#FFFFFF" stroke-width="10" stroke-linecap="round" stroke-linejoin="round" transform="translate(382.500000, 376.000000) rotate(-22.000000) translate(-382.500000, -376.000000) "></path>
                <path d="M340,383 C351.93002,362.871899 360.43002,349.471339 365.5,342.798319 C378.650592,325.489741 389.134651,318.33133 391,314.966387 C388.939394,309.812325 388.939394,301.823529 391,291" id="Path-12" stroke="#FFFFFF" stroke-width="10" stroke-linecap="round" stroke-linejoin="round" transform="translate(365.500000, 337.000000) rotate(-22.000000) translate(-365.500000, -337.000000) "></path>
                <path d="M340,332 L362,335" id="Path-13" stroke="#FFFFFF" stroke-width="10" stroke-linecap="round" stroke-linejoin="round" transform="translate(351.000000, 333.500000) rotate(-22.000000) translate(-351.000000, -333.500000) "></path>
                <path d="M340,294 C343.81931,308.932325 346.962167,319.043437 349.428571,324.333333 C351.894975,329.62323 356.085452,335.845452 362,343" id="Path-14" stroke="#FFFFFF" stroke-width="10" stroke-linecap="round" stroke-linejoin="round" transform="translate(351.000000, 318.500000) rotate(-22.000000) translate(-351.000000, -318.500000) "></path>
                <path d="M258,285 C256,274.617679 255,266.617679 255,261 C255,255.382321 256,247.382321 258,237" id="Path-15" stroke="#FFFFFF" stroke-width="10" stroke-linecap="round" stroke-linejoin="round" transform="translate(256.500000, 261.000000) rotate(-22.000000) translate(-256.500000, -261.000000) "></path>
                <path d="M249,331 C237.934421,326.504666 228.989977,322.171333 222.166667,318 C215.343357,313.828667 208.954468,309.495334 203,305" id="Path-16" stroke="#FFFFFF" stroke-width="10" stroke-linecap="round" stroke-linejoin="round" transform="translate(226.000000, 318.000000) rotate(-22.000000) translate(-226.000000, -318.000000) "></path>
                <path d="M181.063671,382.369683 C198.525119,374.183917 228.835848,388.608803 235,404.206602 C221.130658,411.225612 200.571754,426.043521 198.015088,451 C181.063671,446.32066 169.505886,429.163081 164.882772,420.584291 C160.259658,412.005502 163.602222,390.555449 181.063671,382.369683 Z" id="Path-17" stroke="#FFFFFF" stroke-width="10" stroke-linecap="round" stroke-linejoin="round" transform="translate(199.000000, 415.500000) rotate(-22.000000) translate(-199.000000, -415.500000) "></path>
            </g>
        </g>
    </g>
</svg>