<svg xmlns="http://www.w3.org/2000/svg" viewBox="0 0 1249 1263"><g fill="none" fill-rule="evenodd"><path d="M356 355l19-39 15-13 47 9-28 36"/><path fill="#FFE11A" d="M212 128l167-61 87-3 139 132 44 5 38 33 55 196 70 172 267 318c30.6 36.46 52.94 64.8 67 85 14.06 20.2 47.06 71.54 99 154-31.43-3.4-53.1-3.4-65 0-35.9 10.28-57.8 34.73-74 36-53.52 4.2-82.08-19.98-111-11-48.6 15.1-76.94 41.42-85 79l-73-23-103-145c-14.75-42.08-28.92-72.08-42.5-90-4.05-5.35-23.88-47-59.5-125l-61-103c-22.14-34.32-38.8-56-50-65-8.57-6.9-42.9-18.13-97-52-11.03-6.9-28.7-21.57-53-44l-36-14v-18l-48-20v-56L171 400l-33-82v-45L20 234l44-125 171 47-20-16-3-12z"/><g fill="#FFF"><path d="M113.94 255.37l2.6 1.4c5.36 2.85 10.68 5.8 15.94 8.85 4.53 2.64 8.94 5.48 13.34 8.33 2 1.28 4 2.53 6 3.82.04.04.1.07.15.1 0 0-.02 0-.03.02-.3.1-.6.2-.88.4l-.44.3c-.32.2-.68.3-1 .6h-.05c-2.7-1-5.42-2-8.12-3.1-4.57-1.8-9.15-3.5-13.76-5.2-5.3-1.9-10.6-3.8-15.9-5.8-4.4-1.7-8.8-3.6-13.1-5.4-3.7-1.4-7.5-2.8-11.1-4.3-3.5-1.4-7-2.7-10.5-4-3.5-1.3-7-2.4-10.5-3.6-2.9-1-5.7-2-8.6-2.9-4.4-1.4-8.8-2.3-13.3-3-4.3-.5-8.5-.9-12.8-1.3l-4.5-.4-2-.2c-2-.3-4-.4-5.8-1.1-1.9-.7-3.5-1.7-4.6-3.4-.6-1-1.2-2.7-1.1-3.9 0-1.2.1-2.4.5-3.5.3-1 .7-1.9 1.1-2.8.6-1.4 1.4-2.8 2-4.2 1.1-2.6 2.3-5.1 3.4-7.7 1-2.3 2-4.7 2.9-7l3.2-8.7c2-5.3 3.7-10.7 5.5-16.1 1.8-5.4 3.8-10.6 5.7-15.9 1.7-4.9 3.8-9.7 5.7-14.6 1.4-3.9 2.7-7.8 3.7-11.8.9-3.3 1.6-6.7 2.2-10.1.4-4.2.6-8.4 1-12.7.2-2.2.4-4.5 1-6.7.3-1.2.7-2.4 1.3-3.6.4-.9 1-1.8 1.6-2.5 1.6-1.6 3.8-2.9 6.1-2.9h.6c.7 0 1.5.1 2.2.4l1.9.8c.7.3 1.3.6 1.9 1l3.8 1.9c2.6 1.2 5.2 2.4 7.8 3.7 4.4 2.2 8.8 4.5 13.3 6.5 6 2.4 12.2 4.2 18.4 6.2 4 1.3 8.1 2.5 12.2 3.7 7.4 2.2 14.7 4.6 22.2 6.6 10.7 2.8 21.3 5.6 31.9 8.6 5.3 1.5 10.7 3.1 16.1 4.5l15.9 4.2c5.2 1.4 10.4 2.8 15.6 4.1l10.8 2.7 5.5 1.2 9.8 1.9c2.6.5 5.2.9 7.8 1.4 4.9.8 9.8 1.5 14.7 2.2 5.5.6 11 1.3 16.5 1.9 2.7.3 5.5.5 8.3.9 1.8.3 3.6.6 5.2 1.7 1.9 1.3 3.7 3.4 3.6 5.9-.1.8-.1 1.6-.4 2.4l1.2 1 4.5 3.3c2.7 2 5.4 4.1 8 6.2 2.1 1.5 4.1 3.1 6.1 4.8 1.5 1.2 3.5 2.5 4.3 4.3.8 1.8 1.5 3.6 1.6 5.6 0 1.8-.2 3.7-.6 5.4-.6 2.8-1.5 5.4-2.5 8.1l-2 5.1c-1 2.2-2.1 4.4-3.2 6.5-2.5 5-5.2 10-7.7 15-2.1 4.1-3.9 8.4-5.7 12.6-.7 2-1.5 4-2.2 6-3.8 10-7.7 19.9-11.8 29.7-2 4.8-3.9 9.5-6.3 14.1-1.3 2.6-2.6 5.2-4 7.8-1.1 2.2-2.1 4.5-3.1 6.7-1 2.5-1.9 5-2.8 7.5.2-5.1 1.1-10.1 2.3-15.1.5-2.2 1.2-4.3 1.8-6.5l2.1-7.7c.6-2.3 1.1-4.7 1.7-7 .5-2.4 1.2-4.7 1.8-7.1 1.1-4.5 2.4-8.9 3.7-13.4 1.5-5.4 3-10.9 4.8-16.3 1.6-5 3.8-9.9 5.8-14.8 2.1-5.1 4.6-10.1 7.1-15 2.7-5.3 5.7-10.4 8.1-15.9.8-1.9 1.5-3.9 1.9-6V199l-.1-.5c-.5-.8-1.1-1.6-1.7-2.3-2.7-3.4-5.6-6.5-8.4-9.8l-4.5-5.2c-.7-.8-1.4-1.7-2-2.6l-.8 1.5-1.6 3.6c-4.3 10.5-8.6 21-12.8 31.6-2.5 6.3-4.6 12.6-6.9 18.9-2.2 6-4.3 11.9-6.4 17.9-2 6-3.9 12-5.4 18.1-1.4 5.9-2.8 11.9-3.7 17.9-.4 3.5-.9 6.9-1.5 10.4-.6-3.7-1.3-7.4-1.8-11.1-.4-3.58-.7-7.1-.8-10.7-.2-7.68.3-15.2 1.5-22.8 1.3-7.8 3.2-15.5 5.5-23.1 1.2-3.7 2.4-7.3 3.8-10.9 1.5-3.82 3.1-7.6 4.7-11.35 1.8-4.3 3.7-8.6 5.7-12.86l4.3-9.3c1.5-3.3 3.1-6.5 4.6-9.7-2.9-.3-5.9-.5-8.8-.8-2.7-.3-5.4-.6-8.1-1-11-1.4-21.9-3.3-32.7-5.6-3.3-.7-6.5-1.4-9.7-2.2-2.2-.5-4.4-1.2-6.6-1.8-5.2-1.4-10.3-2.8-15.4-4.3-10.6-3.1-21.2-6.2-31.8-9.4-7.8-2.4-15.7-4.7-23.5-7-1.4 4-2.7 8.1-3.8 12.1-1.6 5.4-3 10.8-4.5 16.2-1.4 5.1-3.1 10.1-4.8 15-1.9 5.2-3.6 10.4-5.9 15.5-2.3 5-4.7 10-7.1 15l-1.5 3.6c-.5 1.32-.9 2.8-1.4 4.1L125 234c-1.3 3.4-2.5 6.8-4.2 9.94-1.1 2-2.4 3.82-3.7 5.7-1.2 1.7-2.6 3.2-4.1 4.6zm-.65-.36l.9-2.1c.6-1.6 1.1-3.2 1.6-4.8.5-1.6 1-3.2 1.3-4.8.5-2.5.9-5.1 1.3-7.7l-.2.9c.5-3.8 1-7.5 1.7-11.3.6-3.6 1.3-7.2 2.5-10.7 2.3-7 5.1-13.8 7.9-20.6 2.3-5.4 4.7-10.8 7.2-16.1 2.2-4.7 4.3-9.5 6.6-14.3 2.2-4.7 4.8-9.2 7.4-13.7.9-1.5 1.8-3 2.8-4.5l-5.4-1.5-9.9-2.8c-2.2-.6-4.4-1.4-6.6-2l-16.3-5.1-16.6-5.1c-5.7-1.8-11.3-3.9-16.7-6.4-2.8-1.3-5.7-2.5-8.5-3.8-2-.8-3.9-1.5-5.9-2.3-1.4-.5-2.9-1-4.3-1.5l-.3 1.3c-.5 3.8-.7 7.7-1 11.6-.5 4.8-1.4 9.5-2.6 14.1-1.2 4.3-2.6 8.6-4.2 12.7-1.5 3.7-3.1 7.3-4.6 10.9-2.5 5.8-4.7 11.7-7 17.6-1.8 4.5-3.5 9.1-5.3 13.7-3.4 8.9-7.3 17.5-11 26.3-.6 1.5-1.2 3-1.7 4.6 4.8.5 9.6.9 14.4 1.6 3.9.5 7.9 1.1 11.8 2 3.6.8 7.1 1.9 10.6 3.2 3.2 1.2 6.5 2.4 9.8 3.5 2 .8 4.1 1.5 6.1 2.3l9.4 3.7c2.2.9 4.3 1.8 6.4 2.8l5.2 2.4c.8.4 1.6.7 2.3 1.1 3.4 1.8 6.7 3.7 10 5.5z"/><path d="M171.26 274.37c-2.76-.05-5.5.1-8.25.4-1.7.3-3.5.62-5.2 1.16-.9.28-1.7.6-2.6.9-2.1.5-2.6.8-3.2 1.06-1.6.9-2 1-2.3 1.3-1.5.9-1.8 1.2-2.1 1.5-1.3 1.9-1.7 2.3-2.2 2.8-1 1.4-1.8 2.8-2.6 4.4-.8 2.1-1.6 4.3-2.2 6.6-.4 1.6-.7 3.2-1 4.9-.1 2-.1 4 0 6 .3 1.9.7 3.8 1.3 5.6.5 1.4 1 2.8 1.6 4.3 1.2 2.7 2.6 5.4 4.1 8 1.5 2.5 3.2 4.9 4.9 7.4 3.3 4.8 6.8 9.5 9.6 14.6 2.6 4.8 5 9.7 7 14.8l2.7 6.9 2 6.6c.9 3.5 1.2 4.6 1.4 5.7.4 1.9.8 3.7 1.1 5.6l.8 4.4c.4 2 .9 4 1.6 6 2 1.9 2.8 2.5 3.7 3.1 1.4 1 2.7 2.2 4 3.3 1.7 1.4 3.3 2.9 4.7 4.5 3.2 3.4 6.3 6.9 9.3 10.6 3.3 4.1 6.5 8.2 9.6 12.5 2.7 3.6 5.3 7.2 8 10.7l4.4 5.2c1.1 1.3 2.3 2.5 3.5 3.7 2.3 2.4 4.8 4.6 7.3 6.8 1.5 1.2 3 2.5 4.5 3.7 1.5 1.2 3 2.3 4.5 3.6 2.5 2.1 5.1 4.2 7.6 6.2l5 3.4c8.4 5.8 17 11.1 25.7 16.5 3.2 2 6.4 3.9 9.5 6.1 6.9 5 12.5 9.5 17.5 14.7 3.9 4 7.5 8.3 11 12.7 1.8 2.3 3.6 4.5 5.3 6.8l3.2 4.3c.6.8 1.2 1.5 1.7 2.3 1.4 2.3 2.9 4.5 4.3 6.8l8.5 13.7c1.1 1.7 2.1 3.5 3.2 5.2 1.3 2.9 1.7 3.5 2.1 4.1 1.8 2.8 2.2 3.4 2.6 4 1.7 2.3 2.8 4.1 3.9 5.7l4.7 6.5c1.9 2.4 3.8 4.9 5.8 7.2 2.3 2.6 4.5 5.4 6.9 7.9 5.6 5.6 11.2 11.2 17 16.7 5 4.8 9.8 9.9 14.6 14.9 2.4 2.5 4.7 5.1 7 7.7l4.7 5.3c1.5 1.6 3 3.2 4.7 4.7 1.3 1.2 2.6 2.3 4 3.4 4.3 3.2 8.8 6.2 13.7 8.5l6.5 3.1c3.1 1.5 6.3 2.9 9.5 4.3 3.7 1.4 7.4 2.9 11.1 4.3 2.6.9 5.1 1.8 7.6 2.8l6.9 3.1c1 .4 1.9 1 2.8 1.4l4.2 2.2c.8.4 1.5.9 2.2 1.3 1.5 1 3 1.9 4.4 2.8 2.4 1.5 4.6 3.1 7 4.6l6.1 4.1c4 2.6 8 5 11.9 7.6l5.3 3.5c.5.3 3.5 2.6 9.3 6.8 4 3.1 7.9 6.2 11.5 9.8 5 4.8 9.5 9.9 13.7 15.4 3.9 5.2 7.5 10.8 10.6 16.7l4.4 8.3c1 1.8 1.9 3.6 2.9 5.4l5 8.7c1 1.6 1.9 3.2 2.9 4.8l5.3 8.2 7.8 12c2.7 4.3 5.5 8.5 8.1 12.9l9.7 16.5c2.8 4.8 5.5 9.6 8.2 14.5 5.2 9 10.7 17.9 15.1 27.3 2.1 4.6 4.2 9.2 6.1 13.9 1.2 3 2.4 6.1 3.6 9.1 3.9 9.8 7.7 19.6 11.5 29.5l5.3 11.8 3.5 7.8c.5 1 .9 2.1 1.4 3.1l13.3 25.2c2.7 4.6 4 6.8 5.4 9l8.7 14.4c1.3 2.1 2.5 4.2 3.7 6.4 3.1 5.3 6.2 10.6 9.1 16.1 5.5 10.7 10 21.9 14.7 33 4.3 10.2 8.5 20.4 12.8 30.6 3.2 7.1 6.5 14.2 10 21.1 3.4 6.5 7 13 10.8 19.3 3.9 6.4 8 12.7 12.1 19 1.8 2.6 3.5 5.3 5.3 7.8l20.4 28.2c3.5 4.9 7 9.8 10.4 14.8 1 1.4 1.9 2.9 2.9 4.3 1.6 2.1 3.1 4.2 4.6 6.4 1.7 2.3 3.3 4.7 4.9 7.1 1.26 1.8 2.6 3.5 3.8 5.2 1.3 1.9 2.5 3.7 3.9 5.5 1.6 2.1 3.3 4.3 4.9 6.5 1.25 1.6 2.5 3.2 3.7 4.8 2.6 3.3 5.1 6.5 7.9 9.6-4.95-3.1-9.3-7-13.6-10.9-3.9-3.5-7.5-7.2-11.1-11-4.1-4.4-8-8.8-11.84-13.4-1.4-1.6-2.8-3.2-4.1-4.8l-5.4-6.9c-6.73-8.9-13.2-17.9-19.7-26.9l-10.9-14.5c-1.2-1.6-2.3-3.4-3.44-5.1-2.1-3.1-4.2-6.2-6.2-9.4-4.1-6.3-8.1-12.6-11.8-19.1-3.9-6.8-7.55-13.8-10.95-20.8-1.93-4-3.94-8.1-5.72-12.2l-7.9-18.6c-2.85-6.7-5.73-13.4-8.6-20.2-3.14-7.5-6.34-14.9-10.1-22.1-3.5-6.6-7.2-12.9-11-19.3-3.14-5.4-6.4-10.6-9.6-15.9l-5.7-9.4c-.6-1-1.2-1.9-1.74-2.9l-9-16.96c-1.9-3.5-3.8-7-5.5-10.6l-8.6-19.2c-2-4.4-3.7-9-5.4-13.5-3.8-9.8-7.8-19.6-11.7-29.4-1.6-3.5-3.2-7.07-4.9-10.55-1.8-3.7-3.7-7.4-5.7-11-1.8-3.1-3.6-6.1-5.4-9.15-1.4-2.3-2.7-4.7-4.1-7.02-2.8-4.8-5.5-9.7-8.4-14.4l-10.74-16c-2.6-4.3-5.44-8.5-8.2-12.77-2.6-4-5.2-8-7.83-11.96l-5.6-8.6c-.95-1.5-1.8-3-2.66-4.5l-5.3-9.1c-1-1.7-1.8-3.3-2.7-5l-4.6-8.5c-2.95-5.6-6.44-10.9-10.23-15.9-3-3.8-6.15-7.5-9.6-10.9-3.4-3.4-7-6.6-10.7-9.6l-7.4-5.6c-2.3-1.7-4.7-3.2-7.1-4.8-4.9-3.3-9.9-6.3-14.8-9.6l-8-5.4c-2.6-1.8-5.2-3.4-7.8-5.1-2.5-1.6-5.2-2.9-7.8-4.2-1.1-.6-2.3-1-3.4-1.5l-3-1.3c-5.8-2.1-11.5-4.2-17.3-6.4-3.1-1.2-6.1-2.7-9.2-4-2.6-1.2-5.3-2.5-7.9-3.7-6.2-2.9-11.9-6.6-17.3-10.9-2.9-2.3-5.6-4.7-8.1-7.4-1.4-1.6-2.8-3.1-4.2-4.7-3.6-4.3-7.3-8.5-11.2-12.6-3.5-3.7-7-7.5-10.7-11-2.7-2.6-5.3-5.2-8-7.8-7.3-.4-12.7-1-18-1.8-2.1-.3-4.1-.6-6.2-1.1-1.7-.4-3.4-.9-5-1.5-1.5-.6-3.2-1.2-4.6-2.2-1.6-1.2-3.3-2.5-4.4-4.2-1-1.6-1.5-3.4-1.7-5.3-.2-2.4.3-5 .6-7.4.5-3.5 1.1-6.9 1.8-10.3-6.7.8-13.5.4-20.1-.6-5.3-.8-10.6-1.8-15.7-3.7-3.5-1.3-7.2-2.8-10.2-5.2-.8-.7-1.7-1.3-2.3-2-.7-.8-1.3-1.6-1.9-2.4-1.1-1.5-1.9-3.1-2.6-4.9-1.4-3.9-1.8-8.3-1.8-12.4 0-2.3.1-4.7.3-7 .1-2.7.3-5.4.6-8.1.3-3.3.6-6.7 1.1-10l1.5-8.9c.5-2.6 1.2-5.1 1.8-7.6-2-4.3-4.6-6.1-7.4-7.8-2.2-1.4-4.5-2.7-6.7-4.1-4.7-2.9-9.3-5.8-14-8.7-4-2.6-7.9-5.3-11.8-8-4.1-2.9-7.8-6.1-11.6-9.3-1.7-1.5-3.4-2.8-5.1-4.2-1.9-1.7-3.9-3.3-5.8-5-1.8-1.6-3.6-3.3-5.3-5-1.5-1.5-3-3.1-4.5-4.7-1.6-1.9-3.3-3.8-4.8-5.8-1.7-2.2-3.4-4.3-5-6.5-2.7-3.7-5.5-7.3-8.3-11-3-3.7-6-7.4-9.2-10.9-1.6-1.7-3.2-3.4-4.9-5-1.7-1.6-3.5-3.2-5.3-4.8l-2.2-1.6c-1-.7-2.1-1.5-2.9-2.4-2.6-3.9-3.5-5.8-3.9-7.8-.6-2.5-.9-4.94-1.2-7.5-.3-2.2-.7-4.4-1-6.64-.9-4.2-1.1-5.38-1.4-6.5-.7-2.3-1.3-4.67-2.1-6.9l-2.6-6.8c-2.4-5.5-5.1-10.9-8.3-15.9-2-3-4.1-5.87-6.1-8.8-1.7-2.45-3.5-4.84-5-7.36-2.05-3.4-3.9-6.8-5.5-10.4-1.4-3.2-2.8-6.5-3.5-10-.6-3.4-1.3-7.1-1-10.5.3-3.2.7-6.5 1.6-9.6.6-2.1 1.2-4.3 2-6.3.6-1.6 1.2-3.3 2.1-4.8.8-1.4 1.7-2.7 2.6-4 .9-1.3 1.9-2.6 3.1-3.6 2.4-2.1 5-4.1 7.7-5.6 2.9-1.57 5.9-2.98 9-3.8 5.5-1.6 11.1-2.1 16.8-2.1 2.8 0 5.5.1 8.1.3 2.9.2 5.8.45 8.6.8 2.8.3 5.6.64 8.3 1.33 1.7.4 3.3.9 5 1.4 2.6.7 5.1 1.5 7.6 2.4 2.6.9 5.2 1.7 7.7 2.8 4.7 2 9.37 4.03 13.86 6.5 1.6.83 3.2 1.7 4.8 2.6.84.43 1.7 1.02 2.5 1.54 3.9 2.5 7.8 4.9 11.3 7.8 3 2.5 5.9 5.14 8.2 8.4.9 1.2 1.6 2.4 2.3 3.8.7 1.4 1.5 3.1 1.8 4.6.67 3.04 1.27 6.23.6 9.33l4.28 1.8c2.4 1 4.8 2 7.1 3.2 4.7 2.3 9.4 4.6 13.9 7.2 2.5 1.46 5.1 2.9 7.6 4.43l8 5c2.4 1.5 4.8 3.2 7.13 4.7 1.9 1.22 3.9 2.5 5.8 3.7 2.8 1.7 5.8 3.2 8.8 4.5 1.48.6 2.9 1.1 4.4 1.5 1.2.3 2.4.5 3.67.7 2.1.2 4.2.4 6.2.3 2.3-.1 4.5-.3 6.7-.5l10.1-1.2c.7-1.9 1.4-3.8 2.2-5.7 1.8-4 3.6-8 5.6-11.9.9-1.7 1.8-3.3 2.8-4.8-3.7 1.4-6.5 2.2-9.3 3.1-2.5.86-5.2 1.5-7.8 2.2-2.1.6-4.3 1.2-6.4 1.7-4 1-8.03 1.7-12.1 2.2-4 .58-8.04.9-12.1.6-1.4 0-2.8-.2-4.2-.4-1.5 1.4-2.7 1.5-3.9 1.5-1 0-2-.4-3-.7l-2.54-.8 4.77-.1c0-.8-1.4-1.3-2.8-2-2-1-3.9-2.6-4.9-4.6-1.8-3.2-2.4-4.1-3-5.1-1.5-2.2-2.9-4.5-4.3-6.7-1.6-2.3-3.1-4.6-4.6-7-1-1.5-1.9-3-2.8-4.5-.5-.9-1.1-1.8-1.6-2.8.8-2.7 1.1-4 1.4-5.3.5-2.1 1.1-4.1 1.5-6.2 2.5-2.6 3.9-1.6 5.1-.3.8.9 1.4 2 2.1 3 4.4 5.4 8.6 10.9 12.4 16.7 2.4 3.7 4.7 7.53 6.3 11.63 6.7.9 11.4.75 16.1.2 5.6-.8 11-2.15 16.5-3.5 2.64-.7 5.3-1.3 7.92-2.1 6.1-1.8 12.2-3.7 18.1-6.1 2.2-.95 4.4-2 6.42-3.4 2.5-2.9 3.2-4 3.7-5.2-1.8-3-2.2-4.5-2.6-6-.2-1.3-.5-2.5-.8-3.8l-2.1-8.9c-.6-2.7-1.1-5.5-1.7-8.23l-2-7.7-1.5-7.38c-.3-1.38-.52-2.7-.8-4-.4-1.8-.9-3.5-1.2-5.3-.2-1.1-.45-2.2-.5-3.4.2-5.4 1.8-7.7 4.48-8.5 3.6-.2 5.77.9 6.7 2.7 1.7 3.5 2.9 7.2 4.3 10.9.7 2.1 1.6 4.2 2.4 6.28l2.6 6.85c1.9 4.8 3.7 9.6 4.8 14.6.8 3.5 1.5 7.1 1.48 10.7 0 1.4-.1 2.9-.2 4.3 3.1 1 6.24 1.9 9.4 3 2.2.7 4.4 1.5 6.6 2.1 4.9 1.6 9.8 3.2 14.7 4.6 3.5 1 6.95 2.1 10.45 3l3.76-2.7c.9-.7 1.8-1.4 2.6-2.2-.7-.8-1.3-1.7-2-2.5-1.5-2-2.8-4.1-3.8-6.5-1.3-3.1-2.15-6.3-2.7-9.6l-.65-4.1c-.9-5.1-1.3-10.3-1.9-15.4l-.6-4c-.2-1.9-.6-3.8-.6-5.6 0-1.5 0-2.9.1-4.3.1-1.8.3-3.6.5-5.4.2-1.8.4-3.7.8-5.5.4-1.8.9-3.6 1.4-5.4l1.2-4.1c.5-1.7 1-3.3 1.6-5-4.8-.4-9.2-1-13.2-2.4-4.4-1.5-8.5-3.7-12-6.8-3.1-2.7-5.7-6.2-7.9-9.7l-6-8c-1.5-2.3-2.7-4.8-3.8-7.3-4.2-.3-7-.3-9.7-.3l-8.2-.3c-4.9-.2-9.8-.5-14.6-1.2-2.6 1.1-5.2 2.2-7.9 3.1-3.9 1.3-8 2.1-12 2.5-5 .6-9.9.8-14.9.7 4.6-2.4 9.3-4.5 14.1-6.3 2.9-1.1 5.8-2.1 8.8-3-4.7-1.9-7.7-3.6-10.6-5.8-1.9-1.4-3.6-2.9-5.3-4.6-2.9.5-4.7.3-6.4.1l-2.9-.3c-4.7-.5-9.1-2-13.5-3.5 4.2 0 8.4 0 12.6-.4l2.9-.4 2.9-.4c-2.1-2.6-3.9-5.4-5.6-8.3-1.8-2.9-3.4-5.9-5.1-8.9-1.3-2.3-2.3-4.9-3.5-7.3-1.2-2.5-2.1-5.1-3.2-7.7-.9-2.1-1.8-4.1-1.5-6.3 1.2-3.5 1.5-4 1.8-4.4.8-.8 1.7-1.3 2.7-1.6 2.6-.7 5.6.4 6.9 2.8 1.7 2.93 3 6.1 4.4 9.2.8 1.8 1.7 3.6 2.5 5.43 1.6 3.6 3.3 7.1 4.9 10.7l1.3 3.07c1.4 2.6 3 5.1 4.8 7.5 1.9 2.4 4 4.5 6.3 6.4 2.2 1.6 4.6 2.9 7.1 4 3.6 1.4 7.3 2.3 11.1 2.9 5.2.6 10.5.8 15.75.93 2.3.05 4.6.1 6.9.1 1.4-1.3.9-2.7.6-4.1-.3-1.1-.4-2.3-.7-3.5-.6-2.1-.9-2.9-1.1-3.7-1.3-4-2.3-8.15-3.1-12.3-1-4.1-1.7-7.4-2.4-10.8l-1.5-8-.9-4.8c-.4-2-.8-4.1-1-6.1-.1-4 0-5.17.2-6.3.3-1.5 1.6-2.9 2.8-3.6 1-.5 2-.8 3.1-.8 4.2 1 5.9 3.3 6 6l.3 4.1c.6 3.6 1.3 7.14 2 10.7l.9 4.8 1.2 5.5c1.5 7 3 14.1 5.53 20.8.9 2.5 1.8 5 2.76 7.4.4 1.1.8 2.14 1 3.3.8 2.2 1.5 4 2.2 5.8 1.3 2.9 2.5 5.8 4.1 8.5 2.4 4.2 4.8 8.5 7.6 12.4 1.2 1.5 2.4 2.8 3.9 4 1.4 1.02 2.9 1.9 4.4 2.62 2.8 1 5.7 1.6 8.6 2.1 2.3.2 4.5.3 6.7.1.9-.2 1.7-.4 2.5-.66 1.7-.7 3.3-1.1 5.2-.6 1.3.2 2.5 1 3.4 1.9 1.3 1.3 2.1 3.3 1.9 5.1 0 1.2-.3 2.3-.9 3.3-1.7 3.3-2.8 5.3-3.8 7.4-.7 1.8-1.2 3.7-1.7 5.5-.3 1.2-.8 2.3-1.1 3.4-.46 1.5-.8 3-1.2 4.5-.66 4.1-.8 5.3-.9 6.6-.2 4.56-.1 6.2.1 7.86.5 3.4 1.1 6.9 1.4 10.4.3 3.1.7 6.2 1.1 9.4.5 3.8 1 7.7 2.4 11.4.6 1.2 1.3 2.5 2.1 3.6.6.8 1.3 1.5 2 2.2 1.7 1.1 2.3 1.6 2.9 2.1.8.6 1.9 2.6 2.1 3.5.3 6-2.3 9.2-4.9 11.4-3.6 3-6.65 5-9.8 6.9-4.7 2.9-9.3 5.8-13.7 9.1-2.5 1.9-5 4-7.3 6.2l-5 4.7c-2.2 2.05-4.3 4.3-6.44 6.4 3.1.15 6.2.4 9.3.6-3.14.8-6.3 1.7-9.43 2.5l-4.1 1.1c-1.3 1.2-2.6 2.5-3.8 3.7-2.6 2.7-5.2 5.3-7.9 7.9 1.9-3.4 3.8-6.8 5.9-10.2-7.1 1.8-14.3 3.6-21.4 5.2-4.5 1-8.9 2.1-13.4 3.05-2.9.6-5.9 1.3-8.9 1.8-3.3.6-6.6 1.2-9.9 1.6-3.3.36-6.7.75-10 .66-2.3-.1-4.5-.2-6.7-.5-1.6-.2-3.3-.4-4.9-.8-3.4-.8-6.7-2.1-9.9-3.6s-6.3-3.2-9.3-5.1c-1.46-.9-2.9-1.8-4.3-2.8-2.4-1.6-4.76-3.2-7.2-4.7l-7.53-4.8c-4-2.6-8.3-4.9-12.6-7.2-2.5-1.3-5-2.56-7.5-3.8-1.7-.8-3.5-1.6-5.3-2.35-2.8-1.1-5.7-2.2-8.6-3.3-1.6-.6-3.2-1.2-4.7-2-2.74-2.3-3.3-3.3-3.65-4.4-4.25-.6-7.8.2-11.4 1-3.7.8-7.4 1.5-11.1 2.5-2.5.7-5 1.5-7.42 2.5.45-1 1.8-2.1 3.1-3.1 2.35-1.9 4.93-3.6 7.7-4.8 2.3-1 4.72-2.1 7.23-2.5 1.9-.4 3.9-.6 5.9-.6 2.6.1 4.3.2 6.1.6 1-1.8 1.4-2.4 1.8-3-.3-2.7-.6-3.8-1-4.9-.4-.9-.9-1.7-1.4-2.5-2.1-2.5-4.4-4.7-7-6.7-3.1-2.3-6.4-4.4-9.7-6.5-2.1-1.4-4.4-2.5-6.6-3.7-2.2-1.2-4.4-2.2-6.6-3.3-1.6-.8-3.2-1.5-4.8-2.2-5.6-2-11.1-4-16.8-5.4 1.7 1.2 3.3 2.5 4.9 3.9 1.9 1.6 3.8 3.1 5.7 4.7 1 .8 2 1.6 2.9 2.4 2.33 2.1 4.42 4.3 6.23 6.9 1.5 2.1 2.83 4.4 4.22 6.6.6 1 1.2 1.96 1.8 2.9 1 1.6 1.9 3.1 2.4 4.86.6 2.1 0 4.6-1.6 6.1-1.2 1.1-2.9 2.3-4.6 2.1-.7-.1-1.4-.2-2.2-.4-3.2-.4-5.5-.3-7.9 0-2 .3-4 .9-5.9 1.6-1.2.6-2.5 1.2-3.7 1.9-1.4.9-2.8 1.8-4.1 2.8-2.7 2.3-5.3 4.7-7.8 7.3-2.4 2.56-4.7 5.2-6.9 7.9-2.3 3.07-4.3 6.3-6.4 9.5-.8 1.3-1.6 2.6-2.5 3.8-.9 1.1-1.9 2.1-3 2.94.64-1 1.16-1.9 1.64-2.9.6-1.6 1-3.2 1.5-4.9.5-1.7 1.1-3.4 1.6-5.1 1.2-3.4 2.6-6.6 4.4-9.7 1.9-3.1 3.9-6.1 6.2-8.9 2-2.4 4.1-4.8 6.5-6.8 2.8-2.3 5.8-4.35 9.05-5.9 3.1-1.5 6.3-2.6 9.7-3.3-1.1-2.6-2.5-5.1-4.2-7.5-1.5-1.8-3.2-3.5-4.9-5.2-1-1.1-2.1-2.1-3-3.2l-3.6-4c-2.2-2.5-4.7-4.8-7.3-6.87-2.7-2.1-5.7-3.8-8.8-5.2-2.1-.7-2.5-.7-2.9-.7zm168.5 315.7c-.02 1.35-.1 2.7-.12 4.04-.05 1.9-.2 3.8-.13 5.7l.3 1.1c.1.2.2.4.4.6.6.6 1.2 1.2 1.8 1.7 2.3 1.6 4.8 2.8 7.4 3.9 3.9 1.6 7.7 3.1 11.5 4.8 2.4 1 4.8 2.1 7.1 3.1l-2-1.9-5.9-5.9c-1.5-1.5-2.9-3.2-4.3-4.9-1.6-1.9-3.2-3.7-4.7-5.6-1.8-2.3-3.8-4.5-5.5-6.9l-5.5-7.7-.1-.2c.2 2.9.2 5.7.1 8.6zm-11.33-27.1c-2.68-4.42-5.3-8.9-8.07-13.24l-2.86-4.5c-.5-.8-.98-1.63-1.54-2.4l-4.4-5.98c-2.24-2.82-4.47-5.65-6.77-8.42-3-3.53-6-6.97-9.3-10.16-2.5-2.4-5.1-4.67-7.8-6.84v4.9c0 3.83.3 7.67.4 11.5.1 3.43.3 6.86.5 10.28.2 6 .1 12 .8 17.9.2 1.6.6 3.1 1.1 4.6.4.8.8 1.5 1.3 2.1.5.7 1.1 1.3 1.7 1.8 2.5 1.8 5.3 3.3 8.2 4.5 3.2 1.4 6.5 2.6 9.8 3.7 1.9.6 3.7 1.1 5.6 1.7 1.6.5 3.3.8 5 1.2 2.8.7 5.7 1.2 8.6 1.6.9.1 1.8.1 2.7.1l.8-3.8c-2.1-3.4-4-6.9-6.1-10.3zm46.52-235.47c-1.92 3.35-4.07 6.53-6.38 9.62-2.58 3.46-5.28 6.77-8.18 9.96l-2.5 2.75c4.4-.64 8.9-1.22 13.4-1.67 5.6-.57 11.2-.95 16.8-1.18 5.4-.22 10.8-.25 16.3-.2h.8c2.2-3.5 4.5-6.97 6.7-10.45 1.4-2.23 3.1-4.37 4.6-6.53 3.3-4.57 7.1-8.83 11.3-12.6 1.2-1.1 2.5-2.15 3.8-3.2-3.3-.15-6.6-.42-9.9-.67-3.9-.3-7.8-.94-11.7-1.46-2.6-.35-5.1-.83-7.7-1.3-3.1-.56-6.3-1.05-9.3-1.8-.5 1.17-1.1 2.33-1.8 3.4-1.8 2.75-3.9 5.32-6.7 7.15-2.4 1.58-5 2.9-7.6 4.07l-2.3 4.1zM455.9 53.1c1.75 0 3.37.17 4.97.44 1.9.32 3.58.87 5.33 1.67 4.43 2.1 8.14 5.3 11.9 8.3 1.9 1.6 3.7 3.2 5.52 4.8 2.02 1.8 4.1 3.5 6.06 5.4 4.1 3.9 8.26 7.8 12.42 11.7 2.1 2 4.16 4 6.23 6 1.8 1.8 3.48 3.7 5.27 5.5 1.82 1.8 3.63 3.6 5.47 5.4 3.66 3.6 7.3 7.1 10.38 11.1 2.4 3.2 4.58 6.5 6.8 9.7 1.4 2.1 2.83 4.1 4.2 6.1 1.5 2.3 2.9 4.6 4.5 6.8l4.4 6 4.76 5.8c3.7 4.5 7.8 8.6 12.3 12.2 3.4 2.5 6.9 4.8 10.4 7.2 2.2 1.5 4.3 3 6.5 4.6 4.6 3.4 9.2 6.9 13.3 11 5.2 5.1 9.7 11 12.6 17.8 1.6 3.8 3 7.6 4.1 11.6.4 1.4.8 2.8 1.1 4.3 1.3 5.2 2.3 10.6 3.6 15.9.7 2.7 1.6 5.4 2.5 8.1.9 2.5 1.8 5 2.6 7.5l-3.3-4.7c-1-1.4-2-2.7-3-4.2-1.1-1.8-2.1-3.6-3.1-5.4-.8-1.6-1.5-3.2-2.3-4.8-1.5-3.1-2.9-6.3-4.3-9.4-3.1-6.7-6.3-13.2-10.7-19.1-5.1-6.3-11.4-11.4-17.7-16.5-2.4-1.8-4.6-3.4-6.9-5-3.6-2.4-7.2-4.7-10.6-7.3-5.7-4.2-11-9-15.6-14.5-2.1-2.6-4.3-5.1-6.3-7.7l-5-6.7c-1.6-2.2-3-4.5-4.5-6.7l-4.2-6.1c-2-2.9-4-6-6.2-8.9-1.8-2.2-3.7-4.2-5.8-6.2-4.2-4-8.4-8.1-12.5-12.3-3.5-3.5-7.2-6.9-10.9-10.2-4.1-3.8-8.1-7.6-12.4-11.3-2.1-1.9-4.3-3.7-6.5-5.6l-5.1-4.2c-1.7-1.2-3.5-2.4-5.4-3.4-.7-.2-1.5-.4-2.3-.6-3.5-.3-7-.1-10.5-.1-2.9 0-5.9 0-8.8.1-3.1.1-6.3.2-9.5.4-3 .2-6.1.5-9.2.8-3.9.6-7.9 1.2-11.9 1.9-4.5.7-8.9 1.5-13.4 2.3-8.9 1.5-17.8 2.9-26.6 5-3.1.7-6.2 1.5-9.3 2.2-2.9.7-5.8 1.5-8.7 2.3-4.7 1.3-9.2 2.7-13.9 4-5.5 1.6-11.1 3.2-16.7 4.6-2.4.6-4.7 1.2-7 1.9l-9.9 2.9c-2.3.7-4.6 1.6-6.9 2.4-2.2.8-4.4 1.5-6.5 2.4-5.1 1.9-10.3 4-15.5 5.8-5.6 1.9-11.3 3.9-16.9 5.9-2.1.8-4.2 1.5-6.2 2.3-2.6 1.1-5.2 2.1-7.9 3.1l-11.1 4.8 1.4-.6c-2.7 1.3-5.5 2.4-8.2 3.8-2.3 1.2-4.5 2.5-6.6 4-.5.4-.9.8-1.4 1.3l-.4.7-.3 1.4c.2 1.3.4 2 .6 2.7.9 1.6 1.8 3.3 2.9 4.8 2.2 2.6 4.9 4.8 7.5 7.1 2 1.8 4.1 3.5 6.2 5.2-4.3-1.6-8.6-3.4-12.7-5.5-2.1-1.1-4.1-2.3-5.8-3.8-1-.9-1.9-1.9-2.7-2.8-.8-1-1.7-2.1-2.3-3.2-.7-1.5-1.2-2.8-1.4-4.4-.1-1.4-.1-2.8.2-4.2.6-2.5 2-4.6 3.7-6.4 5.8-5.9 13.1-9.9 20.3-13.6 2.2-1.2 4.3-2.3 6.5-3.2l6.5-2.7c5.2-2.1 10.5-3.8 15.8-5.5 4.6-1.5 9.2-2.9 13.7-4.6l15.6-5.7 5.9-2c.9-.3 1.8-.7 2.7-.9l8.8-2.5c4.7-1.4 9.4-2.4 14.1-3.7l16.1-4.5c10.7-3.1 21.5-6 32.4-8.3 5.1-1.2 10.2-2 15.3-3 5.3-.9 10.6-2 16-2.9 5.4-1 10.8-2 16.3-2.9 2.9-.5 5.9-.8 8.9-1.1 2.8-.2 5.6-.5 8.4-.7l16.3-.6h4.5zm175.8 143.53c.8-.03 1.62-.12 2.42-.12l7.16.3c2.14.1 4.26.3 6.38.6 2.53.3 5.1.8 7.52 1.5 2.74.9 5.5 1.9 8 3.3 2.16 1.2 4.16 2.5 6.08 4 3.46 2.7 6.64 5.8 9.44 9.2 1.55 1.9 3.18 3.7 4.56 5.7 1.24 1.8 2.48 3.5 3.6 5.4l3.44 5.7c1.13 1.9 2.26 3.8 3.36 5.7 1 1.7 2.08 3.4 2.96 5.2 1.13 2.3 2.37 4.5 3.4 6.9l3.06 6.9c1.9 4.3 3.36 8.7 4.95 13.1.96 2.7 1.77 5.4 2.65 8 .64 2 1.2 3.9 1.77 5.9 1.58 5.5 3.07 11 4.54 16.6 1.3 5 2.8 10 4.3 15 1.3 4.5 2.4 9.1 3.6 13.6 1.3 4.9 2.6 9.7 3.8 14.6l2.6 10.4c.4 1.6.8 3.1 1.1 4.8 1 5.1 2.2 10.1 3.1 15.2.9 5.4 1.8 10.8 2.8 16.1l1.7 9.4.9 4.8c1.1 4.8 1.7 7.6 2.4 10.3l1.2 5c2.2 7.3 3.8 12.4 5.4 17.5.7 2.2 1.6 4.3 2.4 6.5l3.6 9.5c3.3 9 6.7 18 10 27 1.7 4.7 3.3 9.5 5.2 14.2l6.4 15.6c4.7 10.8 9.5 21.7 14.3 32.5 1.2 2.7 2.2 5.4 3.3 8.2l3.1 7.8 6.8 16.9c2.8 6.8 5.7 13.6 9.3 20 3.6 6.5 7.6 12.7 12.1 18.6 7.6 9.7 16.2 18.6 24.5 27.7.7.7 1.3 1.6 1.9 2.4l5.3 6.6 7.2 8.8 11.4 14.1c1.4 1.7 2.6 3.4 4 5l3.6 4L898 697c3.1 3.5 6.36 6.9 9.55 10.34l7.12 7.67c.7.8 1.4 1.5 2.07 2.3 4.35 5.3 8.7 10.6 13.07 15.9 6.6 8 13.2 15.9 19.9 23.9l2.7 3 6.9 7.5c3.4 3.7 6.7 7.4 10.1 11l12.3 13.2c2.8 3 5.6 5.8 8.2 8.9l13.4 15.4c2.3 2.7 4.6 5.3 6.8 8l13.6 16.6c2.3 2.7 4.5 5.4 6.7 8.1 6.5 8.4 13.1 16.7 19.6 25.1l13.2 17.1 6.3 8.1c14.2 17.3 28.3 34.7 42.5 51.9 1.1 1.4 2.1 2.8 3.1 4.2l5.8 7.8 11.9 16c2 2.8 3.9 5.6 5.8 8.5l12.2 18 17.9 26.2c6 8.8 11.7 17.7 17.5 26.5 2.2 3.3 4.1 6.7 6.1 10.1 2.7 4.6 5.4 9.2 8.2 13.8 3.2 5.4 6.5 10.8 9.7 16.2 2.6 4.4 5.3 8.7 7.9 13.1 2.5 4.4 5.2 8.7 7.8 13 2.7 4.5 5.5 9 8.2 13.4 2.5 4.1 5 8.1 7.4 12.3 1.2 2.1 2.4 4.1 3.7 6 1.5 2.2 2.9 4.4 4 6.8-1-1.1-2-2.2-3-3.2-.9-.8-1.8-1.6-2.6-2.5-1.5-1.6-3.1-3.3-4.6-5-3.1-3.6-6.1-7.3-9-11-6.4-8.1-12.6-16.3-18.2-24.9-2.9-4.3-5.8-8.7-8.4-13.1l-9.7-16.4-7.8-13.2c-2-3.5-4-6.9-6.2-10.3-5.7-8.8-11.4-17.7-17.4-26.4l-17.8-26.2-12.1-17.8c-2-2.9-3.9-5.9-6-8.8l-20.1-26.8c-10.9-13.1-21.8-26.3-32.7-39.5-4.8-5.8-9.6-11.5-14.3-17.5-5.6-7.2-11.2-14.5-16.9-21.7l-11.2-14c-2.8-3.5-5.5-7.2-8.4-10.6l-11.5-13.8-6.8-8.3c-.8-1-1.6-2-2.5-2.9l-11.4-13c-2.8-3.2-5.4-6.4-8.3-9.5-7-7.5-14.2-14.9-21.2-22.5l-14.9-16c-1-1.1-2.1-2.1-3-3.3l-4.3-5c-7.4-8.7-14.8-17.5-22.1-26.2l-6.6-7.9c-.6-.8-1.3-1.6-2-2.3l-14-14.9c-6.8-7.3-13.3-14.8-19.9-22.2-1.2-1.4-2.4-2.9-3.5-4.4l-6.9-8.5-7.8-9.6-11.6-14.3-4.3-4.8-7.3-7.9c-7.4-8-14.6-16.2-20.5-25.3-4.3-6.5-8.1-13.1-11.3-20.2-2-4.5-4.1-9.1-5.9-13.7-4-10-8-20.1-12.1-30.2l-8.7-19.6-5.7-12.9c-1.6-3.6-3-7.2-4.5-10.8l-3.5-8.4c-.6-1.5-1.2-3.2-1.8-4.8-1.8-5-3.6-9.9-5.5-14.8L741 443c-1.77-4.7-3.25-9.5-4.8-14.3-.57-1.8-1.2-3.5-1.65-5.3l-2.6-9.8c-.4-1.8-1-3.7-1.3-5.5l-1.8-9.5c-.9-4.8-1.8-9.6-2.64-14.4-.53-3-1.1-6.1-1.6-9.1-.4-2-.83-3.9-1.24-5.9l-1.96-9.2c-.5-2.2-1.2-4.4-1.8-6.7-2.8-10.5-5.7-21-8.7-31.5-1.4-5.1-3-10.2-4.6-15.3-1.3-4.4-2.4-8.9-3.7-13.3l-2.8-9.3c-.6-2.1-1.4-4.2-2.1-6.3-1.6-4.7-3.4-9.4-5.1-14.1-1.6-3.6-3.2-7.1-5-10.6-.9-1.7-1.7-3.4-2.7-5.1-1.1-1.9-2.1-3.7-3.2-5.6l-3.4-5.6c-1-1.7-2-3.4-3.1-5.1l-1.6-2.4c-.5-.8-1-1.6-1.6-2.4-1.1-1.4-2.2-2.9-3.3-4.3-2.8-3.4-5.7-6.8-9.1-9.6-2.7-2-5.6-3.6-8.7-5-4.4-1.7-8.9-2.9-13.5-4.1-1.2-.3-2.3-.7-3.5-.9l-4.3-.9c-1.2-.3-2.4-.6-3.6-.8l-3.7-.6-10.2-1.7c2.9-.5 5.9-.9 8.8-1.3 2.1-.3 4.2-.7 6.3-.8 1.7-.1 3.4-.2 5-.2zm.5-76.23v.02c5.7 1.55 11.4 3.17 16.88 5.44 5.8 2.52 11.4 5.5 16.94 8.53 5.52 3 10.82 6.3 15.84 10.1 9.45 7.4 18.35 15.4 27.07 23.7 4.22 4 8.44 8 12.42 12.2 4 4.2 7.68 8.8 11.28 13.4 3.4 4.4 6.58 9 9.9 13.5 2 2.7 3.95 5.4 5.9 8.1 3.48 4.9 6.6 10.1 10.47 14.7 0 0 .02 0 .02-.1-2.25-4.9-4.28-9.8-6.55-14.7-2.4-5.1-4.92-10.2-7.5-15.2-1.7-3.4-3.35-6.8-5.15-10.1-1.88-3.5-3.96-6.9-6.1-10.2-4.22-6.5-9.25-12.4-14.65-18-5.48-5.7-10.9-11.4-16.78-16.6-3-2.7-6.1-5.1-9.3-7.5-3.2-2.5-6.6-4.7-10.1-6.6-3.9-2.2-8.2-3.9-12.3-5.4-4.1-1.5-8.3-2.7-12.5-3.7-4.2-1.1-8.4-1.8-12.7-2.1-1.7-.1-3.3-.2-5-.2-2.8 0-5.5.1-8.3.3M53 52.4c-3.2.46-6.2 1.7-9.1 3.05-5.6 2.66-9.6 7.4-13.23 12.23-3.44 4.56-6 9.64-7.84 15.04-2 5.7-3.1 11.7-4.2 17.63 0 .03 0 .04 0 0 3.74-5.94 7.4-12 11.64-17.64 1.98-2.5 4.1-4.8 6.3-7 2.3-2.3 4.68-4.5 7.17-6.5 1.9-1.4 3.86-2.5 5.95-3.4 3.3-1.3 6.6-2.1 10.1-2.6 6.1-.7 12.3-.6 18.5.1 4 .6 7.9 1.4 11.9 2.5 2.6.8 5.1 1.7 7.6 2.5 3 1 5.9 2.1 8.9 3.3-3.4-3-7.1-5.7-10.8-8.3-10-6.9-21.8-11.3-34.1-11.7H61c-2.7 0-5.38.3-8.04.8m.5-48.3C47 6.4 40.7 9.6 35.1 13.6c-5.9 4.2-11.2 9.3-15.9 14.82-2.23 2.64-4.3 5.42-6.2 8.32-2 3.03-3.64 6.27-5.2 9.53-1.4 2.9-2.65 5.9-3.9 8.8-1.4 3.4-2.44 6.8-3.54 10.2 0 0 .02.04.02 0 1.32-1.6 2.6-3.2 3.9-4.85 1.5-1.85 3.1-3.6 4.64-5.4 3-3.4 5.9-6.78 9-10.03 6.3-6.7 13.4-12.3 20.6-17.9 4-3.1 8.1-6 12.2-8.8 4.36-3 8.9-5.6 13.7-7.7 4.3-1.8 8.7-3.1 13.3-3.9l6.48-1.2c4.32-.7 8.63-1.5 12.94-2.3-4.9-.8-9.84-1.3-14.8-1.8-2.77-.3-5.57-.5-8.36-.6h-1.8C65.86.8 59.48 1.9 53.52 4m162.66 546.4c.9 4.95 2.02 9.8 3.33 14.67.7 2.63 1.6 5.18 2.6 7.7 1.9 4.95 4.3 9.74 7.1 14.17 2.8 4.2 6.3 7.9 10.3 11.1 4.1 3.3 8.9 5.6 13.7 7.7 3.3 1.4 6.7 2.9 10.3 3.8v-.1l-1-.8v.03c-1.9-1.6-3.7-3.2-5.5-4.9-4.6-4.2-9.1-8.3-13-13.2-3.4-4.5-6.5-9.4-9.7-14.2-2.7-4.1-5.6-8.2-8.3-12.3-3-4.7-6.2-9.3-9.5-13.8zm-8.37 11.7c.7 7.56 1.9 15.33 4.6 22.44 1.1 2.9 2.7 5.7 4.3 8.4 1.7 2.8 3.6 5.5 5.6 8.1 0 0 .1 0 0 0-.5-3.2-1.2-6.38-1.9-9.56-.6-2.9-1.5-5.7-2.3-8.6-2.1-7.47-5.9-14.5-10.2-20.87"/></g></g></svg>