<svg xmlns="http://www.w3.org/2000/svg" width="841" height="193" viewBox="0 0 841 193">
  <path fill="#FFF" fill-rule="evenodd" d="M220,124.953843 L281.152777,124.953843 L281.152777,196.650203 L338.351711,196.650203 L338.351711,124.953843 L399.504488,124.953843 L399.504488,309.730122 L338.351711,309.730122 L338.351711,243.041964 L281.152777,243.041964 L281.152777,309.730122 L220,309.730122 L220,124.953843 Z M425.863443,124.953843 L582.17205,124.953843 L582.17205,171.345605 L487.01622,171.345605 L487.01622,194.014307 L573.473595,194.014307 L573.473595,240.406069 L487.01622,240.406069 L487.01622,263.33836 L584.544356,263.33836 L584.544356,309.730122 L425.863443,309.730122 L425.863443,124.953843 Z M713.176059,124.953843 L774.328836,124.953843 L774.328836,258.857338 L851.296987,258.857338 L851.296987,309.730122 L713.176059,309.730122 L713.176059,124.953843 Z M940.522051,177.803549 C934.459461,181.757412 929.627034,187.160944 926.024626,194.014307 C922.422217,200.86767 920.62104,208.599553 920.62104,217.210188 C920.62104,225.820823 922.422217,233.596637 926.024626,240.537864 C929.627034,247.47909 934.459461,252.970484 940.522051,257.012211 C946.584641,261.053938 953.130383,263.074771 960.159473,263.074771 C967.188563,263.074771 973.602512,261.097869 979.401511,257.144006 C985.20051,253.190143 989.76935,247.698748 993.108168,240.669658 C996.446986,233.640568 998.116369,225.820823 998.116369,217.210188 C998.116369,208.599553 996.446986,200.823739 993.108168,193.882512 C989.76935,186.941286 985.20051,181.537754 979.401511,177.671755 C973.602512,173.805755 967.188563,171.872784 960.159473,171.872784 C953.130383,171.872784 946.584641,173.849686 940.522051,177.803549 Z M1011.55944,133.388709 C1027.02343,141.64789 1039.1045,153.06999 1047.803,167.655351 C1056.5015,182.240713 1060.85068,198.670964 1060.85068,216.946598 C1060.85068,235.39796 1056.5015,252.003936 1047.803,266.765024 C1039.1045,281.526113 1027.02343,293.080007 1011.55944,301.427051 C996.095439,309.774095 978.698702,313.947555 959.368705,313.947555 C940.038707,313.947555 922.64197,309.774095 907.177973,301.427051 C891.713975,293.080007 879.632907,281.526113 870.934409,266.765024 C862.23591,252.003936 857.886726,235.39796 857.886726,216.946598 C857.886726,198.495237 862.23591,181.977124 870.934409,167.391762 C879.632907,152.8064 891.713975,141.428231 907.177973,133.256914 C922.64197,125.085597 940.038707,121 959.368705,121 C978.698702,121 996.095439,125.129528 1011.55944,133.388709 Z M785.619256,124.660966 L823.574374,124.660966 L823.574374,204.18277 L851.596527,204.18277 L851.596527,235.478605 L785.619256,235.478605 L785.619256,124.660966 Z" transform="translate(-220 -121)"/>
</svg>
