<?xml version="1.0" encoding="UTF-8"?>
<svg width="271px" height="71px" viewBox="0 0 271 71" version="1.1" xmlns="http://www.w3.org/2000/svg" xmlns:xlink="http://www.w3.org/1999/xlink">
    <!-- Generator: Sketch 46.1 (44463) - http://www.bohemiancoding.com/sketch -->
    <title>Group</title>
    <desc>Created with Sketch.</desc>
    <defs></defs>
    <g id="Frontpage" stroke="none" stroke-width="1" fill="none" fill-rule="evenodd">
        <g id="iPhone-SE" transform="translate(-25.000000, -90.000000)" fill="#FFFFFF">
            <g id="Group" transform="translate(25.000000, 90.000000)">
                <polygon id="Path" points="0 1 22.4845815 1 22.4845815 27.3851641 43.5154185 27.3851641 43.5154185 1 66 1 66 69 43.5154185 69 43.5154185 44.4579173 22.4845815 44.4579173 22.4845815 69 0 69"></polygon>
                <polygon id="Path" points="75 1 133.11794 1 133.11794 18.0727532 97.7375415 18.0727532 97.7375415 26.4151213 129.883721 26.4151213 129.883721 43.4878745 97.7375415 43.4878745 97.7375415 51.9272468 134 51.9272468 134 69 75 69"></polygon>
                <polygon id="Path" points="143 1 165.580153 1 165.580153 50.278174 194 50.278174 194 69 143 69"></polygon>
                <path d="M252.785714,4.55874317 C258.500029,7.59792048 262.96427,11.800975 266.178571,17.1680328 C269.392873,22.5350906 271,28.5810228 271,35.3060109 C271,42.0956624 269.392873,48.206257 266.178571,53.6379781 C262.96427,59.0696993 258.500029,63.3212506 252.785714,66.3927596 C247.0714,69.4642685 240.642893,71 233.5,71 C226.357107,71 219.9286,69.4642685 214.214286,66.3927596 C208.499971,63.3212506 204.03573,59.0696993 200.821429,53.6379781 C197.607127,48.206257 196,42.0956624 196,35.3060109 C196,28.5163595 197.607127,22.4380961 200.821429,17.0710383 C204.03573,11.7039805 208.499971,7.51709154 214.214286,4.5102459 C219.9286,1.50340027 226.357107,0 233.5,0 C240.642893,0 247.0714,1.51956586 252.785714,4.55874317 Z M227.447279,21.2109827 C225.17856,22.6849785 223.370188,24.6994092 222.022109,27.2543353 C220.67403,29.8092613 220,32.6916988 220,35.9017341 C220,39.1117694 220.67403,42.0105844 222.022109,44.5982659 C223.370188,47.1859474 225.17856,49.2331331 227.447279,50.7398844 C229.715998,52.2466357 232.16552,53 234.795918,53 C237.426317,53 239.82652,52.2630132 241.996599,50.7890173 C244.166678,49.3150215 245.876411,47.2678358 247.12585,44.6473988 C248.37529,42.0269618 249,39.1117694 249,35.9017341 C249,32.6916988 248.37529,29.7928838 247.12585,27.2052023 C245.876411,24.6175208 244.166678,22.6030901 241.996599,21.1618497 C239.82652,19.7206094 237.426317,19 234.795918,19 C232.16552,19 229.715998,19.7369868 227.447279,21.2109827 Z" id="Combined-Shape"></path>
                <polygon id="Path" points="170 1 183.806616 1 183.806616 30.4212546 194 30.4212546 194 42 170 42"></polygon>
            </g>
        </g>
    </g>
</svg>