<svg viewBox="0 0 271 71" xmlns="http://www.w3.org/2000/svg"><g id="Frontpage" fill="none" fill-rule="evenodd"><g id="iPhone-SE" fill="#FFF"><g id="hello"><g id="introLeft"><path id="Path" d="M0 1h22.485v26.385h21.03V1H66v68H43.515V44.458h-21.03V69H0zm75 0h58.118v17.073h-35.38v8.342h32.146v17.073H97.738v8.44H134V69H75z"/></g><g id="introRight"><path id="Path" d="M143 1h22.58v49.278H194V69h-51z"/><path d="M252.786 4.56c5.714 3.038 10.178 7.24 13.393 12.608 3.21 5.367 4.82 11.412 4.82 18.138 0 6.79-1.61 12.9-4.82 18.332-3.22 5.432-7.68 9.683-13.4 12.755C247.07 69.463 240.64 71 233.5 71c-7.143 0-13.57-1.536-19.286-4.607-5.714-3.072-10.178-7.323-13.393-12.755-3.21-5.432-4.82-11.542-4.82-18.332 0-6.79 1.61-12.868 4.82-18.235 3.22-5.36 7.68-9.55 13.4-12.56 5.71-3 12.14-4.51 19.28-4.51 7.144 0 13.57 1.52 19.287 4.56zm-25.34 16.65c-2.267 1.475-4.076 3.49-5.424 6.044-1.348 2.555-2.022 5.438-2.022 8.648s.674 6.11 2.022 8.696c1.348 2.588 3.157 4.635 5.425 6.142 2.27 1.507 4.72 2.26 7.35 2.26s5.03-.737 7.2-2.21c2.17-1.475 3.88-3.522 5.13-6.143 1.248-2.62 1.873-5.535 1.873-8.745 0-3.21-.625-6.11-1.874-8.697-1.25-2.587-2.96-4.602-5.13-6.043-2.17-1.44-4.57-2.162-7.2-2.162s-5.08.737-7.35 2.21z" id="Combined-Shape"/><path id="Path" d="M170 1h13.807v29.42H194V42h-24z"/></g></g></g></g></svg>