<svg viewBox="0 0 714 164" xmlns="http://www.w3.org/2000/svg"><g id="Frontpage" fill="none" fill-rule="evenodd"><g id="Tablet-(landscape)-Copy" fill="#FFF"><path d="M0 3h51.783v60.92h48.434V3H152v157h-51.783v-56.663H51.783V160H0V3zm174 0h132.982v39.418h-80.955v19.26h73.554v39.42h-73.55v19.484H309V160H174V3zm245 0h52.244v113.775H537V160H419V3zm193.95 45.072c-5.164 3.382-9.28 8.003-12.348 13.864C597.534 67.798 596 74.41 596 81.776c0 7.363 1.534 14.013 4.602 19.95 3.068 5.936 7.184 10.632 12.347 14.09 5.16 3.456 10.734 5.184 16.72 5.184 5.987 0 11.45-1.69 16.39-5.072 4.94-3.382 8.83-8.078 11.673-14.09 2.843-6.01 4.265-12.7 4.265-20.063 0-7.365-1.423-14.015-4.266-19.95-2.844-5.938-6.735-10.56-11.674-13.865-4.937-3.307-10.4-4.96-16.386-4.96-5.986 0-11.56 1.69-16.724 5.072zm59.036-37.542c13.18 7.02 23.478 16.73 30.893 29.126C710.29 52.053 714 66.018 714 81.552c0 15.683-3.707 29.798-11.12 42.344-7.416 12.547-17.713 22.367-30.894 29.462C658.806 160.453 643.976 164 627.5 164c-16.476 0-31.305-3.547-44.486-10.642-13.18-7.095-23.478-16.915-30.893-29.462C544.71 111.35 541 97.236 541 81.552c0-15.683 3.707-29.723 11.12-42.12 7.416-12.397 17.713-22.07 30.894-29.014C596.194 3.473 611.024 0 627.5 0c16.476 0 31.305 3.51 44.486 10.53zM480 3h32.215v67.454H536V97h-56V3z" id="HE-LO-Copy-2"/></g></g></svg>