<?xml version="1.0" encoding="UTF-8"?>
<svg width="278px" height="264px" viewBox="0 0 278 264" version="1.1" xmlns="http://www.w3.org/2000/svg" xmlns:xlink="http://www.w3.org/1999/xlink">
    <!-- Generator: Sketch 46.1 (44463) - http://www.bohemiancoding.com/sketch -->
    <title>smile-mobile</title>
    <desc>Created with Sketch.</desc>
    <defs></defs>
    <g id="Page-1" stroke="none" stroke-width="1" fill="none" fill-rule="evenodd">
        <g id="smile-mobile">
            <g id="mouth-end" transform="translate(124.000000, 64.851925)">
                <path d="M2.67691837,9.23827345 C2.53175037,9.38650838 2.39101238,9.53815101 2.25896402,9.69831289 C1.76314374,9.91299796 1.14788359,9.78180153 0.789393598,9.35413524 C0.345881503,8.82594181 0.425962442,8.03194781 0.944103157,7.58553917 C0.974772453,7.55998143 1.00441944,7.53271983 1.03372566,7.50716209 C1.16321824,7.33848096 1.27805771,7.15616903 1.39869028,6.98067251 C1.50109165,6.83243758 1.60638956,6.68761035 1.7103244,6.53937542 C2.09283867,5.99925504 2.50482955,5.47106161 2.93880008,4.97183363 C3.42950882,4.4095632 3.94730876,3.86944283 4.50821611,3.37362254 C4.75135547,3.15893747 4.99432444,2.9442524 5.23814535,2.72956733 C5.71880137,2.31042029 6.20099085,1.89468094 6.69442574,1.4891647 C7.16911829,1.10068695 7.66136049,0.734359251 8.13094149,0.339066104 C8.39265281,0.119269484 8.72473313,0.0272615963 9.04641997,0.0545231926 C9.36895873,0.0834886387 9.68042247,0.231723569 9.90038947,0.494116433 C10.2955122,0.96437897 10.2779626,1.66125353 9.89135907,2.11788526 C10.1748797,2.15877766 10.4561853,2.20307775 10.7386836,2.25419325 C11.1407921,2.32745879 11.5359149,2.42628207 11.9322303,2.52510536 C12.4798476,2.66141334 13.0204792,2.83009447 13.5548065,3.01070254 C14.0030893,3.16234517 14.4496684,3.3105801 14.882787,3.50141128 C15.3504937,3.70928095 15.8066143,3.94952377 16.245526,4.21362048 C16.4363572,4.32777841 16.6251437,4.44534405 16.8057518,4.57313278 C17.0192442,4.53905579 17.2352923,4.56631738 17.454237,4.63276752 C17.6266666,4.68388302 17.7996074,4.73329466 17.9735704,4.77759475 C18.0991442,4.79804095 18.2235252,4.80826405 18.3502916,4.81167175 C18.7747206,4.76907551 19.1841557,4.67025222 19.59325,4.54757504 C20.2938731,4.30392452 20.9582041,3.97678536 21.6015778,3.60875381 C21.7690662,3.49118818 21.9309319,3.36851099 22.0856415,3.23220301 C22.3391743,3.00729484 22.6688693,2.91699081 22.9898746,2.94595625 C22.9951565,2.94595625 23.0006088,2.94595625 23.0060611,2.94595625 C23.1205598,2.64607869 23.3514315,2.39731663 23.6426194,2.25930479 C23.8026109,2.18263155 23.9912271,2.13833146 24.1784802,2.13492376 C24.2125572,2.05313897 24.2556646,1.97476188 24.3079727,1.89979249 C24.4960778,1.63569578 24.7855618,1.44997615 25.1057152,1.39034141 C25.2162951,1.37159906 25.3258526,1.36648752 25.4331951,1.37500676 C25.6550364,1.39545296 25.8668249,1.47383005 26.0583376,1.60161878 C26.5311559,1.91342329 26.9990331,2.23715475 27.4210767,2.61711325 C27.8526618,3.00388714 28.2643119,3.41451494 28.6797105,3.81832733 C28.9581195,4.0670894 29.2407882,4.30733222 29.5440735,4.52712884 C29.8889327,4.77759475 30.0751634,5.17799945 30.0697111,5.580108 C30.4922659,5.88339325 30.9158429,6.18327081 31.3428277,6.48144452 C31.8326845,6.82221448 32.3242451,7.16128058 32.8122277,7.50375439 C32.9337122,7.58894687 33.0536632,7.67584321 33.1744662,7.76273955 C33.2518209,7.81896659 33.3375246,7.86667439 33.4095974,7.92971683 C33.5312523,8.03535551 33.6633007,8.13588265 33.7662132,8.26026368 C33.856858,8.36590237 33.9345536,8.4800603 33.9991295,8.60273749 C34.0144641,8.62999908 34.0296284,8.65555683 34.0444519,8.68281843 C34.1074943,8.86172265 34.1884272,9.04403458 34.2006949,9.2365696 C34.2115995,9.40525073 34.2267638,9.57563571 34.2235265,9.74431683 C34.2202892,9.94366726 34.194561,10.13961 34.1526463,10.3338489 C34.0942043,10.6064648 34.0381476,10.8807846 33.9544886,11.1465852 C33.8943427,11.3374164 33.8285741,11.5265437 33.7628055,11.715671 C33.333265,12.9594813 32.8260289,14.2066994 32.1294951,15.3261287 C31.9626882,15.5953369 31.6355491,15.7810566 31.3317526,15.8355798 C31.0012058,15.8969184 30.6529389,15.8202451 30.3787895,15.6260062 C30.1135001,15.4368789 29.9282916,15.1472245 29.8693384,14.8269007 C29.8056144,14.4810192 29.8974519,14.1675108 30.0797638,13.8744487 C30.1545628,13.7551792 30.2249318,13.632502 30.2944489,13.5098248 C30.3937833,13.3138821 30.4902212,13.1179394 30.5854664,12.9202928 C30.7130848,12.6561961 30.8183827,12.3784686 30.9323703,12.1075565 C31.0400536,11.851979 31.1312095,11.5878823 31.2288401,11.3271933 C31.3879797,10.9046385 31.5493343,10.4786761 31.6645145,10.0407867 C31.6800195,9.95729805 31.6929688,9.87380942 31.7028511,9.78861693 C31.5888636,9.70853599 31.4723202,9.63186275 31.3603773,9.55348566 C31.18011,9.42740078 31.0003539,9.29961204 30.819405,9.17523101 L30.6100019,9.02869993 C30.5174828,9.25531195 30.3148951,9.43251232 30.0606807,9.48192397 C29.1261191,9.66082819 28.2034845,9.88573636 27.2823833,10.1225715 C27.0971748,10.1702793 26.8749928,10.1072368 26.722839,9.9998943 C26.5672775,9.88914406 26.4584015,9.71875909 26.4238134,9.53133561 C26.3882029,9.33709674 26.4335253,9.13263477 26.5473425,8.97076904 C26.6645674,8.80719946 26.8247292,8.72200697 27.0157308,8.67259533 C27.7787147,8.4766526 28.5428913,8.28752528 29.3138834,8.1273634 C29.0209916,7.92119758 28.7304852,7.70992021 28.4392973,7.50034669 C28.1818456,7.31633091 27.9259273,7.12890744 27.6710314,6.93978011 C27.208777,6.59730631 26.7322102,6.2923172 26.2294041,6.01799739 C26.0205121,5.91065485 25.8094052,5.81012771 25.5965943,5.71130443 C25.2916052,5.5698849 25.0494882,5.38586912 24.9010828,5.07406461 C24.6121099,4.94968358 24.3229666,4.8235987 24.0339937,4.69921766 C23.9590243,4.86789879 23.8467406,5.02635682 23.6998688,5.1558494 C23.1629857,5.62951964 22.5332428,5.97028959 21.8994107,6.2957249 C21.5618781,6.46951758 21.2127592,6.62286405 20.8559731,6.75235664 C20.4145056,6.91251852 19.9624743,7.06416114 19.5041387,7.16809598 C19.2748005,7.22091532 19.0418843,7.26521542 18.8069234,7.28395777 C18.5257882,7.30610781 18.2340891,7.33848096 17.9519316,7.30781166 C17.5769142,7.26691927 17.2044527,7.16979983 16.8393177,7.06416114 C16.781046,7.08460734 16.7209001,7.09994199 16.6599023,7.11016509 C16.4327791,7.15105748 16.211449,7.13231514 15.9948897,7.0522342 C15.852959,7.01645335 15.7212514,6.94489166 15.5825581,6.89718387 C15.4886759,6.86310687 15.3949642,6.82902988 15.2998894,6.79836058 C15.0700401,6.72679889 14.8395092,6.6586449 14.6076152,6.59560246 C14.2423098,6.49337147 13.8720633,6.40817898 13.502839,6.32128265 C13.0286576,6.21905166 12.5543059,6.11511682 12.0775687,6.02651664 C11.7974558,5.97540114 11.5171725,5.91406255 11.2353558,5.87146631 C10.9516648,5.82887006 10.6667811,5.77264302 10.3815566,5.74538142 C9.82916855,5.69085823 9.27729161,5.63292734 8.72337005,5.59714649 C8.22294937,5.5664772 7.72508447,5.546031 7.22500456,5.5392156 C7.20387683,5.55795795 7.1825787,5.57499645 7.16128058,5.59373879 C6.86123264,5.85272396 6.54533889,6.08785523 6.22552629,6.32128265 C5.97403806,6.50359457 5.71437136,6.67397955 5.45180811,6.84095683 C5.22451455,6.98578406 4.99841368,7.14253823 4.75493355,7.26010387 C4.58352627,7.34188866 4.40104395,7.37937335 4.22060626,7.3776695 C4.10781141,7.52590443 3.99637963,7.67413936 3.88579978,7.82237429 C3.81219347,7.92119758 3.74063178,8.02342857 3.66975163,8.12565955 C3.69616131,8.14951345 3.72069674,8.17677504 3.74301717,8.20574049 C3.84320354,8.34034462 3.9457753,8.47154105 4.05022129,8.60103364 C4.29080487,8.67600303 4.52355075,8.76971476 4.73755428,8.9111343 C4.88527806,9.00995758 5.02618644,9.11730012 5.16709481,9.22464265 C5.36559331,9.37628528 5.57022567,9.52622406 5.75884184,9.68808979 C6.0484963,9.94025956 6.34377346,10.1873178 6.61127788,10.4633414 C6.8695815,10.729142 7.09380813,11.0187965 7.32007938,11.3101548 C7.50426554,11.5503976 7.67737668,11.7991597 7.85645129,12.0411063 C8.02836973,12.2745337 8.20011779,12.5079612 8.37612547,12.736277 C8.54548813,12.9577775 8.71876966,13.1758703 8.88506539,13.3990746 C9.05596153,13.6290943 9.22208688,13.8642256 9.39247186,14.0942453 C9.55740451,14.3191535 9.71620331,14.5525809 9.89715216,14.7655621 C9.99921276,14.8848316 10.0968433,15.0126203 10.2053786,15.1267783 C10.318855,15.2460477 10.4325018,15.3653172 10.5459781,15.4845867 C10.7301643,15.6771217 10.9329224,15.856026 11.126139,16.0400417 C11.3604183,16.2649499 11.5844746,16.4983773 11.8180724,16.7232855 C12.033439,16.9124128 12.2658441,17.0759824 12.5147766,17.2174019 C12.9291528,17.4235677 13.3658495,17.590545 13.7970939,17.7575223 C14.0833407,17.8665687 14.3728247,17.9722074 14.6691242,18.0522883 C14.8454727,18.0999961 15.0029084,18.2686772 15.0783889,18.4288391 C15.1085471,18.4918815 15.1291636,18.5600355 15.1398979,18.6281895 C15.1923765,18.6281895 15.2450254,18.6281895 15.2976744,18.6264857 C15.8555148,18.5821856 16.3935906,18.418616 16.9313255,18.2686772 C17.3036167,18.1647424 17.6764191,18.0659191 18.0456433,17.953465 C18.3046285,17.8546417 18.5642952,17.7507069 18.8162945,17.6348451 C18.8524162,17.5888412 18.8868339,17.5411334 18.9209109,17.4917217 C19.1516122,17.1645826 19.6217043,17.0845016 19.9486731,17.3162252 C20.277005,17.5496526 20.3550413,18.0148036 20.1238289,18.3436466 C20.0246648,18.4850662 19.9171519,18.6367088 19.7869778,18.7508667 C19.664471,18.8582093 19.5252664,18.9314748 19.3766907,18.9945172 C19.3277902,19.0149634 19.2795713,19.0371135 19.231182,19.0592635 C19.1090159,19.1120829 18.9873611,19.1683099 18.8624689,19.2160177 C18.5295366,19.3421026 18.1896186,19.4443336 17.8471448,19.541453 C17.2930529,19.6982072 16.7370867,19.848146 16.1783943,19.9878616 C15.9923339,20.0355694 15.7969024,20.062831 15.6057304,20.074758 C15.3748588,20.0900926 15.1426241,20.1037234 14.9114116,20.096908 C14.7127428,20.0917965 14.5161185,20.074758 14.3184719,20.0577195 C14.0306917,20.0338656 13.7446153,19.9912693 13.4588797,19.950377 C13.1249252,19.9009653 12.7971045,19.8089574 12.4721803,19.7220611 C12.3362131,19.6845764 12.1966678,19.6419801 12.0647898,19.5925685 C11.937853,19.5448607 11.8056343,19.5039683 11.6824459,19.4494451 C11.4011403,19.3216564 11.1227313,19.1921638 10.8467076,19.054152 C10.497248,18.8786554 10.1448919,18.6963435 9.82627201,18.4680277 C9.68604517,18.3675005 9.54598872,18.2669734 9.4055915,18.1664462 C9.17489024,18.0011728 8.96088671,17.8035262 8.74347548,17.6212143 C8.40117206,17.3332637 8.04728246,17.0589439 7.7349668,16.7386201 C7.4843305,16.479635 7.26947504,16.2002036 7.05530113,15.912253 C6.95102552,15.7725373 6.84828338,15.6311178 6.74230392,15.493106 C6.47837759,15.1472245 6.23046745,14.7843045 6.02924279,14.3992344 C5.92650065,14.2015878 5.83432238,14.0022374 5.7445295,13.7994793 C5.45385273,13.1434971 5.20219412,12.4687726 4.83024371,11.851979 C4.60277977,11.5180244 4.33680882,11.2147392 4.07373441,10.9063424 C3.92805526,10.7359574 3.7801611,10.5672763 3.63260771,10.3985951 C3.48249854,10.2265063 3.33392284,10.0527136 3.18790292,9.87721711 C3.0394976,9.81076697 2.91153849,9.66593974 2.84576989,9.52622406 C2.82566446,9.48362782 2.80998904,9.44103157 2.79857325,9.39502763 C2.75768085,9.34220829 2.71712923,9.29109279 2.67691837,9.23827345 Z" id="mouth-end-shadow" fill="#E2C5AA"></path>
                <path d="M8.43405636,12.4244725 C8.37953317,12.2966838 8.3757847,12.1859336 8.37629585,12.0428102 C8.37663662,12.0053255 8.3779997,11.9695446 8.38174817,11.9320599 L8.39759397,11.749748 C8.41838094,11.5129129 8.43916791,11.2743739 8.45927334,11.035835 C8.47988992,10.7887767 8.50459574,10.5417185 8.50919613,10.2946603 C8.51481884,9.9794481 8.50527728,9.66253204 8.55485931,9.35072754 C8.5867213,9.15308096 8.65760145,8.98269599 8.81571871,8.85149955 C8.96446479,8.72541467 9.15955559,8.66407608 9.35328331,8.68111458 C9.54752218,8.69815307 9.7288118,8.79356866 9.85370399,8.94180359 C9.91112373,9.00995758 9.95985383,9.09515007 9.99137505,9.18715796 C10.0920726,9.16330406 10.1961778,9.15819251 10.2967049,9.17693486 C10.4292644,9.18886181 10.5500674,9.2331619 10.6586026,9.30983514 C10.7115923,9.35243139 10.761004,9.39843533 10.8070079,9.44784697 C10.8790808,9.43762387 10.9506425,9.43592002 11.0169222,9.44273542 C11.3415056,9.47681242 11.6601255,9.5960819 11.9671592,9.70512829 C12.0946072,9.74942838 12.2235886,9.79202463 12.3500143,9.84143627 C12.6410318,9.95389035 12.9291528,10.0663444 13.2153996,10.1907255 C13.7488749,10.422449 14.2775795,10.6660996 14.8192334,10.8773769 C14.9098782,10.9131578 15.0006934,10.9489386 15.0913382,10.9830156 C15.6467932,11.0324273 16.2019075,11.0988774 16.7556586,11.1585121 C17.5510157,11.2437046 18.3501212,11.3152663 19.1419002,11.4294243 C19.2943948,11.4515743 19.4310435,11.5009859 19.5457126,11.5946977 C19.6147185,11.59129 19.6833837,11.5946977 19.7467669,11.5964015 C19.7997566,11.5998092 19.8522352,11.6015131 19.9052249,11.6032169 C20.0028555,11.6066246 20.1006565,11.6117362 20.1977759,11.6151439 C20.3821325,11.6236631 20.567341,11.6304785 20.751016,11.6458132 C21.1914611,11.6798902 21.6378698,11.7003364 22.073033,11.7787135 C22.0994427,11.783825 22.1255116,11.7889366 22.1507285,11.7940481 C22.3735921,11.7310057 22.599693,11.6764825 22.8273273,11.6219593 C23.103351,11.5555091 23.3776708,11.4924667 23.6582948,11.4447589 C24.1225939,11.3680857 24.572751,11.2420008 25.0222266,11.1039889 C25.2241328,11.035835 25.4243351,10.9659771 25.6201074,10.8773769 C25.8126425,10.7921844 26.0000659,10.695065 26.1837409,10.592834 C26.3726979,10.4871953 26.5727299,10.4037067 26.7603237,10.2963642 C26.9465545,10.1873178 27.1402822,10.0919022 27.3232757,9.97774425 C27.280509,10.0067097 27.237572,10.0339713 27.1948054,10.0612329 C27.1849231,10.0680483 27.1748704,10.0731598 27.164988,10.0799752 L27.1948054,10.0612329 C27.3430403,9.9658173 27.4945126,9.88062481 27.6447921,9.79032078 C27.7214654,9.73750143 27.7976275,9.68468209 27.8790715,9.640382 C27.9915256,9.5790434 28.1184624,9.55859721 28.2435249,9.56882031 C28.4408307,9.5858588 28.6337065,9.68297824 28.7587691,9.83291702 C28.9691946,10.0833829 28.991515,10.4667491 28.7960834,10.7325497 C28.6420554,10.9421232 28.4059018,11.092062 28.1992248,11.2471123 C28.0598499,11.3510472 27.9216677,11.4566859 27.7836559,11.5640284 C27.4979203,11.783825 27.1929312,11.9746562 26.8884532,12.1671912 C26.5722187,12.3801724 26.2549619,12.5897459 25.9440093,12.8095426 C25.7165453,12.9697044 25.491126,13.133274 25.2619582,13.2900282 C25.2544613,13.325809 25.2444086,13.3615899 25.2316297,13.3956669 C25.1859665,13.5166402 25.1135529,13.6188712 25.0145592,13.7023598 C24.8537158,13.8625217 24.6570916,13.9800874 24.4534815,14.0840222 C24.5332217,14.2612226 24.5402075,14.4639807 24.4732462,14.6462926 C24.4274126,14.767266 24.3546582,14.8694969 24.2556646,14.9529856 C24.0208741,15.1080359 23.7874466,15.2613824 23.5361288,15.3874673 C23.502563,15.4045058 23.4689971,15.4215443 23.4354313,15.4385828 C23.4616706,15.7452757 23.2902633,16.0264109 23.0161138,16.1678305 C22.9162682,16.218946 22.8155707,16.2683576 22.7141917,16.3160654 C22.6025895,16.4421503 22.4604884,16.5103043 22.2938519,16.5546044 C22.1754344,16.5869775 22.0571872,16.6193507 21.9394512,16.6517238 C21.716758,16.7420278 21.4932129,16.830628 21.2710309,16.9209321 C21.0415223,17.0146438 20.8118434,17.1083555 20.5826756,17.2020673 C20.4330776,17.2634059 20.2834796,17.3247445 20.1338816,17.386083 C19.8634806,17.4951294 19.5939316,17.6212143 19.3012102,17.658699 C19.1931861,17.6723298 19.0880586,17.6689221 18.9878722,17.6467721 C18.7750614,17.6978876 18.5610579,17.7438915 18.3444985,17.7745608 C18.2497645,17.7881916 18.1562231,17.7864877 18.0664303,17.7694492 C17.8399886,17.8529379 17.6057093,17.919388 17.3716003,17.9619843 C16.6781335,18.0863653 15.9483746,18.021619 15.2581451,17.9040534 C14.9083447,17.8444186 14.5518993,17.7847839 14.2205006,17.6535875 C14.0603387,17.5888412 13.9003472,17.5138718 13.7684692,17.4031215 C13.6664086,17.3162252 13.5386199,17.1867326 13.4892082,17.0555362 C13.4888675,17.0555362 13.4886971,17.0555362 13.4885267,17.0538323 C13.4401374,17.0402015 13.3919184,17.0248669 13.3438699,17.0095323 C12.9196113,16.876632 12.4938192,16.7318047 12.0992076,16.5256389 C11.9790862,16.4643003 11.8557275,16.4063694 11.738673,16.3382154 C11.6357605,16.2785807 11.5739107,16.2206498 11.4820732,16.1354573 C11.3271933,15.9906301 11.2532462,15.8066143 11.2300738,15.6106716 C11.205368,15.5987446 11.1804918,15.5851138 11.155786,15.571483 L11.1813437,15.5851138 C11.0665043,15.527183 10.9375228,15.4743636 10.8329065,15.3976904 C10.7492474,15.3363518 10.67513,15.2647901 10.6022052,15.1898207 C10.5401851,15.1267783 10.4877065,15.0313627 10.4526072,14.9342432 C10.4089886,14.9189086 10.3663924,14.9018701 10.3251592,14.8831277 C10.2191798,14.8320122 10.1147338,14.7774891 10.012162,14.721262 C9.96547653,14.6974081 9.92066528,14.6701465 9.87704673,14.6411811 C9.71705524,14.5168 9.5972746,14.3941229 9.50850402,14.2101071 C9.46744125,14.1232107 9.44495043,14.0329067 9.43864618,13.939195 C9.30063435,13.9068218 9.16415599,13.8676333 9.03006301,13.8199255 C8.71280618,13.7074714 8.35925735,13.4774517 8.3100161,13.1094201 C8.28411758,12.9168851 8.28752528,12.7158308 8.38055548,12.5386305 C8.39554935,12.4977381 8.41326939,12.4602534 8.43405636,12.4244725 Z" id="teeth" fill="#FEFEFE"></path>
                <path d="M6.24154248,8.57717974 C6.00436659,8.55843739 5.78934075,8.73563777 5.7683834,8.97417674 C5.74844835,9.20249261 5.91627756,9.41376998 6.14152649,9.44443927 C6.14851228,9.46829317 6.15839461,9.49214707 6.17066233,9.51600096 C6.31753418,9.78861693 6.5010388,10.0407867 6.68028379,10.2929565 C6.69919652,10.3185142 6.71793887,10.3457758 6.73668122,10.3730374 C6.888835,10.6712111 7.0159422,10.9864233 7.14526439,11.2948201 C7.19706143,11.4192012 7.30917474,11.5009859 7.43423731,11.5299514 L7.43406693,11.5316552 C7.41975459,11.7684904 7.58894687,11.9831754 7.83106393,12.0053255 C7.9459034,12.0155486 8.0615948,11.9780639 8.14985422,11.9047983 C8.24475865,11.8247174 8.28292489,11.7258941 8.30422301,11.6083285 C8.32160227,11.5129129 8.32160227,11.4106819 8.32841767,11.3135625 C8.33352922,11.2351854 8.34085578,11.1551044 8.34358194,11.0750235 C8.34579694,11.0187965 8.34784156,10.9608656 8.34988618,10.9046385 C8.35908697,10.8671538 8.36590237,10.8279653 8.37425123,10.7887767 C8.37765893,10.7734421 8.37391046,10.7138074 8.37476239,10.6899535 C8.37748855,10.5792032 8.38038509,10.468453 8.37680701,10.3577027 C8.37629585,10.3389604 8.37561431,10.3185142 8.37510316,10.298068 C8.3848151,10.1327946 8.39231204,9.96752115 8.39963859,9.80224772 C8.40457976,9.69831289 8.41020246,9.59437805 8.4154844,9.49044322 C8.41974402,9.40184303 8.44632408,9.30983514 8.42502596,9.22123495 C8.40304629,9.12752322 8.38106663,9.04233073 8.31785381,8.96736134 C8.26264907,8.90261505 8.19568778,8.86172265 8.11594761,8.83275721 C7.94522186,8.76971476 7.72781063,8.82594181 7.61518616,8.97076904 C7.51789634,8.93498819 7.42094729,8.89579965 7.32314631,8.8600188 C7.19586873,8.81231101 7.06910231,8.76289937 6.94080242,8.71859927 C6.7256062,8.64362988 6.49882379,8.59932979 6.27153023,8.57888359 C6.2616479,8.57888359 6.25159519,8.57717974 6.24154248,8.57717974" id="mouth-shadow" fill="#89725B"></path>
                <path d="M24.7421137,12.2609029 C24.7310386,12.2643106 24.7199636,12.2677183 24.709059,12.2694222 C24.5422521,12.31713 24.377149,12.3580224 24.2071048,12.3886917 C24.0477949,12.419361 23.8847365,12.4381033 23.7235523,12.453438 C23.3504092,12.4926265 22.9774365,12.5164804 22.6024191,12.5198881 C22.4221518,12.521592 22.241203,12.5284074 22.061106,12.5267035 C21.870786,12.5249997 21.6828514,12.509665 21.4933833,12.4926265 C21.2563778,12.4721803 21.0755993,12.2574952 21.0963863,12.0189563 C21.1171733,11.7821212 21.3323695,11.6015131 21.5695454,11.6219593 C21.8155813,11.6441093 22.059743,11.6628517 22.3069716,11.6560363 C22.5356282,11.6509247 22.7642848,11.6492209 22.9927711,11.6424055 C23.3112206,11.6236631 23.6279663,11.59129 23.9443712,11.5469899 C24.0937988,11.5248398 24.2428857,11.4958744 24.3885648,11.454982 C24.446155,11.4396474 24.5037451,11.4243127 24.560824,11.4072742 C24.5853595,11.3953473 24.6105765,11.3885319 24.6366454,11.3817165 C24.6514689,11.3766049 24.6659516,11.3731972 24.6807751,11.3680857 C24.6996878,11.3629741 24.7187709,11.3561587 24.7376837,11.3493433 C24.8387219,11.3169702 24.9394195,11.2863009 25.0426728,11.2607431 C25.2011308,11.2198507 25.3597592,11.1806622 25.5178765,11.1397698 C25.6374867,11.1005812 25.7559043,11.0562812 25.872618,11.0085734 C26.0165933,10.9489386 26.1569905,10.8807846 26.2982397,10.8143345 C26.5708556,10.6848419 26.8426197,10.5519416 27.1062052,10.4054105 C27.3696204,10.2316179 27.6303094,10.0544175 27.8967915,9.88573636 C27.89168,9.88914406 27.8867388,9.89255176 27.8817976,9.89595946 C27.9433066,9.85677092 28.004986,9.81758237 28.0681988,9.78009768 C28.1717929,9.71875909 28.2849285,9.6506051 28.4094799,9.66082819 C28.4203845,9.66253204 28.4312892,9.66423589 28.4421938,9.66593974 C28.5612929,9.68979364 28.6579012,9.72387064 28.7384933,9.82099007 C28.7879049,9.87892096 28.8195965,9.94707496 28.8340793,10.0220443 C28.8475397,10.1021253 28.8408947,10.1787985 28.8138035,10.2537679 C28.7863715,10.3253296 28.7436048,10.3866682 28.684822,10.4360798 C28.601163,10.52468 28.4895608,10.5962417 28.3885226,10.6660996 C28.3563198,10.6882496 28.3239466,10.7103997 28.2915735,10.7325497 C28.2707865,10.819446 28.2235899,10.899527 28.149302,10.9574579 C27.9332539,11.1278428 27.7248731,11.3033394 27.5204111,11.4873551 C27.3576934,11.6338862 27.208777,11.7991597 27.0578159,11.9576177 C26.7400479,12.2932761 26.4181907,12.6238229 26.0910515,12.9475544 C25.7691943,13.2678782 25.4439294,13.5847942 25.1254799,13.9085257 C24.9642957,14.0720952 24.8031115,14.2356648 24.63869,14.3958267 C24.5226578,14.5099846 24.4091814,14.6326618 24.2778146,14.7297813 C24.2045491,14.7843045 24.1297501,14.8354199 24.0544399,14.8848316 C24.0074136,14.9155009 23.9649878,14.947874 23.9160873,14.9768395 C23.8596899,15.0109165 23.7966474,15.0262511 23.7334346,15.0432896 C23.649946,15.0671435 23.5494188,15.0484012 23.4674636,15.0092126 C23.3873827,15.0824782 23.3076425,15.1557437 23.2306285,15.2324169 C23.1110183,15.3670211 22.99669,15.5084406 22.8629377,15.6311178 C22.8303942,15.6617871 22.7975099,15.6907525 22.7644552,15.719718 C22.7353194,15.7589065 22.7034574,15.7980951 22.6651208,15.8236528 C22.6364961,15.844099 22.6071899,15.8645452 22.5772021,15.8832876 C22.4942247,15.9548492 22.4102249,16.0247071 22.3257139,16.0945649 C22.0895603,16.2888038 21.8563033,16.4881542 21.614527,16.6772815 C21.4961095,16.7692894 21.3775215,16.8595935 21.2609782,16.9550091 C21.1556803,17.0419054 21.0600943,17.1390248 20.9517295,17.2208096 C20.8166142,17.3247445 20.6789431,17.4218639 20.5298563,17.5053525 C20.4289884,17.5632834 20.3247127,17.6143989 20.2246968,17.6723298 C20.1533055,17.7234453 20.0861738,17.7813762 20.0141009,17.8324917 C19.9398131,17.885311 19.8563244,17.9381304 19.7735173,17.9773189 C19.6610633,18.0318421 19.5448607,18.0863653 19.4271247,18.1255538 C19.3557334,18.1596308 19.280764,18.1732616 19.2023869,18.1664462 C19.1640503,18.157927 19.125884,18.1494077 19.0880586,18.1408885 C18.9819087,18.0999961 18.8939901,18.0199152 18.8456008,17.9176842 C18.7953372,17.8120455 18.7902256,17.6876645 18.831118,17.5786181 C18.8410004,17.5513565 18.8551423,17.522391 18.8725216,17.4951294 C18.7590452,17.5189833 18.645228,17.5394295 18.5314109,17.5547642 C18.2381783,17.5939527 17.9422196,17.624622 17.647624,17.6535875 C17.3773934,17.6808491 17.1081852,17.7132222 16.837273,17.7370761 C16.5897037,17.7575223 16.3441789,17.7796723 16.0952465,17.7728569 C15.8682937,17.7643377 15.6425336,17.7438915 15.4167735,17.7200376 C15.1990215,17.6978876 14.9848476,17.670626 14.7710144,17.624622 C14.5168,17.568395 14.2625857,17.5138718 14.0102455,17.4508293 C13.5842831,17.3434868 13.1581502,17.2378481 12.7326989,17.1270979 C12.4438964,17.0521285 12.1431669,16.9754553 11.8783887,16.8357396 C11.7434438,16.7641779 11.6032169,16.6977277 11.4740651,16.615943 C11.3858057,16.5597159 11.2973759,16.5034889 11.2058792,16.4523734 C11.1121674,16.399554 11.0470804,16.2768768 11.0285084,16.1746459 C11.0073807,16.0587841 11.0343015,15.9378107 11.1016036,15.8423952 C11.1670314,15.7503873 11.2677289,15.685641 11.3791607,15.6668986 C11.5040529,15.6430447 11.60458,15.6788256 11.7105595,15.7384603 C11.8487417,15.8168374 11.9811308,15.9037337 12.1188019,15.9821108 C12.2496575,16.0502648 12.380854,16.1133073 12.522955,16.1576074 C12.6338757,16.1916844 12.745137,16.2274652 12.85708,16.2598384 C13.0596677,16.3177692 13.2653224,16.365477 13.4691028,16.4182964 C13.5364049,16.4353349 13.6038773,16.4523734 13.6713498,16.4711157 C13.6750983,16.4319272 13.6790171,16.3944425 13.6834471,16.3569578 C13.7037229,16.184869 13.7272361,16.0127801 13.7512603,15.8406913 C13.7625057,15.7623142 13.7740919,15.6822333 13.7853373,15.6038562 C13.7964124,15.5254791 13.809532,15.4488059 13.8180512,15.3721326 C13.8367936,15.1949322 13.8584325,15.0177319 13.8746191,14.8422353 C13.8914872,14.6582196 13.9066514,14.4759076 13.9259049,14.2935957 C13.9374911,14.1828455 13.9490773,14.0737991 13.9604931,13.9630489 C13.9715681,13.8608179 13.986562,13.7585869 14.0078601,13.6563559 C14.031714,13.5439018 14.0686875,13.4365593 14.1157138,13.3309206 C14.1460423,13.2627666 14.2116405,13.2184665 14.283543,13.2235781 C14.2975146,13.2252819 14.3118269,13.2286896 14.3261392,13.2338012 C14.4062202,13.2627666 14.4590395,13.3632937 14.4229179,13.4450785 C14.3850925,13.530271 14.3528897,13.6171674 14.3298877,13.7057675 C14.287973,13.9136372 14.2728088,14.1266184 14.2506587,14.336192 C14.2371983,14.4673884 14.2256121,14.5985848 14.2136852,14.7297813 C14.1964763,14.9155009 14.1763709,15.1029244 14.1562654,15.288644 C14.1371823,15.4658444 14.1097503,15.6430447 14.084363,15.8202451 C14.0606795,15.9889262 14.0369959,16.1576074 14.0167201,16.3262885 C14.0078601,16.4012579 14.0000224,16.4762273 13.9916735,16.5529005 C14.1836974,16.6006083 14.376062,16.6483161 14.5685971,16.6926162 C14.7110389,16.7232855 14.8529696,16.7556586 14.9954114,16.7846241 C15.1467133,16.8169972 15.3031267,16.830628 15.4573251,16.8459627 C15.6062416,16.8612973 15.7549877,16.8749281 15.9039041,16.8851512 C15.9098676,16.8578896 15.9156607,16.8289242 15.9214538,16.8016626 C15.9792143,16.5171197 16.0335671,16.2342806 16.0868976,15.9497377 C16.152155,15.5987446 16.2031002,15.2460477 16.2548972,14.8933508 C16.2811365,14.7161505 16.3002196,14.5372462 16.3210066,14.358342 C16.3288443,14.2884842 16.332252,14.2203302 16.3353189,14.1521762 C16.341112,14.0260913 16.3472458,13.9017103 16.3479274,13.7756254 C16.3486089,13.6870252 16.4416391,13.6205751 16.5254685,13.6273905 C16.5684055,13.6307982 16.6087868,13.6529482 16.6369003,13.6853213 C16.6662065,13.7211022 16.6747258,13.7602907 16.6742146,13.8045908 C16.6730219,13.9715681 16.6634804,14.1385454 16.6556427,14.3055227 C16.6539388,14.3498228 16.6462715,14.3958267 16.6409895,14.4401268 C16.6311072,14.528727 16.6205433,14.619031 16.610661,14.7076312 C16.5977118,14.8217891 16.5798213,14.9325394 16.563294,15.0449935 C16.5474482,15.152336 16.5322839,15.2613824 16.5149047,15.3687249 C16.4542476,15.7384603 16.3949536,16.1081957 16.320325,16.4745234 C16.2913596,16.6176468 16.2627349,16.7590663 16.2329175,16.9021897 C16.2802845,16.9021897 16.327822,16.9021897 16.375189,16.9021897 C16.8638531,16.8715204 17.3525172,16.8135895 17.8386255,16.7573625 C18.1206127,16.7249893 18.4005552,16.6977277 18.6787939,16.6397969 C18.8931382,16.5937929 19.1044155,16.5409736 19.3143298,16.479635 C19.4232058,16.4404464 19.5307188,16.3961463 19.6395948,16.3552539 C19.7673835,16.3075461 19.8972168,16.2666538 20.027391,16.2274652 C20.1560316,16.184869 20.2838204,16.138865 20.4114387,16.0928611 C20.548769,16.0434494 20.6791135,15.9787031 20.8097988,15.9139568 C20.9517295,15.8423952 21.0899117,15.7657219 21.2328647,15.6975679 C21.3177164,15.6566755 21.4044423,15.6260062 21.4860568,15.5817061 C21.573805,15.515256 21.6549083,15.4419905 21.7465754,15.3823557 C21.8430133,15.3193133 21.9401327,15.2596785 22.0370818,15.1983399 C22.1531139,15.0995167 22.2672719,14.9972857 22.3751256,14.891647 C22.4649184,14.789416 22.5504517,14.6820735 22.6460377,14.584954 C22.7034574,14.528727 22.7622402,14.4724999 22.821875,14.4179768 C22.9041709,14.3413035 22.9883411,14.2663341 23.0708074,14.1896609 C23.2371032,14.0329067 23.395902,13.8693371 23.55436,13.7057675 C23.6329075,13.6205751 23.7123069,13.5353826 23.7949436,13.4535978 C23.8590083,13.3905553 23.9234138,13.3275129 23.9871378,13.2644705 C24.1174823,13.111124 24.2423745,12.9526659 24.3630071,12.7908002 C24.4270718,12.7039039 24.4931812,12.6187114 24.5592906,12.5335189 C24.6117692,12.4653649 24.6666331,12.3989148 24.7235417,12.3358723 C24.728994,12.3103146 24.7349575,12.2847568 24.7421137,12.2609029 Z M8.44564254,12.5948575 C8.41139516,12.599969 8.37663662,12.599969 8.34187809,12.5982652 C8.11594761,12.577819 7.90944102,12.3597262 7.94488109,12.124595 C8.0128647,11.6730748 8.18478314,11.2454085 8.29451106,10.8041114 C8.39435666,10.2895488 8.40849861,9.76305918 8.38805242,9.2399773 C8.38720049,9.22123495 8.38634857,9.20419646 8.38515587,9.18715796 C8.3711843,9.10707702 8.37782932,9.03040378 8.40543168,8.95543439 C8.42298134,8.92135739 8.4403606,8.88898425 8.45825103,8.85490725 C8.52367886,8.76289937 8.62437638,8.69815307 8.73580815,8.67770688 C8.77431516,8.67089148 8.81333332,8.66918763 8.85201071,8.67259533 C8.92885433,8.67941073 9.00365334,8.70667232 9.06720693,8.75097242 C9.14984365,8.81060716 9.23861422,8.92306124 9.24423693,9.02869993 C9.27115775,9.50918556 9.28223278,9.9896712 9.22736881,10.468453 C9.22089418,10.5263839 9.21339724,10.5843148 9.20504838,10.6405418 C9.28666278,10.729142 9.33266673,10.8484115 9.3215917,10.9762002 C9.30182705,11.2028122 9.29790819,11.4277204 9.29688588,11.6560363 C9.29637473,11.8570905 9.29433011,12.0598487 9.30165666,12.2626068 C9.315969,12.6698269 9.34731984,13.0804547 9.33573366,13.4876748 C9.32942941,13.7262137 9.08901621,13.905118 8.86257458,13.8846718 C8.7477351,13.8744487 8.6400518,13.8182216 8.56610472,13.7296214 C8.48840917,13.6376136 8.46234027,13.530271 8.46557758,13.4110015 C8.47307452,13.1383856 8.45808064,12.8657696 8.44564254,12.5948575 Z" id="teeth-shadow" fill="#BEBEBE"></path>
                <path d="M31.6706484,8.04898631 C29.306216,10.400299 25.6707118,14.7400044 22.4088618,16.8561858 C21.3460362,17.5457122 20.2016171,18.0590028 18.9468094,18.4066891 C11.5861784,20.4461972 8.89801465,13.5387903 5.28363814,9.19226951 C4.87592572,8.70196905 2.67504414,8.75778782 2.12981221,8.71519157 C2.29270025,8.67429918 2.10289139,8.44087176 4.37395274,8.22448284 C6.6450141,8.00809392 7.66596088,8.1716635 8.63630333,8.34886387 C12.8330012,9.11524944 19.3068691,11.9573645 22.4088618,11.2743739 C26.4096714,10.3934836 31.384572,8.15632885 31.6706484,8.04898631 Z M14.0018966,13.3769245 C14.1419531,14.1419531 13.9715681,15.6754179 13.6454513,17.0453131 C14.3123381,17.3792677 15.1804495,17.6450682 15.803377,17.6382528 C15.8539813,15.5050329 16.3864344,14.0925414 16.4280083,13.9851989 C16.3569578,14.653108 16.3569578,15.9650723 15.8539813,17.6450682 C17.0384977,17.7200376 17.8904226,17.6382528 18.6278488,17.4235677 C18.5719625,15.6754179 18.9037498,14.2094017 18.9079261,14.209153 C18.9143623,14.2087697 19.0831174,15.5447175 18.7268424,17.3946023 C20.1054273,17.0384977 20.7869672,16.7454355 21.4507871,16.275173 C21.4685071,15.378948 21.5741458,14.653108 21.8188186,14.2118109 C18.2311925,14.3123381 15.6754179,13.79096 14.0018966,13.3769245 Z M11.3016355,12.4483264 C11.4157935,13.2900282 11.4157935,13.9851989 11.194293,15.4743636 C11.7565634,16.0298186 12.6084883,16.6977277 13.6142708,17.0316823 C13.6307982,15.2630862 13.8011831,14.1675108 13.9925255,13.3752207 C12.9492582,13.1196432 11.382398,12.4806996 11.3016355,12.4483264 Z M21.8917434,14.2101071 C21.8092771,14.993878 21.8092771,15.5050329 21.5741458,16.1967959 C22.8315869,15.3942827 23.6835118,14.7400044 24.3205812,14.063576 C22.7684227,14.1597763 21.9588101,14.20862 21.8917434,14.2101071 Z M9.58790342,11.6679632 C9.88232866,12.5062573 9.71194369,12.7788733 9.73528643,13.79096 C9.80957428,13.9034141 10.5326881,15.0262511 11.0968328,15.3942827 C11.0750235,14.3089304 11.2454085,12.8487311 11.2391042,12.4244725 C10.9046385,12.2677183 9.76067379,11.7599711 9.58790342,11.6679632 Z M18.2320445,11.9371715 C18.2124502,12.1314104 18.0959069,13.7091752 18.0841503,13.8165178 C20.9573522,14.063576 22.7520171,13.9851989 23.0546208,13.9869028 C23.0546208,13.7279176 23.0019719,12.6084883 23.0754078,12.1671912 C21.8188186,12.4142494 19.7646573,12.1365219 18.2320445,11.9371715 Z M25.9412831,11.3135625 C25.0465916,11.6679632 24.0989104,11.9644331 23.2669205,12.1314104 C23.3427418,12.4738842 23.1723569,13.5899058 23.0777932,13.9869028 C23.3427418,13.9817912 24.0242818,13.9988297 24.3745933,14.0124605 C24.4914774,13.9017103 25.4849922,12.8947351 25.5298034,12.8487311 C25.536278,12.8146541 25.7281315,11.6424055 25.9412831,11.3135625 Z M8.52214539,9.35072754 C8.57019396,9.5824511 8.63630333,10.5638686 8.63630333,11.160216 C8.70190154,11.1721429 9.2002776,11.284597 9.37901144,11.3459356 C12.1349884,12.4142494 12.9492582,13.2235781 17.8904226,13.8165178 C17.7800131,13.2303935 17.9209215,12.543742 18.0625114,11.9116137 C17.7616115,11.8604982 15.2549078,11.3680857 15.1804495,11.352751 C15.1845388,11.4174973 15.1642629,12.1314104 14.9952411,12.6987923 C14.9011885,12.1314104 15.0143242,11.3885319 15.0175615,11.3169702 C14.8551846,11.2811893 11.58243,10.2793257 11.4157935,10.2230986 C11.4169862,10.2656949 11.3432095,10.8518192 11.1917372,11.4157935 C11.1353398,11.0222042 11.1890111,10.2213948 11.1917372,10.1770947 C10.3934836,9.88232866 8.53305003,9.35243139 8.52214539,9.35072754 Z M8.6252283,11.2385931 C8.59115131,11.4686128 8.54685121,11.6986325 8.49522457,11.9269484 C8.62761369,12.1671912 9.20078876,13.1196432 9.59761537,13.5899058 C9.54155871,12.9492582 9.51940866,11.988287 9.54224025,11.6424055 C9.33079249,11.5367668 8.71621388,11.2726701 8.6252283,11.2385931 Z M28.7405379,9.95729805 C28.4110134,10.1310907 26.1329662,11.2232584 26.1072381,11.2351854 C26.0689015,11.5861784 25.9412831,12.1365219 25.6707118,12.7039039 C25.7674905,12.6050806 27.2615963,11.2011084 28.7405379,9.95729805 Z M6.06349018,8.97928829 C6.47462912,9.17352716 7.66732396,10.388372 8.12651148,11.296524 C8.00809392,10.5638686 8.22293096,9.55933975 8.33114383,9.30813129 C7.66732396,9.19226951 6.27919756,9.00654988 6.06349018,8.97928829 Z" id="mouth-end-contour" fill="#161616"></path>
                <path d="M31.681553,7.41685805 C32.996925,8.68963383 31.9890979,12.9015505 31.931167,13.0668239 C32.1656167,12.6970885 33.9066104,8.68963383 32.420683,7.17661523 C31.1785864,5.91187283 27.5837943,3.48437278 26.7969565,2.9544755 C28.4542912,4.77077935 29.4664919,5.2735282 31.681553,7.41685805 Z" id="mouth-end-nasolabial-left" fill="#161616"></path>
                <path d="M0.0088600188,8.1614404 C1.76768322e-14,9.20078876 0.801490932,9.86188247 0.934561599,9.9896712 C0.746626969,9.68638594 0.28643285,8.84652473 0.429370142,8.17336734 C0.681539908,6.98578406 5.28193429,3.06692959 8.67719572,0.693466856 C3.23731456,3.23731456 0.0218702728,6.63523753 0.0088600188,8.1614404 Z" id="mouth-end-nasolabial-right" fill="#161616"></path>
            </g>
            <g id="mouth-closed" transform="translate(129.622704, 68.770779)">
                <path d="M19.4395645,7.6797203 C18.0567274,7.82771677 15.9305045,8.10086677 14.0228132,8.23406359 C13.4012202,8.2774638 12.7319072,8.30977137 11.9980336,8.33165546 C7.69317226,8.46002631 6.12100101,8.02525988 4.00713471,7.7516809 C3.76868431,7.72082038 2.48149982,7.72433373 2.1626212,7.72165263 C2.25788619,7.71907878 2.14687657,7.70438638 3.47510567,7.69076641 C4.80333477,7.67714645 5.40043498,7.68744186 5.96793928,7.69859521 C8.42237595,7.7468331 12.2086143,7.92572168 14.0228132,7.88273285 C16.3626847,7.82728779 19.2722528,7.68647666 19.4395645,7.6797203 Z M9.10600384,8.01507172 C9.18791578,8.06322419 9.08826622,8.15974362 8.89753694,8.24596765 C9.28756535,8.26698744 9.79527991,8.28371748 10.1595987,8.2832885 C10.1891947,8.14901924 10.5005996,8.06011412 10.524914,8.05335776 C10.4833602,8.09539733 10.4833602,8.17797507 10.1891947,8.28371748 C10.8819585,8.2884362 11.3802063,8.2832885 11.8114896,8.26977578 C11.7788046,8.15974362 11.9728502,8.06746954 11.9752927,8.06745389 C11.9790569,8.06742977 12.0777533,8.15151707 11.869386,8.26795263 C12.6756507,8.24553868 13.074249,8.22709274 13.4624837,8.19749345 C13.4728472,8.1410832 13.53463,8.09539733 13.6777267,8.06762119 C11.5795054,8.07394857 10.0847619,8.04113196 9.10600384,8.01507172 Z M7.52675748,7.95662384 C7.59352269,8.00960228 7.59352269,8.05335776 7.46397825,8.14708885 C7.79282182,8.18205034 8.29106967,8.22408991 8.87930107,8.2451097 C8.88896708,8.13379062 8.98861665,8.06483285 9.10052311,8.01496447 C8.4903688,7.9988779 7.57399137,7.95866147 7.52675748,7.95662384 Z M13.7203768,8.06751394 C13.6721464,8.1168461 13.6721464,8.14901924 13.53463,8.19256023 C14.2700438,8.14204839 14.7682916,8.10086677 15.1408814,8.05829097 C14.2331022,8.06434602 13.7596007,8.06742034 13.7203768,8.06751394 Z M6.52448212,7.90750617 C6.69667657,7.96027013 6.597027,7.97742914 6.61067899,8.04113196 C6.6541262,8.04821005 7.07703897,8.11888373 7.4069787,8.14204839 C7.39422355,8.07373408 7.49387312,7.98182613 7.49018608,7.95512242 C7.29457398,7.94525599 6.62552678,7.91329733 6.52448212,7.90750617 Z M11.5800037,7.92445069 C11.568544,7.93667649 11.5003837,8.03598426 11.4935079,8.04274062 C13.1738985,8.05829097 14.2235074,8.05335776 14.4004851,8.053465 C14.4004851,8.03716394 14.3696934,7.96670475 14.4126423,7.93892861 C13.6777267,7.95447896 12.4763515,7.93699822 11.5800037,7.92445069 Z M16.0887481,7.88519945 C15.5654882,7.90750617 15.0112373,7.92616659 14.5246484,7.93667649 C14.5689925,7.95823249 14.4693429,8.02847719 14.4140374,8.053465 C14.5689925,8.05314327 14.9675908,8.05421571 15.1724703,8.05507366 C15.2408299,8.04810281 15.8218865,7.98472172 15.8480944,7.98182613 C15.851881,7.97968126 15.9640864,7.90589751 16.0887481,7.88519945 Z M5.90117406,7.76165458 C5.92927524,7.77623974 5.96793928,7.83801217 5.96793928,7.87554751 C6.00630436,7.87629822 6.29777935,7.88337631 6.40231174,7.88723709 C8.01414352,7.95447896 8.4903688,8.00541977 11.3802063,8.04274062 C11.3156334,8.00584875 11.3980436,7.96262949 11.4808524,7.92284203 C11.3048712,7.91962472 9.83882677,7.88863126 9.79527991,7.88766606 C9.7976715,7.89174133 9.7858132,7.93667649 9.68696082,7.97238868 C9.63195426,7.93667649 9.69812158,7.88991818 9.70001492,7.88541394 C9.60504888,7.88316182 7.69097997,7.82010246 7.59352269,7.81656341 C7.59422023,7.81924451 7.55107197,7.85613638 7.4624835,7.89163408 C7.4294995,7.86686076 7.46088911,7.81645617 7.4624835,7.81366783 C6.99562528,7.79511465 5.90755164,7.76176182 5.90117406,7.76165458 Z M5.96146205,7.88048073 C5.94153214,7.89495864 5.91562325,7.90943656 5.88542943,7.92380723 C5.96285715,7.93892861 6.2980783,7.9988779 6.53016214,8.02847719 C6.49737743,7.98815352 6.48442299,7.92766801 6.49777603,7.90589751 C6.37411092,7.89924839 6.01467492,7.8826256 5.96146205,7.88048073 Z M17.7258908,7.79983338 C17.5331686,7.81077225 16.2008538,7.87951553 16.1858067,7.88026624 C16.1633856,7.90235846 16.0887481,7.93699822 15.9305045,7.97271041 C15.9871055,7.96649027 16.8609326,7.87812136 17.7258908,7.79983338 Z M4.46323079,7.73827543 C4.7036852,7.75050122 5.40123218,7.82696606 5.66978777,7.88412702 C5.60053132,7.83801217 5.72617865,7.77478506 5.7894669,7.75897348 C5.40123218,7.7516809 4.58938714,7.73999133 4.46323079,7.73827543 Z" id="mouth-end-contour-copy" fill="#161616"></path>
                <path d="M2.30713636,8.51675691 C3.60581038,8.2290558 5.02910966,8.190519 8.10135814,8.26696972 C8.19722188,8.26936031 8.19722188,8.26936031 8.29311485,8.27176218 C10.467605,8.32623148 11.3969896,8.33088089 12.465193,8.2628091 C16.8325859,7.98449485 19.2724052,8.06289977 20.0019931,8.67515681 C20.1821997,8.82638294 20.4508791,8.80288962 20.6021052,8.62268301 C20.7533313,8.4424764 20.729838,8.17379707 20.5496314,8.02257093 C19.5558772,7.18863038 17.1426804,7.11108099 12.4110136,7.41260878 C11.3772815,7.47848386 10.4623015,7.47390652 8.31444822,7.42010444 C8.21852866,7.41770191 8.21852866,7.41770191 8.12255112,7.41530848 C4.97480624,7.33697908 3.51545979,7.37649189 2.12287304,7.68499791 C1.89318914,7.73588082 1.74824229,7.96332516 1.7991252,8.19300907 C1.85000811,8.42269297 2.07745245,8.56763982 2.30713636,8.51675691 Z" id="mouth-closed-contour" fill="#000000" fill-rule="nonzero"></path>
                <path d="M0.403643794,4.38212986 C0.0334472642,5.64515332 0.0762418862,9.0294119 0.23994284,9.02990784 C0.403643794,9.03040378 0.373094455,5.69789549 0.730656369,4.47797838 C1.0927103,3.24273554 2.38538968,0.170384977 2.16551552,0.0128893941 C1.94564136,-0.144606189 0.769348303,3.13443213 0.403643794,4.38212986 Z" id="mouth-closed-nasolabial-right" fill="#000000" fill-rule="nonzero"></path>
                <path d="M20.5013617,4.38212986 C20.1311652,5.64515332 20.1537578,9.03040378 20.3376608,9.02990784 C20.5215637,9.0294119 20.4708124,5.69789549 20.8283743,4.47797838 C21.1904282,3.24273554 22.3280894,0.196163765 22.2632334,0.0128893941 C22.1983775,-0.170384977 20.8670662,3.13443213 20.5013617,4.38212986 Z" id="mouth-closed-nasolabial-left" fill="#000000" fill-rule="nonzero" transform="translate(21.237095, 4.517736) scale(-1, 1) translate(-21.237095, -4.517736) "></path>
            </g>
            <path d="M135.078942,68.0670894 C135.101263,68.0653856 135.123754,68.0636817 135.146074,68.0619779 C135.344913,68.0466432 135.543923,68.0296047 135.743614,68.0210855 C136.117098,68.0057508 136.495523,67.9853046 136.868155,68.026197 C137.17127,68.060274 137.477963,68.1182049 137.767277,68.2153243 C138.035974,68.3073322 138.2953,68.4317133 138.53895,68.5782443 C138.772207,68.71796 138.997797,68.8696026 139.217082,69.0314684 C139.391727,69.1592571 139.56109,69.2938612 139.735223,69.4233538 C139.894192,69.5409195 140.057591,69.6516697 140.221672,69.7624199 C140.398191,69.8799856 140.577606,69.9941435 140.745436,70.1236361 C140.92894,70.2667595 141.110571,70.4132905 141.312477,70.5308562 C141.444695,70.5904909 141.579981,70.6381987 141.720549,70.6756834 C141.949887,70.7182796 142.183996,70.7336143 142.416912,70.7267989 C142.571281,70.7148719 142.722924,70.6927219 142.872862,70.6535334 C143.029276,70.5973063 143.17717,70.5274485 143.319271,70.4405521 C143.458135,70.3434327 143.585242,70.237794 143.702978,70.1168207 C143.887164,69.9055433 144.034718,69.6721159 144.169492,69.4267615 C144.231853,69.3040843 144.293532,69.1797033 144.352826,69.0553223 C144.401216,68.9513874 144.44279,68.8457487 144.494075,68.7452216 C144.534797,68.6651407 144.576712,68.5799482 144.63328,68.5100903 C144.688825,68.4419363 144.749823,68.3618554 144.821555,68.3090361 C144.935543,68.2238436 145.047827,68.1642088 145.184986,68.1267241 C145.274439,68.1028702 145.362698,68.0858317 145.455558,68.0807202 C145.570738,68.0756086 145.684555,68.0722009 145.799735,68.0722009 C145.93008,68.0722009 146.060765,68.0790163 146.191621,68.0858317 C146.481957,68.1011664 146.772293,68.1250203 147.062118,68.1488742 C147.202004,68.1608011 147.34172,68.1744319 147.481094,68.184655 C147.650457,68.1999897 147.820161,68.2204359 147.990034,68.218732 C148.061937,68.2119166 148.130943,68.1982858 148.200289,68.1795435 C148.28446,68.1454665 148.363859,68.1062779 148.441725,68.060274 C148.527599,68.0006393 148.607169,67.935893 148.682138,67.8643313 C148.765627,67.7672118 148.837359,67.663277 148.900742,67.5525268 C148.976904,67.390661 149.035857,67.2270915 149.079306,67.0532988 C149.102308,66.9357332 149.116961,66.8181675 149.117813,66.6954903 C149.1035,66.5216977 149.068401,66.3513127 149.016945,66.1809277 C148.971622,66.0497313 148.921359,65.9202387 148.858657,65.7975615 C148.798681,65.6765882 148.730357,65.5641341 148.658625,65.45168 C148.525554,65.2489219 148.380557,65.0597946 148.216135,64.8825942 C148.137077,64.7974017 148.057677,64.7122092 147.980322,64.6253129 C147.814879,64.4412971 147.654035,64.2521698 147.497281,64.0596347 C147.496088,64.0579309 147.49694,64.056227 147.498133,64.056227 C147.498474,64.056227 147.498644,64.056227 147.498814,64.056227 C147.593549,64.1294926 147.687942,64.1993504 147.782505,64.2709121 C147.960728,64.4055162 148.140655,64.5367127 148.321263,64.6679091 C148.716897,64.952452 149.074705,65.2966297 149.33778,65.7106652 C149.495215,65.9560195 149.62556,66.2252278 149.694055,66.5114746 C149.757949,66.778979 149.761527,67.0669296 149.707515,67.3395455 C149.674801,67.5065228 149.638168,67.6769078 149.571037,67.8353658 C149.512254,67.9750815 149.44427,68.1199087 149.354136,68.2442898 C149.185796,68.4760133 148.977586,68.6685484 148.727461,68.808264 C148.467283,68.9547951 148.173198,69.0263568 147.874343,69.012726 C147.77569,69.0093183 147.677548,69.0007991 147.579236,68.9922798 C147.539536,68.9888721 147.500518,68.9837606 147.4615,68.9803529 C147.238296,68.9616105 147.015262,68.944572 146.792569,68.9275335 C146.380237,68.8951604 145.964327,68.8644911 145.550803,68.8730103 C145.4743,68.8798257 145.400523,68.8917527 145.326406,68.910495 C145.320954,68.9121989 145.315501,68.9156066 145.310219,68.9190143 C145.293181,68.9309412 145.276654,68.9462759 145.260978,68.9599067 C145.218723,69.0110222 145.18209,69.0655454 145.147843,69.1234763 C145.049871,69.3177151 144.955819,69.5153617 144.856995,69.7096006 C144.608063,70.2020132 144.29711,70.6893142 143.840138,71.0130457 C143.577404,71.1987653 143.294224,71.3538156 142.980546,71.4338965 C142.705715,71.5054582 142.42032,71.5293121 142.136799,71.519089 C141.817668,71.5088659 141.487803,71.4696774 141.188777,71.3487041 C140.985849,71.2652154 140.802174,71.1578729 140.625314,71.0283803 C140.454418,70.9057031 140.293915,70.7659874 140.12779,70.6364949 C140.050435,70.5768601 139.966095,70.5240408 139.886354,70.4678137 C139.795369,70.4030674 139.704724,70.3366173 139.61442,70.271871 C139.45954,70.1611208 139.307046,70.045259 139.1629,69.9208779 C138.705416,69.5289925 138.239754,69.1336994 137.71139,68.8389333 C137.378799,68.6702522 137.023887,68.5526866 136.66216,68.4640864 C136.297365,68.3857093 135.925926,68.3277784 135.556702,68.2715514 C135.528588,68.2664398 135.500475,68.2630321 135.472361,68.2579206 C135.532507,68.286886 135.592312,68.3175553 135.651947,68.3465208 C135.787233,68.4146748 135.925756,68.4777172 136.067005,68.5322404 C136.068368,68.5339442 136.068198,68.5356481 136.066153,68.5356481 C135.766957,68.5152019 135.474917,68.4538633 135.180833,68.3959324 C135.027145,68.366967 134.869369,68.3380015 134.721645,68.2834783 C134.583292,68.2323628 134.447325,68.1761358 134.317151,68.1062779 C134.045387,67.9614507 133.825079,67.7552849 133.652479,67.5014113 C133.563368,67.3702148 133.495214,67.2304992 133.441032,67.0822642 C133.386508,66.9323255 133.345446,66.7704597 133.333178,66.6120017 C133.32091,66.4467283 133.321762,66.2865664 133.354135,66.1247007 C133.386338,65.9645388 133.421097,65.8026731 133.482606,65.6510304 C133.602557,65.349449 133.749769,65.0614984 133.904819,64.7769555 C133.905331,64.7769555 133.906012,64.7769555 133.906694,64.7769555 C133.907375,64.7769555 133.908057,64.7769555 133.907716,64.7786593 C133.882669,64.9711944 133.858816,65.1654332 133.831384,65.3579683 C133.817412,65.45168 133.803952,65.5470956 133.792706,65.6425112 C133.770727,65.8333424 133.7634,66.0224697 133.766978,66.2133009 C133.778223,66.3802781 133.809574,66.54044 133.856771,66.7006019 C133.924755,66.8931369 134.012503,67.073745 134.118482,67.2492415 C134.211342,67.3889572 134.314084,67.5201536 134.434546,67.6377193 C134.606976,67.7859542 134.796955,67.9154468 134.994943,68.026197 C135.022886,68.0398278 135.050829,68.0534586 135.078942,68.0670894 Z" id="Path" fill="#161616"></path>
        </g>
    </g>
</svg>