<?xml version="1.0" encoding="UTF-8"?>
<svg width="1280px" height="481px" viewBox="0 0 1280 481" version="1.1" xmlns="http://www.w3.org/2000/svg" xmlns:xlink="http://www.w3.org/1999/xlink">
    <!-- Generator: Sketch 46.1 (44463) - http://www.bohemiancoding.com/sketch -->
    <title>waves</title>
    <desc>Created with Sketch.</desc>
    <defs></defs>
    <g id="Frontpage" stroke="none" stroke-width="1" fill="none" fill-rule="evenodd">
        <g id="Animate-to-Work-1" transform="translate(0.000000, -369.000000)">
            <g id="waves" transform="translate(0.000000, 371.000000)">
                <g id="lime-layer">
                    <path d="M0,509 L1280,509 C1279.99357,207.997975 1279.99357,45.9828066 1280,22.9544962 C1249.71357,21.3241422 1209.37293,29.8424362 1178.68843,60.2781879 C1164.29514,74.5547916 1127.53952,87.0209637 1101.97717,83.2905856 C1076.41483,79.5602075 1065.44801,32.0694424 1016.49892,38.0081257 C967.549832,43.9468089 951.484127,68.4220596 885.724494,62.5051941 C809.257272,55.6248902 796.599285,25.3545541 750.572185,25.3545541 C681.89683,29.0672701 662.51145,73.4647165 615.413242,72.895007 C547.802223,72.0771702 488.789736,3.82090116 408.007362,0.108546403 C327.224987,-3.60380835 356.651411,89.1556162 300.863478,86.9279866 C255.844146,85.1303506 232.113229,25.3545541 182.904626,25.3545541 C142.979604,25.3545541 147.83636,54.3137388 100.348082,60.2781879 C35.6467089,68.4045735 47.1664309,39.6945426 18.5841761,27.5879151 C14.4221655,25.8250062 6.22179636,23.8482947 0,22.9544962 C2.21765321e-13,54.373974 2.21765321e-13,216.389142 0,509 Z" id="bg-end0" fill="#BEDB39"></path>
                    <path d="M0,23.3489897 C41.3930348,28.2298103 36.6169154,62.3955543 78.0099502,62.3955543 C149.651741,62.3955543 130.547264,29.8567505 181.492537,26.6028701 C232.437811,23.3489897 253.586415,91.1443426 308.855721,86.7996572 C350.248756,83.5457768 332.736318,8.70652801 394.825871,0.571827052 C456.915423,-7.56287391 560.39801,73.7841357 612.935323,73.7841357 C666.380148,73.7841357 670.248756,39.6183917 732.338308,28.2298103 C794.427861,16.841229 813.532338,65.6494347 901.094527,64.0224945 C951.650757,63.0831397 990.248756,36.3645113 1026.86567,37.9914515 C1063.48259,39.6183917 1076.50507,83.5203606 1109.65174,85.172717 C1174.92537,88.4265974 1187.66169,20.0951094 1280,23.3489897" id="wave-end0" stroke="#FFFFFF" stroke-width="3" stroke-linecap="round" stroke-linejoin="round" stroke-dasharray="4.5,4.5"></path>
                    <path d="M1280,71.5 L0,71.5" id="wave-start0" stroke="#FFFFFF" stroke-width="3" stroke-linecap="round" stroke-linejoin="round" stroke-dasharray="4.5,4.5"></path>
                </g>
                <g id="green-layer" transform="translate(0.000000, 104.000000)">
                    <path d="M1280,29.6986405 C1249.71357,31.3279723 1243.8436,57.5684762 1167.37638,64.4418023 C1101.61674,70.3526669 1085.55104,45.9022387 1036.60195,39.9695784 C987.652867,34.036918 976.686046,81.4795187 951.123698,85.2061135 C925.561349,88.9327083 888.805729,76.4791792 874.412443,62.2170547 C843.727941,31.8121704 801.793275,23.3025156 771.506849,24.9312161 C763.945751,26.1518965 756.737686,27.9456441 752.922673,29.5599358 C724.340418,41.654285 735.86014,70.3351986 671.158767,62.2170547 C623.67049,56.2586546 628.527245,27.3288399 588.602223,27.3288399 C539.39362,27.3288399 515.662704,87.0440126 470.643371,88.8398255 C414.855438,91.0651959 444.281862,-1.60015342 363.499488,2.10843632 C282.717113,5.81702606 223.704626,74.0040706 156.093607,74.8210779 C108.995399,75.3902097 71.7310087,16.6639861 0,29.5599358 L0,405 L1280,405 L1280,29.6986405 Z" id="bg-end1" fill="#1F8A70"></path>
                    <path d="M1280,29.4051466 C1201.8929,17.9671729 1177.98257,73.5230451 1122.19178,74.0973522 C1066.401,75.1570413 965.977584,-7.60245993 903.81071,0.567521277 C841.643836,8.73750249 859.178082,85.5353258 817.733499,88.8033183 C762.395364,93.1668466 741.220423,23.4434687 690.211706,26.7114611 C639.202989,29.9794536 658.331258,62.6593785 586.600249,62.6593785 C545.155666,62.6593785 556.313823,29.4051466 497.334994,24.5031578 C438.356164,19.6011691 392.129514,90.4373146 337.932752,86.595015 C305.538722,84.2984282 293.471822,43.5374857 258.231631,39.209124 C222.991441,34.8807623 186.413401,67.0461604 124.333748,65.3530639 C89.864413,64.4129827 30.2864259,44.5 0,29.4051466" id="wave-end1" stroke="#FFFFFF" stroke-width="3" stroke-linecap="round" stroke-linejoin="round" stroke-dasharray="4.5,4.5" transform="translate(640.000000, 44.500000) scale(-1, 1) translate(-640.000000, -44.500000) "></path>
                    <path d="M1280,48.5 L0,48.5" id="wave-start1" stroke="#FFFFFF" stroke-width="3" stroke-linecap="round" stroke-linejoin="round" stroke-dasharray="4.5,4.5"></path>
                </g>
                <g id="blue-layer" transform="translate(0.000000, 203.000000)">
                    <path d="M2.27373675e-13,306 L1280,306 L1280,2.52576941 L1259.27771,1 C1185.95268,4.16032263 1113.17571,72.2077177 1052.05479,74.4461113 C1007.42217,76.0806646 985.450617,30.0220625 916.775262,26.301226 C870.748163,26.301226 858.090175,56.6377698 781.622953,63.5331224 C715.86332,69.4629292 699.797615,44.9341461 650.848528,38.9824736 C601.899442,33.0308012 590.932622,80.6254387 565.370273,84.3639759 C539.807924,88.102513 503.052304,75.6090749 488.659018,61.3012452 C457.974516,30.7989241 415.372676,20.6198781 387.347447,25.4095146 C339.526775,33.5822807 350.106716,69.4454049 285.405342,61.3012452 C237.917065,55.3237506 242.773821,26.301226 202.848799,26.301226 C153.640196,26.301226 132.303861,84.3639759 84.8899466,88.0093327 C37.4760327,91.6546894 51.0087173,15.6021952 0,2.52576941 L2.27373675e-13,306 Z" id="bg-end2" fill="#004358"></path>
                    <path d="M0,2.6660195 C76.513076,-11.9928299 173.748443,74.9039727 226.351183,74.9039727 C279.862564,74.9039727 283.73599,40.6999907 345.902864,29.2986633 C408.069738,17.897336 427.198007,66.7601675 514.86924,65.1314064 C565.488429,64.1910003 604.134496,37.4424686 640.797011,39.0712296 C677.459527,40.6999907 690.498226,84.6510943 723.686177,86.3053001 C789.041096,89.5628222 804.98132,23.3560862 875.118306,24.4123802 C945.255293,25.4686742 917.419602,58.1168438 973.947696,62.9301783 C1031.3325,67.8164615 1028.14446,27.0974352 1080.7472,27.0974352 C1133.34994,27.0974352 1151.22892,90.3212518 1198.70486,87.9340611 C1250.87722,85.3107244 1221.02117,17.3248689 1280,2.6660195" id="wave-end2" stroke="#FFFFFF" stroke-width="3" stroke-linecap="round" stroke-linejoin="round" stroke-dasharray="4.5,4.5" transform="translate(640.000000, 44.500000) scale(-1, 1) translate(-640.000000, -44.500000) "></path>
                    <path d="M1280,46.5 L0,46.5" id="wave-start2" stroke="#FFFFFF" stroke-width="3" stroke-linecap="round" stroke-linejoin="round" stroke-dasharray="4.5,4.5"></path>
                </g>
                <g id="footer" transform="translate(0.000000, 299.000000)">
                    <path d="M0,210 L1280,210 C1280,94.2634511 1279.99357,24.8890555 1280,1.87681304 C1271.6768,-0.196880203 1265.51071,-0.664844599 1258.20313,1.04213078 C1215.82463,10.9413151 1204.86467,45.29562 1174.17679,75.7101353 C1159.78192,89.9767775 1123.02225,102.434251 1097.45709,98.7064761 C1071.89192,94.9787009 1060.92389,47.5210724 1011.96942,53.4556119 C963.01494,59.3901515 946.947465,83.8483246 881.18059,77.9355876 C804.704946,71.0600844 792.045565,40.8108693 746.013396,40.8108693 C677.330478,44.5209948 653.949059,98.6888264 610.839568,96.4804008 C587.251855,95.2720426 576.498109,53.4252959 535.580626,34.8746686 C499.047159,24.4863174 469.089716,14.8399912 416.481524,50.4571955 C363.873331,86.0743998 305.070053,96.4804008 294.459744,96.4804008 C279.987943,96.4804008 248.346194,91.2272525 232.35285,83.1062995 C210.43277,71.9759231 200.934069,40.0688443 178.283319,40.8108693 C155.632569,41.5528944 143.211191,69.7498478 95.7176835,75.7101353 C21.5866435,85.0133503 48.9548458,8.90379048 0,1.87681304 L0,210 Z" id="bg-end3" fill="#F1CD00"></path>
                    <path d="M2,1.84895167 C42.6982544,1.84895167 23.5461347,61.3887081 73.0224439,74.4385177 C122.123044,87.3892306 151.226933,40.1827674 181.551122,40.1827674 C211.875312,40.1827674 217.878226,101.729278 296.46384,95.6444583 C401.800499,87.4883273 425.740648,22.2392792 499.157107,25.5017316 C570.163273,28.6570763 586.937656,94.0132321 614.069825,95.6444583 C653.234978,97.9991253 685.890274,40.1827674 743.346633,40.1827674 C797.610973,40.1827674 819.955112,74.4385177 888.583541,77.7009701 C957.035555,80.9550361 998.75027,45.6297367 1032.22444,53.2325771 C1075.31671,63.0199343 1081.70075,115.219173 1137.5611,97.2756845 C1214.21702,72.6522319 1210.97756,-13.6476973 1282,1.84895167" id="wave-end3" stroke="#FFFFFF" stroke-width="3" stroke-linecap="round" stroke-linejoin="round" stroke-dasharray="4.5,4.5"></path>
                    <path d="M1280,53.5 L0,53.5" id="wave-start3" stroke="#FFFFFF" stroke-width="3" stroke-linecap="round" stroke-linejoin="round" stroke-dasharray="4.5,4.5"></path>
                </g>
                <g id="circles" transform="translate(631.000000, 63.000000)" fill-rule="nonzero" fill="#FFFFFF">
                    <circle id="circle0" cx="9" cy="9" r="9"></circle>
                    <circle id="circle1" cx="9" cy="90" r="9"></circle>
                    <circle id="circle2" cx="9" cy="186" r="9"></circle>
                    <circle id="circle3" cx="9" cy="290" r="9"></circle>
                </g>
            </g>
        </g>
    </g>
</svg>