<svg xmlns="http://www.w3.org/2000/svg" width="1275" height="835" viewBox="0 0 1275 835">
  <g fill="none" fill-rule="evenodd">
    <g transform="translate(-1 2)">
      <path fill="#BEDB39" d="M1,64.4988761 L106,64.4988761 L174,64.4988761 L245,64.4988761 L379,64.4988761 L429,64.4988761 L488,64.4988761 L643,64.4988761 L809,64.4988761 L928,64.4988761 L1054,64.4988761 C1082,64.4988761 1113,64.4988761 1147,64.4988761 C1198,64.4988761 1235.5,64.4988761 1249,64.4988761 C1258,64.4988761 1267,64.4988761 1276,64.4988761 L1276,832.501 L1,832.501 L1,64.4988761 Z"/>
      <path fill="#BEDB39" fill-rule="nonzero" d="M1276,51.374 C1218.268,21.909 1175,-4.822 1139.5,2.822 C1081.205,15.372 1066.128,58.927 1023.914,97.489 C1004.111,115.575 950.544,131.346 918.38,126.644 C886.218,121.941 868.127,61.749 800.786,69.274 C733.446,76.797 706.759,107.507 620.876,100.31 C553.536,94.667 505.29,58.928 434.936,53.286 C364.581,47.642 304.066,128.97 249.999,121.942 C213.816,117.24 201.754,73.977 147.479,45.762 C126.085,34.639 60.283,38.704 0.999,52.385 L1.001,832.501 L1276,832.501 L1276,51.375 L1276,51.374 Z"/>
      <path stroke="#FFF" stroke-dasharray="25.102 15.061" stroke-linecap="round" stroke-width="4" d="M1,51.853 C34,43.506 69.177,39.377 106.447,39.493 C197.155,39.776 203.402,126.628 258.627,122.623 C300.157,119.833 343.262,74.046 399.757,57.707 C424.537,50.539 451.287,51.762 482.125,62.575 C607.269,108.118 628.697,104.709 681.93,99.695 C735.16,94.679 751.446,66.387 818.877,69.745 C850.669,71.495 873.377,91.277 885.18,105.703 C900.395,124.303 916.618,135.246 965.05,123.873 C1042.764,113.106 1044.112,50.009 1114.362,10.519 C1162.796,-16.711 1210.847,16.461 1276.002,51.432"/>
      <path stroke="#FFF" stroke-dasharray="16.813 10.088" stroke-linecap="round" stroke-width="4" d="M1,64.5 L1276,64.5"/>
      <circle cx="638.5" cy="64.5" r="7.5" fill="#FFF" fill-rule="nonzero"/>
    </g>
    <g transform="translate(0 118)">
      <path fill="#1F8A70" d="M0,63.4991559 L94,63.4991559 L258,63.4991559 L316,63.4991559 L389,63.4991559 L517,63.4991559 L570,63.4991559 L630,63.4991559 L780,63.4991559 L951,63.4991559 L1070,63.4991559 L1192,63.4991559 C1210.33333,63.4991559 1225.66667,63.4991559 1238,63.4991559 C1250.33333,63.4991559 1262.66667,63.4991559 1275,63.4991559 L1275,73 L1275,716.5 L0,716.5 L0,63.4991559 Z"/>
      <path fill="#1F8A70" fill-rule="nonzero" d="M1275,1.5 C1219.664,15.06 1204.346,57.66 1163.015,95.465 C1143.215,113.577 1089.645,129.369 1057.481,124.66 C1025.321,119.95 1007.229,59.678 939.888,67.212 C872.548,74.747 845.862,105.498 759.978,98.292 C692.638,92.64 644.393,56.852 574.038,51.202 C503.684,45.552 443.168,126.988 389.101,119.952 C352.918,115.244 340.858,71.922 286.583,43.669 C260.506,30.094 168.459,39.109 102.653,60.619 C59.433,74.746 35.721,96.957 7.17,109.592 C3.088,111.398 2.584,111.354 0.168,112.02 L-2.27373675e-13,715.283 L1275,716.5 L1275,1.5 Z"/>
      <path stroke="#FFF" stroke-dasharray="25.069 15.042" stroke-linecap="round" stroke-width="4" d="M0,111.758 C11.37,107.852 22.787,102.633 34.138,95.913 C94.202,56.953 164.918,37.473 245.382,37.723 C336.09,38.005 342.337,124.633 397.562,120.637 C439.092,117.854 482.197,72.187 538.692,55.89 C563.472,48.74 590.222,49.96 621.06,60.745 C746.205,106.17 767.632,102.77 820.865,97.768 C874.095,92.766 890.381,64.548 957.812,67.896 C989.604,69.643 1012.312,89.373 1024.116,103.762 C1039.33,122.312 1055.553,133.229 1103.986,121.885 C1181.699,111.145 1183.046,48.213 1253.296,8.825 C1260.522,4.775 1267.736,2.063 1275.001,0.499"/>
      <path stroke="#FFF" stroke-dasharray="16.813 10.088" stroke-linecap="round" stroke-width="4" d="M0,63.5 L1275,63.5"/>
      <circle cx="637.5" cy="63.5" r="7.5" fill="#FFF" fill-rule="nonzero"/>
    </g>
    <g transform="translate(-1 279)">
      <path fill="#004358" d="M1,42.5 L63,42.5 L130,42.5 L238,42.5 L360,42.5 L558,42.5 C612.666667,42.5 655.666667,42.5 687,42.5 C718.333333,42.5 752,42.5 788,42.5 L865,42.5 L974,42.5 L1076,42.5 L1184,42.5 L1276,42.5 L1276,556 L1,556 L1,42.5 Z"/>
      <path fill="#004358" fill-rule="nonzero" d="M1241.064,30.445 C1173.724,37.975 1147.038,68.703 1061.154,61.501 C993.814,55.856 945.569,20.094 875.214,14.448 C804.86,8.802 744.344,90.178 690.277,83.148 C654.094,78.442 642.034,35.152 587.759,6.92 C561.681,-6.645 469.633,2.364 403.827,23.858 C360.607,37.974 336.895,60.168 308.344,72.795 C288.904,81.39 261.628,83.145 247.034,83.145 C227.124,83.145 197.511,83.665 168.637,68.088 C138.012,51.568 109.665,15.761 72.149,4.095 C57.287,-0.527 32.779,-0.362 0.999,6.305 L0.999,555.5 L1275.999,555.5 L1275.999,33.052 C1265.982,30.138 1254.5,28.942 1241.064,30.445 Z"/>
      <path stroke="#FFF" stroke-dasharray="25.115 15.069" stroke-linecap="round" stroke-width="4" d="M1,6.85 C12.594,4.27 24.86,2.17 37.962,0.94 C102.158,-5.09 128.549,52.594 172.15,70.116 C218.444,88.72 277.82,93.349 335.482,59.088 C395.546,19.988 466.262,0.438 546.726,0.688 C637.434,0.972 643.681,87.912 698.906,83.901 C740.436,81.109 783.541,35.277 840.036,18.921 C864.816,11.746 891.566,12.971 922.404,23.795 C1047.548,69.385 1068.976,65.972 1122.209,60.952 C1175.439,55.932 1191.724,27.612 1259.155,30.972 C1265.093,31.3 1270.705,32.257 1275.999,33.692"/>
      <path stroke="#FFF" stroke-dasharray="16.813 10.088" stroke-linecap="round" stroke-width="4" d="M1,42.5 L1276,42.5"/>
      <circle cx="638.5" cy="42.5" r="7.5" fill="#FFF" fill-rule="nonzero"/>
    </g>
  </g>
</svg>
