<svg viewBox="0 0 803 358" xmlns="http://www.w3.org/2000/svg"><g id="Page-1" fill="none" fill-rule="evenodd"><g id="waves"><g id="lime-layer" transform="translate(0 3)"><path d="M0 205h804c-.004-113.165-.004-176.807 0-190.926-19-1-45.307 4.223-64.557 22.884-9.03 8.753-32.088 16.397-48.125 14.11-16.036-2.288-22.916-31.405-53.624-27.764-30.708 3.64-40.786 18.647-82.04 15.02-47.972-4.22-55.912-22.778-84.787-22.778-43.083 2.276-55.245 29.497-84.79 29.148-42.417-.502-79.44-42.35-130.117-44.627-50.677-2.277-32.217 54.597-67.215 53.23-28.243-1.1-43.13-37.75-74-37.75-25.048 0-22 17.754-51.792 21.41-40.59 4.984-33.363-12.62-51.294-20.042-2.614-1.08-7.76-2.293-11.66-2.84V205z" id="bg-end1" fill="#BEDB39"/><path d="M0 14.35c25.968 3 22.97 24 48.94 24 44.943 0 32.958-20 64.918-22 31.96-2 45.228 39.672 79.9 37 25.968-2 14.982-48 53.934-53 38.95-5 103.87 45 136.83 45 33.527 0 35.954-21 74.906-28 38.95-7 50.936 23 105.868 22 31.716-.576 55.93-17 78.902-16 22.97 1 31.14 27.986 51.935 29 40.95 2 48.94-40 106.867-38" id="wave-end1" stroke="#FFF" stroke-width="3" stroke-linecap="round" stroke-linejoin="round" stroke-dasharray="4.5 4.5"/><path d="M803 44H0" id="wave-start1" stroke="#FFF" stroke-width="3" stroke-linecap="round" stroke-linejoin="round" stroke-dasharray="4.5 4.5"/><circle id="circle" fill="#FFF" fill-rule="nonzero" cx="401.5" cy="43.5" r="5.5"/></g><g id="green-layer" transform="translate(0 79)"><path d="M803 18c-19 1-22.682 17.105-70.654 21.324-41.254 3.627-51.332-11.38-82.04-15.02-30.708-3.64-37.588 25.476-53.624 27.764-16.037 2.287-39.095-5.357-48.125-14.11C529.307 19.298 503 14.074 484 15.074c-4.743.75-9.265 1.85-11.66 2.84-17.93 7.424-10.703 25.027-51.293 20.044-29.79-3.657-26.744-21.412-51.79-21.412-30.872 0-45.76 36.65-74.002 37.752-34.998 1.366-16.538-55.508-67.216-53.23-50.68 2.275-87.7 44.124-130.118 44.626C68.378 46.044 45 10 0 17.914V206h803V18z" id="bg-end2" fill="#1F8A70"/><path d="M0 18c49-7 64 27 99 27.35 35 .65 98-50 137-45s28 52 54 54c34.716 2.672 48-40 80-38s20 22 65 22c26 0 19-20.35 56-23.35s66 40.35 100 38c20.322-1.406 27.892-26.35 50-29 22.108-2.65 45.055 17.036 84 16 21.624-.575 59-12.762 78-22" id="wave-end2" stroke="#FFF" stroke-width="3" stroke-linecap="round" stroke-linejoin="round" stroke-dasharray="4.5 4.5"/><path d="M803 30H0" id="wave-start2" stroke="#FFF" stroke-width="3" stroke-linecap="round" stroke-linejoin="round" stroke-dasharray="4.5 4.5"/><circle id="circle" fill="#FFF" fill-rule="nonzero" cx="401.5" cy="29.5" r="5.5"/></g><g id="blue-layer" transform="translate(0 152)"><path d="M0 206h803V2l-13-.933C744 3 698.344 44.63 660 46c-28 1-41.784-27.178-84.867-29.454-28.875 0-36.815 18.56-84.787 22.778-41.254 3.627-51.332-11.38-82.04-15.02-30.708-3.64-37.588 25.476-53.624 27.764-16.037 2.287-39.095-5.357-48.125-14.11C287.307 19.298 260.58 13.07 243 16c-30 5-23.363 26.94-63.953 21.958-29.79-3.657-26.744-21.412-51.79-21.412-30.872 0-44.257 35.522-74.002 37.752C23.51 56.528 32 10 0 2v204z" id="bg-end3" fill="#004358"/><path d="M803 2c-48-9-109 44.35-142 44.35-33.57 0-36-21-75-28s-51 23-106 22c-31.756-.576-56-17-79-16s-31.18 27.986-52 29c-41 2-51-38.647-95-38C210 16 227.463 36.046 192 39c-36 3-34-22-67-22S80.784 55.817 51 54.35C18.27 52.74 37 11 0 2" id="wave-end3" stroke="#FFF" stroke-width="3" stroke-linecap="round" stroke-linejoin="round" stroke-dasharray="4.5 4.5"/><path d="M803 29H0" id="wave-start3" stroke="#FFF" stroke-width="3" stroke-linecap="round" stroke-linejoin="round" stroke-dasharray="4.5 4.5"/><circle id="circle" fill="#FFF" fill-rule="nonzero" cx="401.5" cy="28.5" r="5.5"/></g><g id="yellow-layer" transform="translate(0 229)"><path d="M0 129h802.994c0-71.095.002-113.71.006-127.847-5.222-1.274-9.09-1.56-13.674-.513-26.586 6.08-33.462 27.184-52.714 45.868-9.03 8.763-32.09 16.416-48.13 14.126-16.037-2.29-22.918-31.442-53.63-27.797-30.71 3.646-40.79 18.67-82.05 15.038-47.975-4.224-55.917-22.805-84.795-22.805-43.088 2.28-57.756 35.553-84.8 34.197-14.798-.743-21.545-26.45-47.214-37.844-22.92-6.38-41.712-12.307-74.716 9.572-33.003 21.88-69.893 28.272-76.55 28.272-9.078 0-28.93-3.227-38.962-8.216-13.75-6.834-19.71-26.434-33.92-25.98-14.21.457-22.002 17.778-51.797 21.44C13.542 52.22 30.712 5.468 0 1.153V129z" id="bg-end4" fill="#F1CD00"/><path d="M1 1.133c25.532 0 13.517 36.5 44.555 44.5 30.803 7.94 49.062-21 68.085-21 19.024 0 22.79 37.73 72.09 34 66.082-5 81.1-45 127.158-43 44.546 1.935 55.07 42 72.09 43 24.57 1.444 45.056-34 81.1-34 34.044 0 48.06 21 91.115 23 42.943 1.995 69.112-19.66 90.112-15 27.034 6 31.04 38 66.082 27 48.09-15.095 46.058-68 90.613-58.5" id="wave-end4" stroke="#FFF" stroke-width="3" stroke-linecap="round" stroke-linejoin="round" stroke-dasharray="4.5 4.5"/><path d="M803 33H0" id="wave-start4" stroke="#FFF" stroke-width="3" stroke-linecap="round" stroke-linejoin="round" stroke-dasharray="4.5 4.5"/><circle id="circle" fill="#FFF" fill-rule="nonzero" cx="401.5" cy="32.5" r="5.5"/></g></g></g></svg>