<?xml version="1.0" encoding="UTF-8"?>
<svg width="382px" height="1555px" viewBox="0 0 382 1555" version="1.1" xmlns="http://www.w3.org/2000/svg" xmlns:xlink="http://www.w3.org/1999/xlink">
    <!-- Generator: Sketch 46.2 (44496) - http://www.bohemiancoding.com/sketch -->
    <title>Artboard</title>
    <desc>Created with Sketch.</desc>
    <defs></defs>
    <g id="Page-1" stroke="none" stroke-width="1" fill="none" fill-rule="evenodd">
        <g id="Artboard">
            <g id="weight" transform="translate(135.000000, 26.000000)" fill="#FFFFFF">
                <path d="M32.0169,1329.5554 C27.6299,1327.6574 23.2389,1325.5244 19.3839,1322.7004 C17.8719,1321.4694 16.4459,1320.1734 15.1609,1318.7044 C14.7859,1318.1494 14.4499,1317.5834 14.1499,1316.9854 C13.9109,1316.2704 13.7199,1315.5514 13.5679,1314.8174 C13.5519,1314.3644 13.5599,1313.9234 13.5869,1313.4694 C13.7939,1312.4154 14.0679,1311.3954 14.4309,1310.3804 C14.9969,1309.2124 15.6419,1308.1184 16.3879,1307.0634 C17.0989,1306.2314 17.8529,1305.4654 18.6769,1304.7474 C19.5909,1304.1144 20.5359,1303.5554 21.5319,1303.0634 C24.9389,1301.8094 28.5209,1301.0594 32.0829,1300.4074 C34.1609,1300.0244 36.2469,1299.5514 38.3369,1299.2514 C40.9929,1298.8994 43.6529,1298.5514 46.3099,1298.1964 C48.8289,1297.8644 51.4029,1297.8134 53.9389,1297.6414 C56.1069,1297.4974 58.2549,1297.3444 60.4269,1297.3174 C64.0559,1297.2704 67.6809,1297.2234 71.3099,1297.1804 C76.6769,1297.1104 82.0479,1297.1804 87.4149,1297.1844 C92.3409,1297.1924 97.2709,1297.1964 102.1999,1297.2234 C113.0989,1297.2864 123.9969,1297.3484 134.8959,1297.5364 C145.8919,1297.7234 156.9029,1297.8524 167.8839,1298.5444 L176.4389,1299.0834 C179.5639,1299.2824 182.6729,1299.6334 185.7779,1300.0364 C194.9699,1301.3524 204.1929,1303.3874 212.8449,1306.7984 C215.6069,1308.0204 218.2709,1309.4304 220.7359,1311.1764 C221.8639,1312.1334 222.9029,1313.1494 223.8679,1314.2744 C224.4389,1315.0944 224.9499,1315.9344 225.4149,1316.8254 C225.5519,1317.2234 225.6729,1317.6224 225.7749,1318.0324 C225.7779,1318.2984 225.7779,1318.5594 225.7709,1318.8254 C225.6959,1319.1534 225.6109,1319.4734 225.5089,1319.7984 C225.1809,1320.4584 224.8209,1321.0904 224.4109,1321.7044 C224.0559,1322.0874 223.6929,1322.4424 223.3019,1322.7904 C221.5209,1324.0324 219.6259,1325.0244 217.6419,1325.9154 C211.7509,1328.2704 205.5599,1329.7514 199.4309,1331.3444 C197.1259,1331.9424 194.7429,1332.2584 192.3999,1332.6764 C188.6569,1333.3404 184.9309,1333.9894 181.1649,1334.5124 C173.5009,1335.5014 165.8249,1336.1144 158.0949,1336.3254 C152.3019,1336.4894 146.4699,1336.5834 140.6769,1336.4154 C133.6959,1336.2124 126.7159,1336.0084 119.7349,1335.8094 C117.8529,1335.7554 115.9499,1335.7664 114.0709,1335.6414 C111.6649,1335.4854 109.2629,1335.3214 106.8599,1335.1614 C99.5129,1334.6694 92.1569,1334.3134 84.8139,1333.8014 C74.2239,1333.0634 63.6099,1332.2354 53.0789,1330.8684 C43.4889,1329.5364 34.1179,1327.0984 24.6809,1324.9694 C24.6689,1324.9654 24.6569,1324.9854 24.6729,1324.9934 C27.4619,1326.6804 30.2629,1328.3684 33.0989,1329.9974 C32.7349,1329.8484 32.3759,1329.7044 32.0169,1329.5554 M102.3489,1285.5444 C98.7669,1285.5514 95.1849,1285.5404 91.6029,1285.5324 C84.9229,1285.5124 78.2429,1285.4894 71.5679,1285.5834 C67.9779,1285.6334 64.3919,1285.6884 60.8019,1285.7394 C58.6609,1285.7664 56.5479,1285.8954 54.4149,1286.0364 C51.8019,1286.2084 49.1459,1286.2554 46.5479,1286.5794 C43.4309,1286.9694 40.3139,1287.3564 37.1959,1287.7474 C34.0249,1288.1454 30.8719,1288.7354 27.7159,1289.2514 C25.0639,1289.6884 22.4459,1290.2314 19.8369,1290.8724 C17.9859,1291.3294 16.2589,1292.0404 14.5279,1292.8254 C12.5679,1293.7194 10.8639,1295.0514 9.2039,1296.3994 C8.0009,1297.3724 6.9889,1298.5834 6.0439,1299.7984 C4.8489,1301.3374 3.8059,1302.8604 2.9539,1304.6104 C2.0989,1306.3724 1.4309,1308.1884 1.0089,1310.0944 C0.7549,1311.2554 0.6499,1312.4464 0.5049,1313.6224 C0.3329,1315.0594 0.6529,1316.5084 0.8529,1317.9234 C1.1109,1319.7904 1.8529,1321.7004 2.6769,1323.3804 C3.4309,1324.9114 4.4349,1326.2474 5.5049,1327.5634 C5.2819,1332.4194 5.1529,1337.2744 5.0989,1342.1334 C5.0399,1347.2784 5.1809,1352.4264 5.3719,1357.5674 C5.5749,1362.8994 5.7319,1368.2274 6.0559,1373.5554 C6.2199,1376.2824 6.2159,1379.0244 6.3529,1381.7554 C6.4929,1384.4894 6.6419,1387.2194 6.7779,1389.9544 C7.0359,1395.1024 7.1609,1400.2704 7.2709,1405.4224 C7.5009,1416.3444 7.6999,1427.2704 7.8449,1438.1964 C7.9029,1442.6334 8.0319,1447.0754 8.0049,1451.5124 C7.9779,1455.9544 8.0359,1460.3954 7.8569,1464.8334 C7.6569,1469.7864 7.4309,1474.7274 7.1499,1479.6764 C6.9229,1483.7004 6.4539,1487.7044 5.9859,1491.7044 C5.8059,1492.9544 5.6139,1494.2084 5.3879,1495.4504 C5.1929,1496.5204 5.0909,1497.6104 4.9579,1498.6884 C4.8289,1499.7434 5.0319,1500.8054 5.1769,1501.8444 C5.4819,1504.0014 6.6379,1506.1804 8.1069,1507.7864 C9.3839,1509.1804 10.9069,1510.3484 12.5169,1511.3374 C14.1769,1512.3604 16.0789,1513.0364 17.8639,1513.7864 C20.1809,1514.7584 22.6379,1515.4304 25.0709,1516.0474 C27.8489,1516.7554 30.6099,1517.4304 33.4109,1518.0284 C36.1339,1518.6104 38.8569,1519.1414 41.5909,1519.6534 C52.8209,1521.7514 64.1769,1523.0984 75.5089,1524.5084 C78.2939,1524.8524 81.0749,1525.2474 83.8569,1525.6184 C86.4149,1525.9584 88.9889,1526.2044 91.5519,1526.4894 C93.8099,1526.7394 96.0439,1526.9894 98.3099,1527.1144 C101.5249,1527.2984 104.7429,1527.4774 107.9619,1527.6574 C110.8839,1527.8214 113.8329,1527.7904 116.7629,1527.8564 C119.1689,1527.9114 121.5789,1527.9114 123.9889,1527.9264 C129.7669,1527.9584 135.5399,1527.8404 141.3179,1527.7394 C143.6769,1527.6964 146.0399,1527.4234 148.3919,1527.2474 C151.1959,1527.0404 154.0169,1526.9154 156.8019,1526.5014 L166.6109,1525.0364 C169.3289,1524.6334 172.0249,1523.9464 174.7159,1523.3914 C185.1299,1521.2434 195.5639,1519.1534 206.0209,1517.2274 C211.4969,1516.2154 216.9859,1515.3094 222.4539,1514.2474 C224.8249,1513.7864 227.1849,1513.3094 229.5399,1512.7624 C230.7749,1512.4774 232.0129,1512.1884 233.2469,1511.8954 C233.7979,1511.7624 234.3489,1511.6024 234.8959,1511.4504 L235.9389,1511.1574 C236.3019,1511.0754 236.6499,1510.9544 236.9859,1510.7904 C238.1179,1510.4734 239.1069,1509.8994 239.9429,1509.0674 C242.8019,1506.8404 244.0989,1503.0754 244.8059,1499.6414 C245.2359,1497.5484 245.4189,1495.3874 245.6529,1493.2664 C245.8959,1491.1104 245.9889,1488.9424 246.0789,1486.7784 C246.2239,1483.3724 246.2239,1479.9654 246.2749,1476.5594 C246.3449,1471.6144 246.2819,1466.6614 246.1459,1461.7194 C246.0709,1459.0874 246.0679,1456.4464 245.9109,1453.8174 C245.7239,1450.6614 245.5359,1447.5054 245.3449,1444.3444 C245.0169,1438.8804 244.5989,1433.4344 244.0909,1427.9854 C243.6179,1422.8994 243.0209,1417.8254 242.5989,1412.7354 C242.1529,1407.4194 241.6259,1402.0984 241.2589,1396.7744 C240.8609,1391.0124 240.4459,1385.2514 240.0129,1379.4934 C239.7979,1376.6334 239.6999,1373.7664 239.4929,1370.9074 C239.2979,1368.1694 239.1139,1365.4264 238.8919,1362.6884 C238.6689,1360.0054 238.3099,1357.3214 237.9889,1354.6454 C237.6889,1352.1104 237.4389,1349.5674 237.1379,1347.0324 C236.8059,1344.2194 236.5319,1341.3994 236.1109,1338.5984 C235.6999,1335.8874 235.2669,1333.1804 234.8489,1330.4734 L234.5319,1328.4234 C234.8329,1328.0514 235.1219,1327.6734 235.3999,1327.2784 C237.9269,1323.7004 239.1849,1319.1614 238.2319,1314.8134 C236.4429,1306.6734 229.7389,1300.7554 222.6689,1297.0164 C215.5249,1293.2394 207.4819,1291.0714 199.6029,1289.4504 C195.6379,1288.6334 191.6339,1288.0404 187.6179,1287.5204 C184.4539,1287.1144 181.2389,1286.7274 178.0519,1286.5754 C174.8179,1286.4194 171.5829,1286.2624 168.3529,1286.1064 C157.3679,1285.5754 146.3609,1285.5594 135.3639,1285.5204 C131.9969,1285.5084 128.6259,1285.5054 125.2549,1285.5054 C117.6179,1285.5054 109.9849,1285.5284 102.3489,1285.5444" id="Fill-1"></path>
                <path d="M110.2256,1246.1709 C108.0576,1246.3979 105.9056,1246.7019 103.7526,1247.0299 C99.9406,1247.6159 96.1516,1249.1549 92.8706,1251.1439 C91.0926,1252.2179 89.4636,1253.6049 87.9096,1254.9759 C86.0846,1256.5889 84.6476,1258.5539 83.1706,1260.4719 C80.4796,1263.9679 78.6236,1268.0459 77.0376,1272.1359 C74.9446,1277.5299 73.8736,1283.3349 73.6316,1289.1119 C73.5146,1291.8539 73.3866,1294.5889 73.1946,1297.3229 C73.0366,1298.2879 72.8576,1299.2439 72.6436,1300.2099 C72.2526,1301.9909 71.6866,1303.7409 71.1596,1305.4839 C69.8236,1309.9209 72.7136,1314.7339 77.0966,1315.9409 C81.6476,1317.1939 86.2176,1314.4369 87.5536,1310.0029 C88.1666,1307.9679 88.7726,1305.9369 89.2296,1303.8589 C89.7806,1301.3589 90.0846,1298.7879 90.2766,1296.2369 C90.4136,1294.4289 90.4836,1292.6199 90.5576,1290.8079 C90.6286,1289.1089 90.7516,1287.4379 90.9126,1285.7499 C91.4876,1282.5089 92.3906,1279.3519 93.5806,1276.2809 C94.6806,1273.9339 95.9696,1271.6919 97.4726,1269.5829 C98.4836,1268.3989 99.5696,1267.3079 100.7486,1266.2999 C101.6296,1265.7069 102.5366,1265.1789 103.4846,1264.6999 C105.4216,1264.0209 107.3936,1263.5979 109.4126,1263.2589 C111.9706,1263.0099 114.5196,1262.8559 117.0906,1263.0609 C119.1946,1263.4159 121.2686,1263.9079 123.2806,1264.6289 C124.9766,1265.4489 126.5666,1266.4239 128.1086,1267.5149 C130.4126,1269.4509 132.3916,1271.6359 134.2736,1273.9609 C135.3756,1275.6039 136.4636,1277.2429 137.3426,1279.0229 C138.1976,1280.7519 138.9846,1282.5039 139.7496,1284.2719 C140.6536,1286.5439 141.5276,1288.8189 142.3236,1291.1359 C143.1786,1293.6119 143.7846,1296.1939 144.3386,1298.7529 C144.8816,1301.2569 145.3976,1303.7689 145.9406,1306.2729 C146.4676,1308.6749 146.8626,1311.1359 147.5886,1313.4869 C148.9526,1317.9089 153.4716,1320.6829 158.0416,1319.4249 C162.4056,1318.2259 165.3466,1313.3979 163.9796,1308.9679 C163.2526,1306.6159 162.8586,1304.1549 162.3346,1301.7529 C161.7526,1299.0929 161.2056,1296.4209 160.6316,1293.7609 C159.3776,1287.9869 157.3386,1282.5029 155.0266,1277.0769 C153.9756,1274.6119 152.9956,1272.0259 151.6516,1269.7019 C151.0146,1268.6049 150.3896,1267.5189 149.6826,1266.4679 C148.4956,1264.6979 147.1666,1263.0339 145.8586,1261.3549 C144.1126,1259.1159 142.1046,1257.1009 139.9166,1255.2999 C138.1826,1253.8699 136.3666,1252.5499 134.4716,1251.3469 C132.4166,1250.0419 130.1126,1249.1279 127.8546,1248.2409 C126.2056,1247.5969 124.4486,1247.2179 122.7176,1246.8699 C120.5536,1246.4369 118.3466,1246.1439 116.1436,1245.9759 C115.5826,1245.9339 115.0136,1245.9149 114.4416,1245.9149 C113.0326,1245.9149 111.6036,1246.0259 110.2256,1246.1709" id="Fill-3"></path>
                <path d="M64.4261,1.0302 C61.4921,1.8392 58.9411,3.8002 57.4061,6.4292 C55.7581,9.2452 55.5121,12.3502 56.2191,15.4832 C56.8311,18.1842 57.4081,20.8822 57.8751,23.6092 C58.1381,26.3542 58.3481,29.1022 58.5351,31.8542 C58.7461,35.0342 58.6211,38.2572 58.6291,41.4402 C58.6411,47.5422 58.7111,53.6392 58.8631,59.7412 C59.0471,66.8392 59.3831,73.9252 59.8751,81.0072 C60.3941,88.5032 61.5431,95.9682 62.6441,103.3982 C64.2331,115.9052 66.1791,128.3692 68.0711,140.8332 C68.8091,146.4092 69.5381,151.9802 70.0311,157.5852 C70.3361,161.0182 70.5821,164.4482 70.8201,167.8862 C71.0621,171.4212 71.1331,174.9562 71.2381,178.4952 C71.4181,184.5652 71.4411,190.6392 71.7501,196.7062 C72.0861,203.3192 72.5001,209.9212 72.9411,216.5262 C73.1681,219.9132 73.4221,223.2842 73.4841,226.6792 C73.5551,230.5032 73.6131,234.3232 73.6411,238.1472 C73.6911,244.7802 73.7731,251.4092 73.9371,258.0372 C74.0941,264.4512 74.2541,270.8732 74.6441,277.2802 C74.8551,280.7872 75.0431,284.3032 75.2811,287.8112 C75.5191,291.3112 75.8711,294.8192 75.9651,298.3232 C76.3401,312.1512 76.3441,326.0102 77.3941,339.8072 C77.8941,346.3342 78.5861,352.8542 79.0391,359.3812 C79.5231,366.3152 79.9691,373.2602 80.5901,380.1862 C81.8321,393.9832 82.5701,407.8232 83.5431,421.6472 C83.8011,425.2992 83.8401,428.9832 83.9841,432.6432 C84.1211,436.0102 84.2621,439.3732 84.3981,442.7372 C84.6521,448.9282 85.1051,455.1122 85.5701,461.2912 C86.0741,467.9832 86.3751,474.6742 86.6841,481.3772 C87.0001,488.3382 87.4261,495.2912 87.9451,502.2442 C88.4531,509.0022 88.7691,515.7572 89.0161,522.5262 C89.2661,529.3312 89.6721,536.1162 90.1521,542.9052 C90.5981,549.2372 90.9531,555.5462 91.0271,561.8972 C91.1091,568.6432 91.1291,575.4052 91.3631,582.1472 C91.5901,588.7532 91.7151,595.3892 92.2891,601.9792 C92.8791,608.8002 93.6051,615.6122 94.0821,622.4402 C94.3981,626.9212 94.7151,631.4012 95.1761,635.8702 C95.6721,640.6322 96.2621,645.3822 96.6091,650.1592 C96.9491,654.8542 97.3631,659.5342 97.8671,664.2142 C98.3701,668.8882 99.1471,673.5512 99.8681,678.2022 C100.5681,683.8182 101.3431,689.4342 101.8591,695.0692 C102.4491,701.5382 103.1641,708.0302 103.2621,714.5302 C103.4651,728.0072 103.3091,741.4992 103.3091,754.9752 L103.3091,835.0182 C103.3091,862.7292 103.2191,890.4402 103.4651,918.1512 C103.5781,931.0732 103.8911,944.0032 105.0591,956.8782 C105.6911,963.8352 106.3981,970.7682 106.8551,977.7372 C107.2891,984.3112 107.6991,990.8822 108.0901,997.4562 C108.2851,1000.7452 108.2071,1004.0692 108.2621,1007.3622 C108.3161,1010.6362 108.2731,1013.9092 108.2731,1017.1822 L108.2731,1035.3272 L108.2731,1076.6162 C108.2731,1103.6432 108.1841,1130.6752 108.7461,1157.6942 C108.9301,1166.4252 109.5941,1175.1162 110.1411,1183.8232 C110.3011,1186.3972 110.4651,1188.9682 110.6251,1191.5422 C110.7851,1194.0852 110.7191,1196.6632 110.7621,1199.2142 C110.8281,1203.4682 110.8011,1207.7252 110.8241,1211.9792 C110.8791,1221.0542 110.9061,1230.1322 111.2271,1239.2062 C111.4141,1244.6122 111.7071,1249.9992 112.2691,1255.3782 C112.5741,1258.3072 113.0351,1261.2332 113.5821,1264.1242 C114.2381,1267.6002 115.8941,1270.9442 117.4181,1274.1002 C118.8521,1277.0692 120.6521,1279.9012 122.2851,1282.7612 C125.4611,1288.3152 132.8751,1290.1862 138.3631,1286.9792 C143.9261,1283.7212 145.7541,1276.4642 142.5781,1270.9012 C140.7091,1267.6292 138.7911,1264.3852 137.1211,1261.0102 C136.9531,1260.5362 136.7991,1260.0582 136.6561,1259.5772 C136.2181,1258.2602 136.0031,1256.8392 135.7961,1255.4512 C134.9921,1248.5712 134.7311,1241.6242 134.5941,1234.7022 C134.4531,1227.8112 134.3751,1220.9172 134.3361,1214.0262 C134.2971,1207.1592 134.2771,1200.2962 134.1681,1193.4322 C134.0661,1187.2922 133.3631,1181.1712 133.0191,1175.0462 C131.4841,1147.8002 131.7851,1120.4642 131.7731,1093.1862 C131.7661,1066.7412 131.7731,1040.2962 131.7731,1013.8502 C131.7731,1007.2802 131.7811,1000.6982 131.3911,994.1362 C130.9771,987.1552 130.5161,980.1792 130.0591,973.2022 C129.6211,966.5852 128.8441,959.9792 128.2421,953.3742 C127.6681,947.0502 127.4341,940.6712 127.2661,934.3272 C126.5431,906.8542 126.8161,879.3472 126.8091,851.8702 C126.8051,825.0892 126.8091,798.3112 126.8091,771.5302 L126.8091,743.5652 C126.8091,734.5692 126.9301,725.5652 126.7931,716.5732 C126.6601,707.7062 125.8751,698.8042 124.8011,690.0032 C124.2501,685.4952 123.6991,680.9872 123.1561,676.4792 C122.6361,672.1642 121.9341,667.8662 121.2971,663.5632 C121.0051,660.8362 120.7181,658.1122 120.5041,655.3782 C120.2581,652.2252 120.1211,649.0542 119.7691,645.9132 C119.0311,639.3312 118.3091,632.7572 117.8441,626.1512 C117.3591,619.2412 116.6871,612.3582 116.0901,605.4602 C115.5121,598.7962 115.2071,592.1282 114.9771,585.4442 C114.7421,578.7222 114.6521,571.9952 114.5701,565.2682 C114.5311,561.9442 114.4491,558.6202 114.3631,555.2922 C114.2731,551.6862 114.0001,548.0972 113.7621,544.4992 C113.3631,538.5342 112.8831,532.5732 112.6641,526.5972 C112.4261,520.0262 112.2851,513.4322 111.7931,506.8772 C111.2771,499.9752 110.7191,493.0762 110.4021,486.1622 C110.0901,479.3662 109.9141,472.5452 109.4061,465.7602 C108.9021,459.0732 108.2931,452.3692 108.0191,445.6742 C107.7191,438.3812 107.4221,431.0922 107.1291,423.7992 C106.8711,417.2952 106.2771,410.7992 105.8551,404.3032 C105.4301,397.6822 105.0701,391.0612 104.4771,384.4512 C103.8481,377.4712 103.3121,370.4832 102.8281,363.4872 C102.3831,357.1082 101.7301,350.7482 101.2461,344.3732 C100.7191,337.4942 100.3011,330.6162 100.0861,323.7172 C99.8671,316.6742 99.7691,309.6272 99.5821,302.5842 C99.3941,295.6312 98.8361,288.6982 98.4141,281.7562 C98.0271,275.3542 97.7071,268.9512 97.5471,262.5412 C97.3831,255.8312 97.2231,249.1202 97.1721,242.4092 C97.1211,235.3432 97.2231,228.2412 96.7541,221.1902 C96.2891,214.2412 95.7851,207.3002 95.4341,200.3462 C95.0941,193.6202 94.9261,186.8932 94.7851,180.1592 C94.5431,168.3932 93.6521,156.6822 92.1211,145.0112 C90.4301,132.1242 88.3691,119.2972 86.5141,106.4352 C85.9411,101.8812 85.3261,97.3332 84.6641,92.7892 C83.8801,86.6112 83.1961,80.4162 82.9061,74.1902 C82.5621,66.7372 82.3161,59.2882 82.2071,51.8272 C82.1091,45.3002 82.1951,38.7722 82.0431,32.2492 C81.8591,24.4912 80.5901,16.7882 78.8791,9.2332 C77.6981,4.0092 72.5431,0.6342 67.4001,0.6342 C66.3981,0.6342 65.3971,0.7632 64.4261,1.0302" id="rope"></path>
            </g>
            <path d="M257.009629,128 L382,128 L382,0 L0,0 L0,128 L70.197841,128 C70.7434053,129.910311 71.3798135,131.796676 72.1103,133.6688 C74.9423,139.9278 78.5443,145.7638 82.0063,151.6898 C84.8033,156.4778 87.4903,161.3208 90.7543,165.8058 C93.4203,169.0488 96.4493,171.9908 99.7043,174.6488 C103.7233,177.5308 108.0243,179.8578 112.4243,182.1308 C114.4553,183.1818 116.5223,184.1818 118.5183,185.3068 C123.4093,188.0598 128.1993,191.1138 133.3013,193.4678 C137.4583,195.0978 141.7403,196.4058 146.0963,197.3688 C148.3073,197.8578 150.5223,198.4548 152.7603,198.8068 C156.5283,199.3998 160.2933,199.9548 164.0683,200.4838 C175.4583,201.4978 186.8683,202.1648 198.2543,200.8838 C201.5303,200.3578 204.7193,199.6168 207.8303,198.4788 C210.9313,196.9798 213.8123,195.1088 216.5823,193.0638 C218.8953,191.2118 221.1443,189.2898 223.4043,187.3728 C225.0573,185.9708 226.8073,184.5838 228.3383,183.0568 C229.9753,181.4238 231.7643,179.8648 233.2763,178.1148 C234.7393,176.4208 236.2063,174.7268 237.6703,173.0318 C239.8893,170.0728 242.1093,167.1108 244.0453,163.9508 C246.6063,159.7708 248.6193,155.3228 250.6173,150.8608 C252.0013,147.3018 253.4233,143.7138 254.3893,140.0218 C254.9363,137.9358 255.6583,135.8298 256.0413,133.7088 C256.3323,132.0988 256.6253,130.4888 256.9163,128.8798 C256.947594,128.586542 256.978788,128.293284 257.009629,128 Z" id="Combined-Shape" fill="#FFE11A"></path>
            <path d="M151.1313,23.7598 C154.4473,23.5408 157.7363,23.5328 161.0653,23.5258 C166.8543,23.5108 172.6533,23.9788 178.4143,24.5458 C182.8063,25.2858 187.2003,26.1408 191.4593,27.4748 C196.0883,28.9268 200.6233,30.5328 205.1373,32.2818 C208.7493,33.9158 212.3953,35.5368 215.8033,37.5528 C217.9083,38.7948 219.9553,40.0648 221.9983,41.4048 C223.5013,42.3948 224.9363,43.4748 226.3703,44.5598 C232.9573,49.7578 239.6223,54.9118 244.9643,61.4268 C248.1723,65.7908 250.9923,70.3518 253.2303,75.2858 C255.1993,80.2758 256.8473,85.4688 257.7733,90.7538 C258.2333,95.5438 258.1023,100.3598 258.0573,105.1698 C258.0333,107.7368 257.9833,110.3068 257.9043,112.8728 C257.8033,116.1428 257.6663,119.3968 257.4753,122.6578 C257.3533,124.7378 257.1373,126.8088 256.9163,128.8798 C256.6253,130.4888 256.3323,132.0988 256.0413,133.7088 C255.6583,135.8298 254.9363,137.9358 254.3893,140.0218 C253.4233,143.7138 252.0013,147.3018 250.6173,150.8608 C248.6193,155.3228 246.6063,159.7708 244.0453,163.9508 C242.1093,167.1108 239.8893,170.0728 237.6703,173.0318 C236.2063,174.7268 234.7393,176.4208 233.2763,178.1148 C231.7643,179.8648 229.9753,181.4238 228.3383,183.0568 C226.8073,184.5838 225.0573,185.9708 223.4043,187.3728 C221.1443,189.2898 218.8953,191.2118 216.5823,193.0638 C213.8123,195.1088 210.9313,196.9798 207.8303,198.4788 C204.7193,199.6168 201.5303,200.3578 198.2543,200.8838 C186.8683,202.1648 175.4583,201.4978 164.0683,200.4838 C160.2933,199.9548 156.5283,199.3998 152.7603,198.8068 C150.5223,198.4548 148.3073,197.8578 146.0963,197.3688 C141.7403,196.4058 137.4583,195.0978 133.3013,193.4678 C128.1993,191.1138 123.4093,188.0598 118.5183,185.3068 C116.5223,184.1818 114.4553,183.1818 112.4243,182.1308 C108.0243,179.8578 103.7233,177.5308 99.7043,174.6488 C96.4493,171.9908 93.4203,169.0488 90.7543,165.8058 C87.4903,161.3208 84.8033,156.4778 82.0063,151.6898 C78.5443,145.7638 74.9423,139.9278 72.1103,133.6688 C70.4793,129.4888 69.3173,125.2378 68.5883,120.8078 C67.9843,115.3738 67.8853,109.9448 68.0223,104.4708 C68.1533,99.2698 68.3213,94.0488 68.8963,88.8708 C69.4853,85.2908 70.4063,81.8478 71.7063,78.4578 C74.0393,73.3368 76.9643,68.5078 80.3613,64.0218 C81.2833,62.8048 82.2073,61.5888 83.1303,60.3718 C84.3103,58.9758 85.4883,57.5778 86.6683,56.1818 C87.0493,55.8108 87.4303,55.4398 87.8113,55.0688 C92.9293,50.0718 97.9913,45.0338 103.5623,40.5358 C106.8523,38.1228 110.3273,35.9828 113.9313,34.0808 C118.2523,32.6188 122.7283,31.6728 127.2373,30.9598 C130.3493,30.6488 133.4783,30.6168 136.6043,30.6308 C141.1353,30.6528 145.1353,27.9578 147.0883,24.1198 C148.4313,23.9738 149.7763,23.8498 151.1313,23.7598 M155.1193,0.0368 C154.1113,0.0408 153.1113,0.1268 152.1083,0.1938 C150.6783,0.2908 149.2093,0.2988 147.7873,0.4868 C144.2333,0.9508 140.6513,1.3258 137.1273,1.9588 C132.0263,2.8768 127.0223,3.9828 122.0613,5.5058 C115.8653,7.4138 109.7763,9.8708 103.9713,12.8098 C102.4493,13.4318 100.9463,14.0998 99.4553,14.7908 C95.9983,16.3928 92.7053,18.3728 89.6273,20.6188 C82.8933,25.5328 77.0843,31.3338 71.6783,37.6548 C71.1173,38.3098 70.5543,38.9648 69.9933,39.6198 C69.8203,39.7898 69.6483,39.9578 69.4753,40.1268 C67.6353,41.9238 65.7913,43.7438 64.0723,45.6658 C63.9203,45.8378 63.7723,46.0098 63.6193,46.1818 C62.1923,47.8068 61.1203,49.5388 60.5773,51.5028 C59.8273,52.5078 59.0853,53.5188 58.3583,54.5408 C53.6433,61.1468 49.9203,68.6818 47.5723,76.4508 C45.9243,81.9048 45.5103,87.6618 45.0103,93.3148 C44.7913,95.7908 44.7333,98.2828 44.6153,100.7678 C44.3613,106.2008 44.3463,111.6618 44.7563,117.0878 C45.2483,123.6038 46.1193,130.1348 48.1273,136.3728 C50.0223,142.2678 52.7833,147.8728 55.7523,153.2868 C58.2443,157.8258 60.9753,162.2288 63.5493,166.7208 C67.4043,173.4468 71.6153,180.0488 77.0023,185.6738 C82.8263,191.7518 89.7833,196.7988 97.2293,200.6898 C100.1663,202.2288 103.1193,203.7438 106.0653,205.2638 C108.3303,206.4318 110.5333,207.7518 112.7333,209.0408 C113.9903,209.7798 115.2523,210.5178 116.5103,211.2558 C120.4633,213.5688 124.7873,215.3218 129.0763,216.8968 C136.3853,219.5798 144.0293,221.0758 151.6933,222.2828 C158.0263,223.2758 164.3733,224.0098 170.7563,224.5798 C176.1783,225.0688 181.6313,225.0758 187.0723,225.1188 C189.7443,225.1428 192.4403,224.8458 195.1113,224.6898 C198.4553,224.4978 201.8193,223.9788 205.1193,223.4508 C209.8193,222.7008 214.1583,221.2478 218.5023,219.3218 C225.0533,216.4158 230.8073,211.8068 236.2363,207.2008 C238.5413,205.2478 240.8343,203.2868 243.1043,201.2948 C245.2763,199.3968 247.2833,197.3538 249.3223,195.3188 C251.2173,193.4318 252.8733,191.2828 254.6193,189.2638 C256.9983,186.5098 259.0613,183.4078 261.2333,180.4898 C264.5103,176.0838 267.1153,171.1738 269.3583,166.1738 C270.9203,162.6898 272.4633,159.2128 273.8343,155.6508 C274.9043,152.8728 275.8263,150.0838 276.7363,147.2478 C280.3423,136.0298 281.0573,124.1778 281.4163,112.4788 C281.4903,110.0958 281.5333,107.7128 281.5533,105.3258 C281.6003,100.7168 281.7213,96.1038 281.3543,91.5058 C280.7013,83.3228 278.4833,75.3688 275.3893,67.7908 C273.7093,63.6698 271.8583,59.6778 269.5613,55.8618 C267.1903,51.9238 264.3303,48.2398 261.4753,44.6548 C257.1043,39.1698 251.5183,34.7048 246.0493,30.3728 C241.1193,26.4668 236.2293,22.3228 230.7953,19.1118 C228.3073,17.6428 225.8543,16.2368 223.2723,14.9508 C220.7833,13.7088 218.2523,12.5688 215.7253,11.4158 C210.0103,8.8068 204.0263,6.7948 198.0413,4.9198 C186.9793,1.4548 175.3263,0.4708 163.7993,0.1118 C161.7753,0.0458 159.7533,0.0338 157.7313,0.0338 C156.8603,0.0338 155.9903,0.0358 155.1193,0.0368" id="wheel" fill="#FFFFFF"></path>
            <g id="wheel-holder" transform="translate(1.000000, 79.000000)">
                <polygon id="Path-2" stroke="#FFFFFF" stroke-width="12" fill="#FFE11A" stroke-linecap="round" stroke-linejoin="bevel" points="0 123 145 4 176 50 64 203"></polygon>
                <path d="M153.0952,0.9131 C151.5172,1.1041 150.1302,1.1861 148.6812,1.6901 C145.6852,2.7291 143.1772,4.3861 140.9472,6.6511 C137.5172,10.1361 135.6812,14.9331 134.6422,19.6121 C133.7212,23.7531 133.4882,28.1281 134.5482,32.2521 C134.5412,32.3791 134.5342,32.5051 134.5292,32.6321 C134.3922,35.5651 135.4472,38.8661 136.7712,41.4481 C138.2672,44.3581 140.6542,46.6901 143.3452,48.5031 C145.3102,49.8271 147.5992,50.7371 149.8802,51.3581 C151.4432,51.7801 153.0992,51.8621 154.7082,52.0261 C155.2802,52.0831 155.8532,52.0581 156.4272,51.9921 C156.8862,52.0941 157.3462,52.1881 157.8062,52.2801 C161.1732,52.9481 163.8762,53.0031 167.2282,52.3861 C169.7162,51.9291 172.2002,50.9251 174.2942,49.4911 C176.9392,47.6831 178.9312,45.6941 180.7592,43.0611 C182.2162,40.9641 183.1502,38.6161 184.0482,36.2291 C185.7862,31.6161 186.3572,25.9831 184.6692,21.2841 C183.4422,17.8691 181.4042,14.8311 178.7172,12.4851 C177.8922,11.0251 176.8892,9.7001 175.6152,8.3661 C174.0562,6.7331 171.9582,5.3391 169.8922,4.4011 C167.7202,3.4131 165.5442,2.5341 163.2402,1.9331 C160.6812,1.2651 157.9782,0.9911 155.3532,0.7801 C155.1992,0.7681 155.0442,0.7631 154.8882,0.7631 C154.2892,0.7631 153.6842,0.8421 153.0952,0.9131" id="wheel-axes" fill="#FFFFFF"></path>
            </g>
        </g>
    </g>
</svg>