<svg xmlns="http://www.w3.org/2000/svg" viewBox="0 0 1374 1186"><g fill="none" fill-rule="evenodd" stroke="#000" stroke-linecap="round" stroke-linejoin="round" stroke-width="4"><path d="M365 397C393.666667 452.333333 417.333333 486.333333 436 499 464 518 477 522 509 534 522.744761 539.154285 552 530 565 522 570.863415 518.391744 598.213339 455.573321 619 414 623 406 624 325 632 271 633.650721 259.857635 642.682291 257.812513 644 242 648 194 622.10431 2.05673613 452 22 307 39 273 176 287 242 275.31236 261.3161 280.055241 278.810279 284 297 286.629839 309.12648 293.629839 318.459814 305 325 304.033698 331.846392 304.033698 337.846392 305 343 305.966302 348.153608 307.966302 352.820275 311 357L311 434C310.881466 458.352194 312.881466 475.352194 317 485 357.411698 579.665777 425.981928 611.708914 500 588M745 1183C706.333333 1163 609 1083.33333 453 944L579 914M291 163C443 91 570 94 619 138M643 248C598 217 323 233 301 246"/><path d="M292 256C353 256 404.031455 280.523591 442 309 458 321 492 380 579 333 581 341 582 345 582 345 604.666667 348.333333 619 349.666667 625 349M443 309C443 309 458 258 485 231M610 450C656 466 659 478 687 516 693.759378 525.173442 703 522 709 531 715 540 712.136959 551.753975 717 560 721.863041 568.246025 725 563 732 570 739 577 732 589 737 599 742 609 774 614 770 638 782.114342 658.959735 794.114342 687.626401 806 724M211 185C131 235.666667 64 289.666667 10 347 18 368 70 437 107 470"/><path d="M119 459L27 349C98.3333333 283.666667 163.666667 232 223 194 227.127189 191.356744 246.127189 215.690078 280 267M622 407C624.666667 401.666667 628.333333 399 633 399L662 372C664.006287 373.295822 665.672953 373.295822 667 372 667 306 717 306 747 289 723 331 748 376 674 380 672.946135 381.400341 672.946135 383.400341 674 386 666 394.666667 657 404.333333 647 415 645.666667 428.333333 637.666667 441.333333 623 454M310 437C235.333333 435.666667 189.333333 441.666667 172 455 123 452 108 469 98 481 68 485.666667 43.3333333 500.666667 24 526 35.3333333 527.333333 41 528.666667 41 530 23 540.666667 13.3333333 571 12 621 6.66666667 638.129401 4 649.796067 4 656 4 665.305899 8 668 12 678 7 809 17 761 34 780 36 827 34 838 54 854 55.6723846 859.853346 57.6723846 865.520013 60 871 64 868.333333 66.3333333 868.333333 67 871 88 910 94 950 98 994 109 1051 191 1078 240 1080 289 1082 405 1023 479 968"/><path d="M201 897C252 863 296 869 340 859 513.147458 819.648305 545 782 609 771 673 760 689 754 716 755 734 755.666667 761 767.666667 797 791L793 835M519 924L544 899M252 817L268 868M515 885C567 910 598 914 605 918 612 922 640.935492 977.926277 676 1018 690 1034 719 1014 708 997 684.620551 960.868124 673 944 647 902 643.057655 895.631596 654.728906 884.857469 660 890 701 930 709 944 760 992"/><path d="M756 1183C885 1131 1262 1017 1293 997 1309.19179 986.553684 1358.34235 593.112596 1371 564 1381 541 1069 616 963 621 857 626 811.358447 626.216315 812 636 816 697 752 1128 744 1149 736 1170 746.324118 1186.90036 756 1183zM125 500C164.333333 513.333333 190.666667 555 204 625 206.315587 637.156832 192.685984 634.105122 195 642 201 648 214.969856 666.417104 221 683 225 694 211.786185 690.351967 211 699 210.19079 707.901312 212.19079 716.567978 217 725 238.333333 732.333333 250 742 252 754 254 766 248 776 234 784 246.666667 798.666667 253.666667 809.666667 255 817 187 807 126.666667 821.333333 74 860M602 609C632.666667 652.333333 645.666667 704.333333 641 765 651 763 668 760 684 757 718 705.666667 749.333333 677 778 671"/></g></svg>